{"glyphs":{"0":{"ha":926,"x_min":78,"x_max":849,"o":"m 694 964 q 683 938 694 949 q 656 926 672 926 l 269 926 q 243 938 254 926 q 232 964 232 949 l 232 1042 q 243 1069 232 1058 q 269 1081 254 1081 l 656 1081 q 683 1069 672 1081 q 694 1042 694 1058 l 694 964 m 849 193 q 838 165 849 176 q 810 154 826 154 l 733 154 q 706 165 717 154 q 694 193 694 176 l 694 617 l 579 617 q 551 628 563 617 q 540 656 540 640 l 540 733 q 551 760 540 749 q 579 772 563 772 l 694 772 l 694 888 q 706 915 694 903 q 733 926 717 926 l 810 926 q 838 915 826 926 q 849 888 849 903 l 849 193 m 540 501 q 529 474 540 486 q 501 463 518 463 l 425 463 q 397 474 408 463 q 386 501 386 486 l 386 579 q 397 606 386 594 q 425 617 408 617 l 501 617 q 529 606 518 617 q 540 579 540 594 l 540 501 m 386 347 q 375 319 386 331 q 347 308 364 308 l 232 308 l 232 193 q 220 165 232 176 q 193 154 208 154 l 115 154 q 89 165 100 154 q 78 193 78 176 l 78 888 q 89 915 78 903 q 115 926 100 926 l 193 926 q 220 915 208 926 q 232 888 232 903 l 232 463 l 347 463 q 375 451 364 463 q 386 425 386 440 l 386 347 m 694 39 q 683 11 694 22 q 656 0 672 0 l 269 0 q 243 11 254 0 q 232 39 232 22 l 232 115 q 243 143 232 132 q 269 154 254 154 l 656 154 q 683 143 672 154 q 694 115 694 132 l 694 39 z "},"1":{"ha":926,"x_min":78,"x_max":849,"o":"m 849 39 q 838 11 849 22 q 810 0 826 0 l 115 0 q 89 11 100 0 q 78 39 78 22 l 78 115 q 89 143 78 132 q 115 154 100 154 l 386 154 l 386 772 l 269 772 q 243 783 254 772 q 232 810 232 794 l 232 888 q 243 915 232 903 q 269 926 254 926 l 386 926 l 386 1042 q 397 1069 386 1058 q 425 1081 408 1081 l 501 1081 q 529 1069 518 1081 q 540 1042 540 1058 l 540 154 l 810 154 q 838 143 826 154 q 849 115 849 132 l 849 39 m 232 656 q 220 628 232 640 q 193 617 208 617 l 115 617 q 89 628 100 617 q 78 656 78 640 l 78 733 q 89 760 78 749 q 115 772 100 772 l 193 772 q 220 760 208 772 q 232 733 232 749 l 232 656 z "},"2":{"ha":926,"x_min":78,"x_max":849,"o":"m 849 656 q 838 628 849 640 q 810 617 826 617 l 733 617 q 706 628 717 617 q 694 656 694 640 l 694 888 q 706 915 694 903 q 733 926 717 926 l 810 926 q 838 915 826 926 q 849 888 849 903 l 849 656 m 694 964 q 683 938 694 949 q 656 926 672 926 l 269 926 q 243 938 254 926 q 232 964 232 949 l 232 1042 q 243 1069 232 1058 q 269 1081 254 1081 l 656 1081 q 683 1069 672 1081 q 694 1042 694 1058 l 694 964 m 694 501 q 683 474 694 486 q 656 463 672 463 l 579 463 q 551 474 563 463 q 540 501 540 486 l 540 579 q 551 606 540 594 q 579 617 563 617 l 656 617 q 683 606 672 617 q 694 579 694 594 l 694 501 m 232 810 q 220 783 232 794 q 193 772 208 772 l 115 772 q 89 783 100 772 q 78 810 78 794 l 78 888 q 89 915 78 903 q 115 926 100 926 l 193 926 q 220 915 208 926 q 232 888 232 903 l 232 810 m 540 347 q 529 319 540 331 q 501 308 518 308 l 425 308 q 397 319 408 308 q 386 347 386 331 l 386 425 q 397 451 386 440 q 425 463 408 463 l 501 463 q 529 451 518 463 q 540 425 540 440 l 540 347 m 849 39 q 838 11 849 22 q 810 0 826 0 l 115 0 q 89 11 100 0 q 78 39 78 22 l 78 115 q 89 143 78 132 q 115 154 100 154 l 232 154 l 232 269 q 243 297 232 286 q 269 308 254 308 l 347 308 q 375 297 364 308 q 386 269 386 286 l 386 154 l 810 154 q 838 143 826 154 q 849 115 849 132 l 849 39 z "},"3":{"ha":926,"x_min":78,"x_max":849,"o":"m 849 964 q 838 938 849 949 q 810 926 826 926 l 694 926 l 694 810 q 683 783 694 794 q 656 772 672 772 l 579 772 q 551 783 563 772 q 540 810 540 794 l 540 926 l 115 926 q 89 938 100 926 q 78 964 78 949 l 78 1042 q 89 1069 78 1058 q 115 1081 100 1081 l 810 1081 q 838 1069 826 1081 q 849 1042 849 1058 l 849 964 m 694 501 q 683 474 694 486 q 656 463 672 463 l 269 463 q 243 474 254 463 q 232 501 232 486 l 232 579 q 243 606 232 594 q 269 617 254 617 l 386 617 l 386 733 q 397 760 386 749 q 425 772 408 772 l 501 772 q 529 760 518 772 q 540 733 540 749 l 540 617 l 656 617 q 683 606 672 617 q 694 579 694 594 l 694 501 m 849 193 q 838 165 849 176 q 810 154 826 154 l 733 154 q 706 165 717 154 q 694 193 694 176 l 694 425 q 706 451 694 440 q 733 463 717 463 l 810 463 q 838 451 826 463 q 849 425 849 440 l 849 193 m 694 39 q 683 11 694 22 q 656 0 672 0 l 269 0 q 243 11 254 0 q 232 39 232 22 l 232 115 q 243 143 232 132 q 269 154 254 154 l 656 154 q 683 143 672 154 q 694 115 694 132 l 694 39 m 232 193 q 220 165 232 176 q 193 154 208 154 l 115 154 q 89 165 100 154 q 78 193 78 176 l 78 269 q 89 297 78 286 q 115 308 100 308 l 193 308 q 220 297 208 308 q 232 269 232 286 l 232 193 z "},"4":{"ha":926,"x_min":78,"x_max":849,"o":"m 386 656 q 375 628 386 640 q 347 617 364 617 l 269 617 q 243 628 254 617 q 232 656 232 640 l 232 733 q 243 760 232 749 q 269 772 254 772 l 347 772 q 375 760 364 772 q 386 733 386 749 l 386 656 m 849 347 q 838 319 849 331 q 810 308 826 308 l 694 308 l 694 39 q 683 11 694 22 q 656 0 672 0 l 579 0 q 551 11 563 0 q 540 39 540 22 l 540 308 l 115 308 q 89 319 100 308 q 78 347 78 331 l 78 579 q 89 606 78 594 q 115 617 100 617 l 193 617 q 220 606 208 617 q 232 579 232 594 l 232 463 l 540 463 l 540 772 l 425 772 q 397 783 408 772 q 386 810 386 794 l 386 888 q 397 915 386 903 q 425 926 408 926 l 540 926 l 540 1042 q 551 1069 540 1058 q 579 1081 563 1081 l 656 1081 q 683 1069 672 1081 q 694 1042 694 1058 l 694 463 l 810 463 q 838 451 826 463 q 849 425 849 440 l 849 347 z "},"5":{"ha":926,"x_min":78,"x_max":849,"o":"m 849 964 q 838 938 849 949 q 810 926 826 926 l 232 926 l 232 617 l 656 617 q 683 606 672 617 q 694 579 694 594 l 694 501 q 683 474 694 486 q 656 463 672 463 l 115 463 q 89 474 100 463 q 78 501 78 486 l 78 1042 q 89 1069 78 1058 q 115 1081 100 1081 l 810 1081 q 838 1069 826 1081 q 849 1042 849 1058 l 849 964 m 849 193 q 838 165 849 176 q 810 154 826 154 l 733 154 q 706 165 717 154 q 694 193 694 176 l 694 425 q 706 451 694 440 q 733 463 717 463 l 810 463 q 838 451 826 463 q 849 425 849 440 l 849 193 m 694 39 q 683 11 694 22 q 656 0 672 0 l 269 0 q 243 11 254 0 q 232 39 232 22 l 232 115 q 243 143 232 132 q 269 154 254 154 l 656 154 q 683 143 672 154 q 694 115 694 132 l 694 39 m 232 193 q 220 165 232 176 q 193 154 208 154 l 115 154 q 89 165 100 154 q 78 193 78 176 l 78 269 q 89 297 78 286 q 115 308 100 308 l 193 308 q 220 297 208 308 q 232 269 232 286 l 232 193 z "},"6":{"ha":926,"x_min":78,"x_max":849,"o":"m 849 810 q 838 783 849 794 q 810 772 826 772 l 733 772 q 706 783 717 772 q 694 810 694 794 l 694 888 q 706 915 694 903 q 733 926 717 926 l 810 926 q 838 915 826 926 q 849 888 849 903 l 849 810 m 694 964 q 683 938 694 949 q 656 926 672 926 l 269 926 q 243 938 254 926 q 232 964 232 949 l 232 1042 q 243 1069 232 1058 q 269 1081 254 1081 l 656 1081 q 683 1069 672 1081 q 694 1042 694 1058 l 694 964 m 849 193 q 838 165 849 176 q 810 154 826 154 l 733 154 q 706 165 717 154 q 694 193 694 176 l 694 425 q 706 451 694 440 q 733 463 717 463 l 810 463 q 838 451 826 463 q 849 425 849 440 l 849 193 m 694 501 q 683 474 694 486 q 656 463 672 463 l 232 463 l 232 193 q 220 165 232 176 q 193 154 208 154 l 115 154 q 89 165 100 154 q 78 193 78 176 l 78 888 q 89 915 78 903 q 115 926 100 926 l 193 926 q 220 915 208 926 q 232 888 232 903 l 232 617 l 656 617 q 683 606 672 617 q 694 579 694 594 l 694 501 m 694 39 q 683 11 694 22 q 656 0 672 0 l 269 0 q 243 11 254 0 q 232 39 232 22 l 232 115 q 243 143 232 132 q 269 154 254 154 l 656 154 q 683 143 672 154 q 694 115 694 132 l 694 39 z "},"7":{"ha":926,"x_min":78,"x_max":849,"o":"m 849 810 q 838 783 849 794 q 810 772 826 772 l 733 772 q 706 783 717 772 q 694 810 694 794 l 694 926 l 115 926 q 89 938 100 926 q 78 964 78 949 l 78 1042 q 89 1069 78 1058 q 115 1081 100 1081 l 810 1081 q 838 1069 826 1081 q 849 1042 849 1058 l 849 810 m 694 656 q 683 628 694 640 q 656 617 672 617 l 579 617 q 551 628 563 617 q 540 656 540 640 l 540 733 q 551 760 540 749 q 579 772 563 772 l 656 772 q 683 760 672 772 q 694 733 694 749 l 694 656 m 540 39 q 529 11 540 22 q 501 0 518 0 l 425 0 q 397 11 408 0 q 386 39 386 22 l 386 579 q 397 606 386 594 q 425 617 408 617 l 501 617 q 529 606 518 617 q 540 579 540 594 l 540 39 z "},"8":{"ha":926,"x_min":78,"x_max":849,"o":"m 849 656 q 838 628 849 640 q 810 617 826 617 l 733 617 q 706 628 717 617 q 694 656 694 640 l 694 888 q 706 915 694 903 q 733 926 717 926 l 810 926 q 838 915 826 926 q 849 888 849 903 l 849 656 m 694 964 q 683 938 694 949 q 656 926 672 926 l 269 926 q 243 938 254 926 q 232 964 232 949 l 232 1042 q 243 1069 232 1058 q 269 1081 254 1081 l 656 1081 q 683 1069 672 1081 q 694 1042 694 1058 l 694 964 m 849 193 q 838 165 849 176 q 810 154 826 154 l 733 154 q 706 165 717 154 q 694 193 694 176 l 694 425 q 706 451 694 440 q 733 463 717 463 l 810 463 q 838 451 826 463 q 849 425 849 440 l 849 193 m 694 501 q 683 474 694 486 q 656 463 672 463 l 269 463 q 243 474 254 463 q 232 501 232 486 l 232 579 q 243 606 232 594 q 269 617 254 617 l 656 617 q 683 606 672 617 q 694 579 694 594 l 694 501 m 232 656 q 220 628 232 640 q 193 617 208 617 l 115 617 q 89 628 100 617 q 78 656 78 640 l 78 888 q 89 915 78 903 q 115 926 100 926 l 193 926 q 220 915 208 926 q 232 888 232 903 l 232 656 m 694 39 q 683 11 694 22 q 656 0 672 0 l 269 0 q 243 11 254 0 q 232 39 232 22 l 232 115 q 243 143 232 132 q 269 154 254 154 l 656 154 q 683 143 672 154 q 694 115 694 132 l 694 39 m 232 193 q 220 165 232 176 q 193 154 208 154 l 115 154 q 89 165 100 154 q 78 193 78 176 l 78 425 q 89 451 78 440 q 115 463 100 463 l 193 463 q 220 451 208 463 q 232 425 232 440 l 232 193 z "},"9":{"ha":926,"x_min":78,"x_max":849,"o":"m 694 964 q 683 938 694 949 q 656 926 672 926 l 269 926 q 243 938 254 926 q 232 964 232 949 l 232 1042 q 243 1069 232 1058 q 269 1081 254 1081 l 656 1081 q 683 1069 672 1081 q 694 1042 694 1058 l 694 964 m 849 193 q 838 165 849 176 q 810 154 826 154 l 733 154 q 706 165 717 154 q 694 193 694 176 l 694 463 l 269 463 q 243 474 254 463 q 232 501 232 486 l 232 579 q 243 606 232 594 q 269 617 254 617 l 694 617 l 694 888 q 706 915 694 903 q 733 926 717 926 l 810 926 q 838 915 826 926 q 849 888 849 903 l 849 193 m 232 656 q 220 628 232 640 q 193 617 208 617 l 115 617 q 89 628 100 617 q 78 656 78 640 l 78 888 q 89 915 78 903 q 115 926 100 926 l 193 926 q 220 915 208 926 q 232 888 232 903 l 232 656 m 694 39 q 683 11 694 22 q 656 0 672 0 l 269 0 q 243 11 254 0 q 232 39 232 22 l 232 115 q 243 143 232 132 q 269 154 254 154 l 656 154 q 683 143 672 154 q 694 115 694 132 l 694 39 m 232 193 q 220 165 232 176 q 193 154 208 154 l 115 154 q 89 165 100 154 q 78 193 78 176 l 78 269 q 89 297 78 286 q 115 308 100 308 l 193 308 q 220 297 208 308 q 232 269 232 286 l 232 193 z "}," ":{"ha":926,"x_min":0,"x_max":0,"o":""},"Ð":{"ha":926,"x_min":78,"x_max":849,"o":"m 849 193 q 838 165 849 176 q 810 154 826 154 l 733 154 q 706 165 717 154 q 694 193 694 176 l 694 888 q 706 915 694 903 q 733 926 717 926 l 810 926 q 838 915 826 926 q 849 888 849 903 l 849 193 m 694 39 q 683 11 694 22 q 656 0 672 0 l 115 0 q 89 11 100 0 q 78 39 78 22 l 78 1042 q 89 1069 78 1058 q 115 1081 100 1081 l 656 1081 q 683 1069 672 1081 q 694 1042 694 1058 l 694 964 q 683 938 694 949 q 656 926 672 926 l 232 926 l 232 617 l 501 617 q 529 606 518 617 q 540 579 540 594 l 540 501 q 529 474 540 486 q 501 463 518 463 l 232 463 l 232 154 l 656 154 q 683 143 672 154 q 694 115 694 132 l 694 39 z "},"ð":{"ha":926,"x_min":78,"x_max":849,"o":"m 540 964 q 529 938 540 949 q 501 926 518 926 l 425 926 q 397 938 408 926 q 386 964 386 949 l 386 1042 q 397 1069 386 1058 q 425 1081 408 1081 l 501 1081 q 529 1069 518 1081 q 540 1042 540 1058 l 540 964 m 232 964 q 220 938 232 949 q 193 926 208 926 l 115 926 q 89 938 100 926 q 78 964 78 949 l 78 1042 q 89 1069 78 1058 q 115 1081 100 1081 l 193 1081 q 220 1069 208 1081 q 232 1042 232 1058 l 232 964 m 386 810 q 375 783 386 794 q 347 772 364 772 l 269 772 q 243 783 254 772 q 232 810 232 794 l 232 888 q 243 915 232 903 q 269 926 254 926 l 347 926 q 375 915 364 926 q 386 888 386 903 l 386 810 m 694 501 q 683 474 694 486 q 656 463 672 463 l 269 463 q 243 474 254 463 q 232 501 232 486 l 232 579 q 243 606 232 594 q 269 617 254 617 l 386 617 l 386 733 q 397 760 386 749 q 425 772 408 772 l 501 772 q 529 760 518 772 q 540 733 540 749 l 540 617 l 656 617 q 683 606 672 617 q 694 579 694 594 l 694 501 m 849 193 q 838 165 849 176 q 810 154 826 154 l 733 154 q 706 165 717 154 q 694 193 694 176 l 694 425 q 706 451 694 440 q 733 463 717 463 l 810 463 q 838 451 826 463 q 849 425 849 440 l 849 193 m 232 656 q 220 628 232 640 q 193 617 208 617 l 115 617 q 89 628 100 617 q 78 656 78 640 l 78 733 q 89 760 78 749 q 115 772 100 772 l 193 772 q 220 760 208 772 q 232 733 232 749 l 232 656 m 694 39 q 683 11 694 22 q 656 0 672 0 l 269 0 q 243 11 254 0 q 232 39 232 22 l 232 115 q 243 143 232 132 q 269 154 254 154 l 656 154 q 683 143 672 154 q 694 115 694 132 l 694 39 m 232 193 q 220 165 232 176 q 193 154 208 154 l 115 154 q 89 165 100 154 q 78 193 78 176 l 78 425 q 89 451 78 440 q 115 463 100 463 l 193 463 q 220 451 208 463 q 232 425 232 440 l 232 193 z "},"Ł":{"ha":926,"x_min":78,"x_max":849,"o":"m 849 39 q 838 11 849 22 q 810 0 826 0 l 115 0 q 89 11 100 0 q 78 39 78 22 l 78 1042 q 89 1069 78 1058 q 115 1081 100 1081 l 193 1081 q 220 1069 208 1081 q 232 1042 232 1058 l 232 617 l 347 617 q 375 606 364 617 q 386 579 386 594 l 386 501 q 375 474 386 486 q 347 463 364 463 l 232 463 l 232 154 l 810 154 q 838 143 826 154 q 849 115 849 132 l 849 39 m 540 656 q 529 628 540 640 q 501 617 518 617 l 425 617 q 397 628 408 617 q 386 656 386 640 l 386 733 q 397 760 386 749 q 425 772 408 772 l 501 772 q 529 760 518 772 q 540 733 540 749 l 540 656 z "},"ł":{"ha":926,"x_min":78,"x_max":849,"o":"m 849 39 q 838 11 849 22 q 810 0 826 0 l 115 0 q 89 11 100 0 q 78 39 78 22 l 78 115 q 89 143 78 132 q 115 154 100 154 l 386 154 l 386 308 l 269 308 q 243 319 254 308 q 232 347 232 331 l 232 425 q 243 451 232 440 q 269 463 254 463 l 386 463 l 386 926 l 269 926 q 243 938 254 926 q 232 964 232 949 l 232 1042 q 243 1069 232 1058 q 269 1081 254 1081 l 501 1081 q 529 1069 518 1081 q 540 1042 540 1058 l 540 772 l 656 772 q 683 760 672 772 q 694 733 694 749 l 694 656 q 683 628 694 640 q 656 617 672 617 l 540 617 l 540 154 l 810 154 q 838 143 826 154 q 849 115 849 132 l 849 39 l 849 39 z "},"Š":{"ha":926,"x_min":78,"x_max":849,"o":"m 694 1274 q 683 1246 694 1257 q 656 1235 672 1235 l 579 1235 q 551 1246 563 1235 q 540 1274 540 1257 l 540 1350 q 551 1378 540 1367 q 579 1389 563 1389 l 656 1389 q 683 1378 672 1389 q 694 1350 694 1367 l 694 1274 m 386 1274 q 375 1246 386 1257 q 347 1235 364 1235 l 269 1235 q 243 1246 254 1235 q 232 1274 232 1257 l 232 1350 q 243 1378 232 1367 q 269 1389 254 1389 l 347 1389 q 375 1378 364 1389 q 386 1350 386 1367 l 386 1274 m 849 810 q 838 783 849 794 q 810 772 826 772 l 733 772 q 706 783 717 772 q 694 810 694 794 l 694 888 q 706 915 694 903 q 733 926 717 926 l 810 926 q 838 915 826 926 q 849 888 849 903 l 849 810 m 694 964 q 683 938 694 949 q 656 926 672 926 l 269 926 q 243 938 254 926 q 232 964 232 949 l 232 1042 q 243 1069 232 1058 q 269 1081 254 1081 l 386 1081 l 386 1196 q 397 1224 386 1213 q 425 1235 408 1235 l 501 1235 q 529 1224 518 1235 q 540 1196 540 1213 l 540 1081 l 656 1081 q 683 1069 672 1081 q 694 1042 694 1058 l 694 964 m 849 193 q 838 165 849 176 q 810 154 826 154 l 733 154 q 706 165 717 154 q 694 193 694 176 l 694 425 q 706 451 694 440 q 733 463 717 463 l 810 463 q 838 451 826 463 q 849 425 849 440 l 849 193 m 694 501 q 683 474 694 486 q 656 463 672 463 l 269 463 q 243 474 254 463 q 232 501 232 486 l 232 579 q 243 606 232 594 q 269 617 254 617 l 656 617 q 683 606 672 617 q 694 579 694 594 l 694 501 m 232 656 q 220 628 232 640 q 193 617 208 617 l 115 617 q 89 628 100 617 q 78 656 78 640 l 78 888 q 89 915 78 903 q 115 926 100 926 l 193 926 q 220 915 208 926 q 232 888 232 903 l 232 656 m 694 39 q 683 11 694 22 q 656 0 672 0 l 269 0 q 243 11 254 0 q 232 39 232 22 l 232 115 q 243 143 232 132 q 269 154 254 154 l 656 154 q 683 143 672 154 q 694 115 694 132 l 694 39 m 232 193 q 220 165 232 176 q 193 154 208 154 l 115 154 q 89 165 100 154 q 78 193 78 176 l 78 269 q 89 297 78 286 q 115 308 100 308 l 193 308 q 220 297 208 308 q 232 269 232 286 l 232 193 z "},"š":{"ha":926,"x_min":78,"x_max":849,"o":"m 694 964 q 683 938 694 949 q 656 926 672 926 l 579 926 q 551 938 563 926 q 540 964 540 949 l 540 1042 q 551 1069 540 1058 q 579 1081 563 1081 l 656 1081 q 683 1069 672 1081 q 694 1042 694 1058 l 694 964 m 386 964 q 375 938 386 949 q 347 926 364 926 l 269 926 q 243 938 254 926 q 232 964 232 949 l 232 1042 q 243 1069 232 1058 q 269 1081 254 1081 l 347 1081 q 375 1069 364 1081 q 386 1042 386 1058 l 386 964 m 849 656 q 838 628 849 640 q 810 617 826 617 l 269 617 q 243 628 254 617 q 232 656 232 640 l 232 733 q 243 760 232 749 q 269 772 254 772 l 386 772 l 386 888 q 397 915 386 903 q 425 926 408 926 l 501 926 q 529 915 518 926 q 540 888 540 903 l 540 772 l 810 772 q 838 760 826 772 q 849 733 849 749 l 849 656 m 849 193 q 838 165 849 176 q 810 154 826 154 l 733 154 q 706 165 717 154 q 694 193 694 176 l 694 269 q 706 297 694 286 q 733 308 717 308 l 810 308 q 838 297 826 308 q 849 269 849 286 l 849 193 m 694 347 q 683 319 694 331 q 656 308 672 308 l 269 308 q 243 319 254 308 q 232 347 232 331 l 232 425 q 243 451 232 440 q 269 463 254 463 l 656 463 q 683 451 672 463 q 694 425 694 440 l 694 347 m 232 501 q 220 474 232 486 q 193 463 208 463 l 115 463 q 89 474 100 463 q 78 501 78 486 l 78 579 q 89 606 78 594 q 115 617 100 617 l 193 617 q 220 606 208 617 q 232 579 232 594 l 232 501 m 694 39 q 683 11 694 22 q 656 0 672 0 l 115 0 q 89 11 100 0 q 78 39 78 22 l 78 115 q 89 143 78 132 q 115 154 100 154 l 656 154 q 683 143 672 154 q 694 115 694 132 l 694 39 z "},"Ý":{"ha":926,"x_min":78,"x_max":849,"o":"m 849 810 q 838 783 849 794 q 810 772 826 772 l 733 772 q 706 783 717 772 q 694 810 694 794 l 694 1042 q 706 1069 694 1058 q 733 1081 717 1081 l 810 1081 q 838 1069 826 1081 q 849 1042 849 1058 l 849 810 m 694 656 q 683 628 694 640 q 656 617 672 617 l 579 617 q 551 628 563 617 q 540 656 540 640 l 540 733 q 551 760 540 749 q 579 772 563 772 l 656 772 q 683 760 672 772 q 694 733 694 749 l 694 656 m 232 810 q 220 783 232 794 q 193 772 208 772 l 115 772 q 89 783 100 772 q 78 810 78 794 l 78 1042 q 89 1069 78 1058 q 115 1081 100 1081 l 193 1081 q 220 1069 208 1081 q 232 1042 232 1058 l 232 810 m 386 656 q 375 628 386 640 q 347 617 364 617 l 269 617 q 243 628 254 617 q 232 656 232 640 l 232 733 q 243 760 232 749 q 269 772 254 772 l 347 772 q 375 760 364 772 q 386 733 386 749 l 386 656 m 540 39 q 529 11 540 22 q 501 0 518 0 l 425 0 q 397 11 408 0 q 386 39 386 22 l 386 579 q 397 606 386 594 q 425 617 408 617 l 501 617 q 529 606 518 617 q 540 579 540 594 l 540 39 m 694 1274 q 683 1246 694 1257 q 656 1235 672 1235 l 579 1235 q 551 1246 563 1235 q 540 1274 540 1257 l 540 1350 q 551 1378 540 1367 q 579 1389 563 1389 l 656 1389 q 683 1378 672 1389 q 694 1350 694 1367 l 694 1274 m 540 1119 q 529 1092 540 1103 q 501 1081 518 1081 l 425 1081 q 397 1092 408 1081 q 386 1119 386 1103 l 386 1196 q 397 1224 386 1213 q 425 1235 408 1235 l 501 1235 q 529 1224 518 1235 q 540 1196 540 1213 l 540 1119 z "},"ý":{"ha":926,"x_min":78,"x_max":849,"o":"m 849 -115 q 838 -143 849 -132 q 810 -154 826 -154 l 733 -154 q 706 -143 717 -154 q 694 -115 694 -132 l 694 0 l 269 0 q 243 11 254 0 q 232 39 232 22 l 232 115 q 243 143 232 132 q 269 154 254 154 l 694 154 l 694 733 q 706 760 694 749 q 733 772 717 772 l 810 772 q 838 760 826 772 q 849 733 849 749 l 849 -115 m 232 193 q 220 165 232 176 q 193 154 208 154 l 115 154 q 89 165 100 154 q 78 193 78 176 l 78 733 q 89 760 78 749 q 115 772 100 772 l 193 772 q 220 760 208 772 q 232 733 232 749 l 232 193 m 694 -269 q 683 -297 694 -286 q 656 -308 672 -308 l 115 -308 q 89 -297 100 -308 q 78 -269 78 -286 l 78 -193 q 89 -165 78 -176 q 115 -154 100 -154 l 656 -154 q 683 -165 672 -154 q 694 -193 694 -176 l 694 -269 m 694 964 q 683 938 694 949 q 656 926 672 926 l 579 926 q 551 938 563 926 q 540 964 540 949 l 540 1042 q 551 1069 540 1058 q 579 1081 563 1081 l 656 1081 q 683 1069 672 1081 q 694 1042 694 1058 l 694 964 m 540 810 q 529 783 540 794 q 501 772 518 772 l 425 772 q 397 783 408 772 q 386 810 386 794 l 386 888 q 397 915 386 903 q 425 926 408 926 l 501 926 q 529 915 518 926 q 540 888 540 903 l 540 810 z "},"Þ":{"ha":926,"x_min":78,"x_max":849,"o":"m 849 501 q 838 474 849 486 q 810 463 826 463 l 733 463 q 706 474 717 463 q 694 501 694 486 l 694 733 q 706 760 694 749 q 733 772 717 772 l 810 772 q 838 760 826 772 q 849 733 849 749 l 849 501 m 694 347 q 683 320 694 332 q 656 308 672 308 l 232 308 l 232 39 q 220 11 232 22 q 193 0 208 0 l 115 0 q 89 11 100 0 q 78 39 78 22 l 78 1042 q 89 1069 78 1057 q 115 1081 100 1081 l 193 1081 q 220 1069 208 1081 q 232 1042 232 1057 l 232 926 l 656 926 q 683 915 672 926 q 694 888 694 903 l 694 810 q 683 783 694 794 q 656 772 672 772 l 232 772 l 232 463 l 656 463 q 683 451 672 463 q 694 425 694 440 l 694 347 z "},"þ":{"ha":926,"x_min":78,"x_max":849,"o":"m 849 193 q 838 165 849 176 q 810 154 826 154 l 733 154 q 706 165 717 154 q 694 193 694 176 l 694 579 q 706 606 694 594 q 733 617 717 617 l 810 617 q 838 606 826 617 q 849 579 849 594 l 849 193 m 694 39 q 683 11 694 22 q 656 0 672 0 l 232 0 l 232 -269 q 220 -297 232 -286 q 193 -308 208 -308 l 115 -308 q 89 -297 100 -308 q 78 -269 78 -286 l 78 1042 q 89 1069 78 1057 q 115 1081 100 1081 l 193 1081 q 220 1069 208 1081 q 232 1042 232 1057 l 232 772 l 656 772 q 683 760 672 772 q 694 733 694 749 l 694 656 q 683 628 694 640 q 656 617 672 617 l 232 617 l 232 154 l 656 154 q 683 143 672 154 q 694 115 694 132 l 694 39 z "},"Ž":{"ha":926,"x_min":78,"x_max":849,"o":"m 694 1274 q 683 1246 694 1257 q 656 1235 672 1235 l 579 1235 q 551 1246 563 1235 q 540 1274 540 1257 l 540 1350 q 551 1378 540 1367 q 579 1389 563 1389 l 656 1389 q 683 1378 672 1389 q 694 1350 694 1367 l 694 1274 m 386 1274 q 375 1246 386 1257 q 347 1235 364 1235 l 269 1235 q 243 1246 254 1235 q 232 1274 232 1257 l 232 1350 q 243 1378 232 1367 q 269 1389 254 1389 l 347 1389 q 375 1378 364 1389 q 386 1350 386 1367 l 386 1274 m 849 810 q 838 783 849 794 q 810 772 826 772 l 733 772 q 706 783 717 772 q 694 810 694 794 l 694 926 l 115 926 q 89 938 100 926 q 78 964 78 949 l 78 1042 q 89 1069 78 1058 q 115 1081 100 1081 l 386 1081 l 386 1196 q 397 1224 386 1213 q 425 1235 408 1235 l 501 1235 q 529 1224 518 1235 q 540 1196 540 1213 l 540 1081 l 810 1081 q 838 1069 826 1081 q 849 1042 849 1058 l 849 810 m 694 656 q 683 628 694 640 q 656 617 672 617 l 579 617 q 551 628 563 617 q 540 656 540 640 l 540 733 q 551 760 540 749 q 579 772 563 772 l 656 772 q 683 760 672 772 q 694 733 694 749 l 694 656 m 540 501 q 529 474 540 486 q 501 463 518 463 l 425 463 q 397 474 408 463 q 386 501 386 486 l 386 579 q 397 606 386 594 q 425 617 408 617 l 501 617 q 529 606 518 617 q 540 579 540 594 l 540 501 m 386 347 q 375 319 386 331 q 347 308 364 308 l 269 308 q 243 319 254 308 q 232 347 232 331 l 232 425 q 243 451 232 440 q 269 463 254 463 l 347 463 q 375 451 364 463 q 386 425 386 440 l 386 347 m 849 39 q 838 11 849 22 q 810 0 826 0 l 115 0 q 89 11 100 0 q 78 39 78 22 l 78 269 q 89 297 78 286 q 115 308 100 308 l 193 308 q 220 297 208 308 q 232 269 232 286 l 232 154 l 810 154 q 838 143 826 154 q 849 115 849 132 l 849 39 z "},"ž":{"ha":926,"x_min":78,"x_max":849,"o":"m 694 964 q 683 938 694 949 q 656 926 672 926 l 579 926 q 551 938 563 926 q 540 964 540 949 l 540 1042 q 551 1069 540 1058 q 579 1081 563 1081 l 656 1081 q 683 1069 672 1081 q 694 1042 694 1058 l 694 964 m 386 964 q 375 938 386 949 q 347 926 364 926 l 269 926 q 243 938 254 926 q 232 964 232 949 l 232 1042 q 243 1069 232 1058 q 269 1081 254 1081 l 347 1081 q 375 1069 364 1081 q 386 1042 386 1058 l 386 964 m 849 656 q 838 628 849 640 q 810 617 826 617 l 694 617 l 694 501 q 683 474 694 486 q 656 463 672 463 l 579 463 q 551 474 563 463 q 540 501 540 486 l 540 617 l 115 617 q 89 628 100 617 q 78 656 78 640 l 78 733 q 89 760 78 749 q 115 772 100 772 l 386 772 l 386 888 q 397 915 386 903 q 425 926 408 926 l 501 926 q 529 915 518 926 q 540 888 540 903 l 540 772 l 810 772 q 838 760 826 772 q 849 733 849 749 l 849 656 m 540 347 q 529 319 540 331 q 501 308 518 308 l 425 308 q 397 319 408 308 q 386 347 386 331 l 386 425 q 397 451 386 440 q 425 463 408 463 l 501 463 q 529 451 518 463 q 540 425 540 440 l 540 347 m 849 39 q 838 11 849 22 q 810 0 826 0 l 115 0 q 89 11 100 0 q 78 39 78 22 l 78 115 q 89 143 78 132 q 115 154 100 154 l 232 154 l 232 269 q 243 297 232 286 q 269 308 254 308 l 347 308 q 375 297 364 308 q 386 269 386 286 l 386 154 l 810 154 q 838 143 826 154 q 849 115 849 132 l 849 39 z "},"¦":{"ha":926,"x_min":386,"x_max":540,"o":"m 540 501 q 529 474 540 486 q 501 463 518 463 l 425 463 q 397 474 408 463 q 386 501 386 486 l 386 1042 q 397 1069 386 1058 q 425 1081 408 1081 l 501 1081 q 529 1069 518 1081 q 540 1042 540 1058 l 540 501 m 540 -269 q 529 -297 540 -286 q 501 -308 518 -308 l 425 -308 q 397 -297 408 -308 q 386 -269 386 -286 l 386 269 q 397 297 386 286 q 425 308 408 308 l 501 308 q 529 297 518 308 q 540 269 540 286 l 540 -269 z "},"−":{"ha":926,"x_min":78,"x_max":849,"o":"m 849 501 q 838 474 849 486 q 810 463 826 463 l 115 463 q 89 474 100 463 q 78 501 78 486 l 78 579 q 89 606 78 594 q 115 617 100 617 l 810 617 q 838 606 826 617 q 849 579 849 594 l 849 501 l 849 501 z "},"!":{"ha":926,"x_min":386,"x_max":540,"o":"m 540 347 q 529 319 540 331 q 501 308 518 308 l 425 308 q 397 319 408 308 q 386 347 386 331 l 386 1042 q 397 1069 386 1058 q 425 1081 408 1081 l 501 1081 q 529 1069 518 1081 q 540 1042 540 1058 l 540 347 m 540 39 q 529 11 540 22 q 501 0 518 0 l 425 0 q 397 11 408 0 q 386 39 386 22 l 386 115 q 397 143 386 132 q 425 154 408 154 l 501 154 q 529 143 518 154 q 540 115 540 132 l 540 39 z "},"\"":{"ha":926,"x_min":232,"x_max":694,"o":"m 694 656 q 683 628 694 640 q 656 617 672 617 l 579 617 q 551 628 563 617 q 540 656 540 640 l 540 1042 q 551 1069 540 1058 q 579 1081 563 1081 l 656 1081 q 683 1069 672 1081 q 694 1042 694 1058 l 694 656 m 386 656 q 375 628 386 640 q 347 617 364 617 l 269 617 q 243 628 254 617 q 232 656 232 640 l 232 1042 q 243 1069 232 1058 q 269 1081 254 1081 l 347 1081 q 375 1069 364 1081 q 386 1042 386 1058 l 386 656 z "},"#":{"ha":926,"x_min":78,"x_max":849,"o":"m 849 347 q 838 319 849 331 q 810 308 826 308 l 694 308 l 694 193 q 683 165 694 176 q 656 154 672 154 l 579 154 q 551 165 563 154 q 540 193 540 176 l 540 308 l 386 308 l 386 193 q 375 165 386 176 q 347 154 364 154 l 269 154 q 243 165 254 154 q 232 193 232 176 l 232 308 l 115 308 q 89 319 100 308 q 78 347 78 331 l 78 425 q 89 451 78 440 q 115 463 100 463 l 232 463 l 232 772 l 115 772 q 89 783 100 772 q 78 810 78 794 l 78 888 q 89 915 78 903 q 115 926 100 926 l 232 926 l 232 1042 q 243 1069 232 1058 q 269 1081 254 1081 l 347 1081 q 375 1069 364 1081 q 386 1042 386 1058 l 386 926 l 540 926 l 540 1042 q 551 1069 540 1058 q 579 1081 563 1081 l 656 1081 q 683 1069 672 1081 q 694 1042 694 1058 l 694 926 l 810 926 q 838 915 826 926 q 849 888 849 903 l 849 810 q 838 783 849 794 q 810 772 826 772 l 694 772 l 694 463 l 810 463 q 838 451 826 463 q 849 425 849 440 l 849 347 m 540 772 l 386 772 l 386 463 l 540 463 l 540 772 z "},"$":{"ha":926,"x_min":78,"x_max":849,"o":"m 849 347 q 838 319 849 331 q 810 308 826 308 l 733 308 q 706 319 717 308 q 694 347 694 331 l 694 425 q 706 451 694 440 q 733 463 717 463 l 810 463 q 838 451 826 463 q 849 425 849 440 l 849 347 m 849 810 q 838 783 849 794 q 810 772 826 772 l 540 772 l 540 617 l 656 617 q 683 606 672 617 q 694 579 694 594 l 694 501 q 683 474 694 486 q 656 463 672 463 l 540 463 l 540 308 l 656 308 q 683 297 672 308 q 694 269 694 286 l 694 193 q 683 165 694 176 q 656 154 672 154 l 540 154 l 540 39 q 529 11 540 22 q 501 0 518 0 l 425 0 q 397 11 408 0 q 386 39 386 22 l 386 154 l 115 154 q 89 165 100 154 q 78 193 78 176 l 78 269 q 89 297 78 286 q 115 308 100 308 l 386 308 l 386 463 l 269 463 q 243 474 254 463 q 232 501 232 486 l 232 579 q 243 606 232 594 q 269 617 254 617 l 386 617 l 386 772 l 269 772 q 243 783 254 772 q 232 810 232 794 l 232 888 q 243 915 232 903 q 269 926 254 926 l 386 926 l 386 1042 q 397 1069 386 1058 q 425 1081 408 1081 l 501 1081 q 529 1069 518 1081 q 540 1042 540 1058 l 540 926 l 810 926 q 838 915 826 926 q 849 888 849 903 l 849 810 m 232 656 q 220 628 232 640 q 193 617 208 617 l 115 617 q 89 628 100 617 q 78 656 78 640 l 78 733 q 89 760 78 749 q 115 772 100 772 l 193 772 q 220 760 208 772 q 232 733 232 749 l 232 656 z "},"%":{"ha":926,"x_min":78,"x_max":849,"o":"m 849 810 q 838 783 849 794 q 810 772 826 772 l 733 772 q 706 783 717 772 q 694 810 694 794 l 694 888 q 706 915 694 903 q 733 926 717 926 l 810 926 q 838 915 826 926 q 849 888 849 903 l 849 810 m 694 656 q 683 628 694 640 q 656 617 672 617 l 579 617 q 551 628 563 617 q 540 656 540 640 l 540 733 q 551 760 540 749 q 579 772 563 772 l 656 772 q 683 760 672 772 q 694 733 694 749 l 694 656 m 386 810 q 375 783 386 794 q 347 772 364 772 l 115 772 q 89 783 100 772 q 78 810 78 794 l 78 1042 q 89 1069 78 1058 q 115 1081 100 1081 l 347 1081 q 375 1069 364 1081 q 386 1042 386 1058 l 386 810 m 540 501 q 529 474 540 486 q 501 463 518 463 l 425 463 q 397 474 408 463 q 386 501 386 486 l 386 579 q 397 606 386 594 q 425 617 408 617 l 501 617 q 529 606 518 617 q 540 579 540 594 l 540 501 m 849 39 q 838 11 849 22 q 810 0 826 0 l 579 0 q 551 11 563 0 q 540 39 540 22 l 540 269 q 551 297 540 286 q 579 308 563 308 l 810 308 q 838 297 826 308 q 849 269 849 286 l 849 39 m 386 347 q 375 319 386 331 q 347 308 364 308 l 269 308 q 243 319 254 308 q 232 347 232 331 l 232 425 q 243 451 232 440 q 269 463 254 463 l 347 463 q 375 451 364 463 q 386 425 386 440 l 386 347 m 232 193 q 220 165 232 176 q 193 154 208 154 l 115 154 q 89 165 100 154 q 78 193 78 176 l 78 269 q 89 297 78 286 q 115 308 100 308 l 193 308 q 220 297 208 308 q 232 269 232 286 l 232 193 z "},"&":{"ha":926,"x_min":78,"x_max":849,"o":"m 694 810 q 683 783 694 794 q 656 772 672 772 l 579 772 q 551 783 563 772 q 540 810 540 794 l 540 888 q 551 915 540 903 q 579 926 563 926 l 656 926 q 683 915 672 926 q 694 888 694 903 l 694 810 m 540 964 q 529 938 540 949 q 501 926 518 926 l 269 926 q 243 938 254 926 q 232 964 232 949 l 232 1042 q 243 1069 232 1058 q 269 1081 254 1081 l 501 1081 q 529 1069 518 1081 q 540 1042 540 1058 l 540 964 m 849 347 q 838 319 849 331 q 810 308 826 308 l 733 308 q 706 319 717 308 q 694 347 694 331 l 694 579 q 706 606 694 594 q 733 617 717 617 l 810 617 q 838 606 826 617 q 849 579 849 594 l 849 347 m 540 656 q 529 628 540 640 q 501 617 518 617 l 425 617 q 397 628 408 617 q 386 656 386 640 l 386 733 q 397 760 386 749 q 425 772 408 772 l 501 772 q 529 760 518 772 q 540 733 540 749 l 540 656 m 232 656 q 220 628 232 640 q 193 617 208 617 l 115 617 q 89 628 100 617 q 78 656 78 640 l 78 888 q 89 915 78 903 q 115 926 100 926 l 193 926 q 220 915 208 926 q 232 888 232 903 l 232 656 m 386 501 q 375 474 386 486 q 347 463 364 463 l 269 463 q 243 474 254 463 q 232 501 232 486 l 232 579 q 243 606 232 594 q 269 617 254 617 l 347 617 q 375 606 364 617 q 386 579 386 594 l 386 501 m 540 347 q 529 319 540 331 q 501 308 518 308 l 425 308 q 397 319 408 308 q 386 347 386 331 l 386 425 q 397 451 386 440 q 425 463 408 463 l 501 463 q 529 451 518 463 q 540 425 540 440 l 540 347 m 694 193 q 683 165 694 176 q 656 154 672 154 l 579 154 q 551 165 563 154 q 540 193 540 176 l 540 269 q 551 297 540 286 q 579 308 563 308 l 656 308 q 683 297 672 308 q 694 269 694 286 l 694 193 m 849 39 q 838 11 849 22 q 810 0 826 0 l 733 0 q 706 11 717 0 q 694 39 694 22 l 694 115 q 706 143 694 132 q 733 154 717 154 l 810 154 q 838 143 826 154 q 849 115 849 132 l 849 39 m 232 193 q 220 165 232 176 q 193 154 208 154 l 115 154 q 89 165 100 154 q 78 193 78 176 l 78 425 q 89 451 78 440 q 115 463 100 463 l 193 463 q 220 451 208 463 q 232 425 232 440 l 232 193 m 540 39 q 529 11 540 22 q 501 0 518 0 l 269 0 q 243 11 254 0 q 232 39 232 22 l 232 115 q 243 143 232 132 q 269 154 254 154 l 501 154 q 529 143 518 154 q 540 115 540 132 l 540 39 z "},"'":{"ha":926,"x_min":386,"x_max":540,"o":"m 540 656 q 529 628 540 640 q 501 617 518 617 l 425 617 q 397 628 408 617 q 386 656 386 640 l 386 1042 q 397 1069 386 1058 q 425 1081 408 1081 l 501 1081 q 529 1069 518 1081 q 540 1042 540 1058 l 540 656 l 540 656 z "},"(":{"ha":926,"x_min":232,"x_max":849,"o":"m 849 964 q 838 938 849 949 q 810 926 826 926 l 579 926 q 551 938 563 926 q 540 964 540 949 l 540 1042 q 551 1069 540 1058 q 579 1081 563 1081 l 810 1081 q 838 1069 826 1081 q 849 1042 849 1058 l 849 964 m 540 810 q 529 783 540 794 q 501 772 518 772 l 425 772 q 397 783 408 772 q 386 810 386 794 l 386 888 q 397 915 386 903 q 425 926 408 926 l 501 926 q 529 915 518 926 q 540 888 540 903 l 540 810 m 386 347 q 375 319 386 331 q 347 308 364 308 l 269 308 q 243 319 254 308 q 232 347 232 331 l 232 733 q 243 760 232 749 q 269 772 254 772 l 347 772 q 375 760 364 772 q 386 733 386 749 l 386 347 m 849 39 q 838 11 849 22 q 810 0 826 0 l 585 0 q 558 11 569 0 q 546 39 546 22 l 546 115 q 558 143 546 132 q 585 154 569 154 l 810 154 q 838 143 826 154 q 849 115 849 132 l 849 39 m 540 193 q 529 165 540 176 q 501 154 518 154 l 425 154 q 397 165 408 154 q 386 193 386 176 l 386 269 q 397 297 386 286 q 425 308 408 308 l 501 308 q 529 297 518 308 q 540 269 540 286 l 540 193 z "},")":{"ha":926,"x_min":232,"x_max":849,"o":"m 694 810 q 683 783 694 794 q 656 772 672 772 l 579 772 q 551 783 563 772 q 540 810 540 794 l 540 888 q 551 915 540 903 q 579 926 563 926 l 656 926 q 683 915 672 926 q 694 888 694 903 l 694 810 m 540 964 q 529 938 540 949 q 501 926 518 926 l 269 926 q 243 938 254 926 q 232 964 232 949 l 232 1042 q 243 1069 232 1058 q 269 1081 254 1081 l 501 1081 q 529 1069 518 1081 q 540 1042 540 1058 l 540 964 m 849 347 q 838 319 849 331 q 810 308 826 308 l 733 308 q 706 319 717 308 q 694 347 694 331 l 694 733 q 706 760 694 749 q 733 772 717 772 l 810 772 q 838 760 826 772 q 849 733 849 749 l 849 347 m 694 193 q 683 165 694 176 q 656 154 672 154 l 579 154 q 551 165 563 154 q 540 193 540 176 l 540 269 q 551 297 540 286 q 579 308 563 308 l 656 308 q 683 297 672 308 q 694 269 694 286 l 694 193 m 533 39 q 522 11 533 22 q 496 0 511 0 l 269 0 q 243 11 254 0 q 232 39 232 22 l 232 115 q 243 143 232 132 q 269 154 254 154 l 496 154 q 522 143 511 154 q 533 115 533 132 l 533 39 z "},"*":{"ha":926,"x_min":78,"x_max":849,"o":"m 849 810 q 838 783 849 794 q 810 772 826 772 l 733 772 q 706 783 717 772 q 694 810 694 794 l 694 888 q 706 915 694 903 q 733 926 717 926 l 810 926 q 838 915 826 926 q 849 888 849 903 l 849 810 m 849 501 q 838 474 849 486 q 810 463 826 463 l 694 463 l 694 347 q 683 319 694 331 q 656 308 672 308 l 579 308 q 551 319 563 308 q 540 347 540 331 l 540 463 l 386 463 l 386 347 q 375 319 386 331 q 347 308 364 308 l 269 308 q 243 319 254 308 q 232 347 232 331 l 232 463 l 115 463 q 89 474 100 463 q 78 501 78 486 l 78 579 q 89 606 78 594 q 115 617 100 617 l 232 617 l 232 733 q 243 760 232 749 q 269 772 254 772 l 347 772 q 375 760 364 772 q 386 733 386 749 l 386 617 l 540 617 l 540 733 q 551 760 540 749 q 579 772 563 772 l 656 772 q 683 760 672 772 q 694 733 694 749 l 694 617 l 810 617 q 838 606 826 617 q 849 579 849 594 l 849 501 m 849 193 q 838 165 849 176 q 810 154 826 154 l 733 154 q 706 165 717 154 q 694 193 694 176 l 694 269 q 706 297 694 286 q 733 308 717 308 l 810 308 q 838 297 826 308 q 849 269 849 286 l 849 193 m 232 810 q 220 783 232 794 q 193 772 208 772 l 115 772 q 89 783 100 772 q 78 810 78 794 l 78 888 q 89 915 78 903 q 115 926 100 926 l 193 926 q 220 915 208 926 q 232 888 232 903 l 232 810 m 232 193 q 220 165 232 176 q 193 154 208 154 l 115 154 q 89 165 100 154 q 78 193 78 176 l 78 269 q 89 297 78 286 q 115 308 100 308 l 193 308 q 220 297 208 308 q 232 269 232 286 l 232 193 z "},"+":{"ha":926,"x_min":78,"x_max":849,"o":"m 849 501 q 838 474 849 486 q 810 463 826 463 l 540 463 l 540 193 q 529 165 540 176 q 501 154 518 154 l 425 154 q 397 165 408 154 q 386 193 386 176 l 386 463 l 115 463 q 89 474 100 463 q 78 501 78 486 l 78 579 q 89 606 78 594 q 115 617 100 617 l 386 617 l 386 888 q 397 915 386 903 q 425 926 408 926 l 501 926 q 529 915 518 926 q 540 888 540 903 l 540 617 l 810 617 q 838 606 826 617 q 849 579 849 594 l 849 501 l 849 501 z "},",":{"ha":926,"x_min":232,"x_max":540,"o":"m 540 -115 q 529 -143 540 -132 q 501 -154 518 -154 l 425 -154 q 397 -143 408 -154 q 386 -115 386 -132 l 386 0 l 269 0 q 243 11 254 0 q 232 39 232 22 l 232 269 q 243 297 232 286 q 269 308 254 308 l 501 308 q 529 297 518 308 q 540 269 540 286 l 540 -115 m 386 -269 q 375 -297 386 -286 q 347 -308 364 -308 l 269 -308 q 243 -297 254 -308 q 232 -269 232 -286 l 232 -193 q 243 -165 232 -176 q 269 -154 254 -154 l 347 -154 q 375 -165 364 -154 q 386 -193 386 -176 l 386 -269 z "},"-":{"ha":926,"x_min":78,"x_max":849,"o":"m 849 347 q 838 319 849 331 q 810 308 826 308 l 115 308 q 89 319 100 308 q 78 347 78 331 l 78 425 q 89 451 78 440 q 115 463 100 463 l 810 463 q 838 451 826 463 q 849 425 849 440 l 849 347 l 849 347 z "},".":{"ha":926,"x_min":232,"x_max":540,"o":"m 540 39 q 529 11 540 22 q 501 0 518 0 l 269 0 q 243 11 254 0 q 232 39 232 22 l 232 269 q 243 297 232 286 q 269 308 254 308 l 501 308 q 529 297 518 308 q 540 269 540 286 l 540 39 l 540 39 z "},"/":{"ha":926,"x_min":78,"x_max":849,"o":"m 849 810 q 838 783 849 794 q 810 772 826 772 l 733 772 q 706 783 717 772 q 694 810 694 794 l 694 1042 q 706 1069 694 1058 q 733 1081 717 1081 l 810 1081 q 838 1069 826 1081 q 849 1042 849 1058 l 849 810 m 694 656 q 683 628 694 640 q 656 617 672 617 l 579 617 q 551 628 563 617 q 540 656 540 640 l 540 733 q 551 760 540 749 q 579 772 563 772 l 656 772 q 683 760 672 772 q 694 733 694 749 l 694 656 m 540 501 q 529 474 540 486 q 501 463 518 463 l 425 463 q 397 474 408 463 q 386 501 386 486 l 386 579 q 397 606 386 594 q 425 617 408 617 l 501 617 q 529 606 518 617 q 540 579 540 594 l 540 501 m 386 347 q 375 319 386 331 q 347 308 364 308 l 269 308 q 243 319 254 308 q 232 347 232 331 l 232 425 q 243 451 232 440 q 269 463 254 463 l 347 463 q 375 451 364 463 q 386 425 386 440 l 386 347 m 232 39 q 220 11 232 22 q 193 0 208 0 l 115 0 q 89 11 100 0 q 78 39 78 22 l 78 269 q 89 297 78 286 q 115 308 100 308 l 193 308 q 220 297 208 308 q 232 269 232 286 l 232 39 z "},":":{"ha":926,"x_min":232,"x_max":540,"o":"m 540 501 q 529 474 540 486 q 501 463 518 463 l 269 463 q 243 474 254 463 q 232 501 232 486 l 232 733 q 243 760 232 749 q 269 772 254 772 l 501 772 q 529 760 518 772 q 540 733 540 749 l 540 501 m 540 39 q 529 11 540 22 q 501 0 518 0 l 269 0 q 243 11 254 0 q 232 39 232 22 l 232 269 q 243 297 232 286 q 269 308 254 308 l 501 308 q 529 297 518 308 q 540 269 540 286 l 540 39 z "},";":{"ha":926,"x_min":232,"x_max":540,"o":"m 540 501 q 529 474 540 486 q 501 463 518 463 l 269 463 q 243 474 254 463 q 232 501 232 486 l 232 733 q 243 760 232 749 q 269 772 254 772 l 501 772 q 529 760 518 772 q 540 733 540 749 l 540 501 m 540 -115 q 529 -143 540 -132 q 501 -154 518 -154 l 425 -154 q 397 -143 408 -154 q 386 -115 386 -132 l 386 0 l 269 0 q 243 11 254 0 q 232 39 232 22 l 232 269 q 243 297 232 286 q 269 308 254 308 l 501 308 q 529 297 518 308 q 540 269 540 286 l 540 -115 m 386 -269 q 375 -297 386 -286 q 347 -308 364 -308 l 269 -308 q 243 -297 254 -308 q 232 -269 232 -286 l 232 -193 q 243 -165 232 -176 q 269 -154 254 -154 l 347 -154 q 375 -165 364 -154 q 386 -193 386 -176 l 386 -269 z "},"<":{"ha":926,"x_min":232,"x_max":849,"o":"m 849 964 q 838 938 849 949 q 810 926 826 926 l 733 926 q 706 938 717 926 q 694 964 694 949 l 694 1042 q 706 1069 694 1058 q 733 1081 717 1081 l 810 1081 q 838 1069 826 1081 q 849 1042 849 1058 l 849 964 m 694 810 q 683 783 694 794 q 656 772 672 772 l 579 772 q 551 783 563 772 q 540 810 540 794 l 540 888 q 551 915 540 903 q 579 926 563 926 l 656 926 q 683 915 672 926 q 694 888 694 903 l 694 810 m 540 656 q 529 628 540 640 q 501 617 518 617 l 425 617 q 397 628 408 617 q 386 656 386 640 l 386 733 q 397 760 386 749 q 425 772 408 772 l 501 772 q 529 760 518 772 q 540 733 540 749 l 540 656 m 386 501 q 375 474 386 486 q 347 463 364 463 l 269 463 q 243 474 254 463 q 232 501 232 486 l 232 579 q 243 606 232 594 q 269 617 254 617 l 347 617 q 375 606 364 617 q 386 579 386 594 l 386 501 m 540 347 q 529 319 540 331 q 501 308 518 308 l 425 308 q 397 319 408 308 q 386 347 386 331 l 386 425 q 397 451 386 440 q 425 463 408 463 l 501 463 q 529 451 518 463 q 540 425 540 440 l 540 347 m 849 39 q 838 11 849 22 q 810 0 826 0 l 733 0 q 706 11 717 0 q 694 39 694 22 l 694 115 q 706 143 694 132 q 733 154 717 154 l 810 154 q 838 143 826 154 q 849 115 849 132 l 849 39 m 694 193 q 683 165 694 176 q 656 154 672 154 l 579 154 q 551 165 563 154 q 540 193 540 176 l 540 269 q 551 297 540 286 q 579 308 563 308 l 656 308 q 683 297 672 308 q 694 269 694 286 l 694 193 z "},"=":{"ha":926,"x_min":78,"x_max":849,"o":"m 849 501 q 838 474 849 486 q 810 463 826 463 l 115 463 q 89 474 100 463 q 78 501 78 486 l 78 579 q 89 606 78 594 q 115 617 100 617 l 810 617 q 838 606 826 617 q 849 579 849 594 l 849 501 m 849 193 q 838 165 849 176 q 810 154 826 154 l 115 154 q 89 165 100 154 q 78 193 78 176 l 78 269 q 89 297 78 286 q 115 308 100 308 l 810 308 q 838 297 826 308 q 849 269 849 286 l 849 193 z "},">":{"ha":926,"x_min":78,"x_max":694,"o":"m 386 810 q 375 783 386 794 q 347 772 364 772 l 269 772 q 243 783 254 772 q 232 810 232 794 l 232 888 q 243 915 232 903 q 269 926 254 926 l 347 926 q 375 915 364 926 q 386 888 386 903 l 386 810 m 540 656 q 529 628 540 640 q 501 617 518 617 l 425 617 q 397 628 408 617 q 386 656 386 640 l 386 733 q 397 760 386 749 q 425 772 408 772 l 501 772 q 529 760 518 772 q 540 733 540 749 l 540 656 m 694 501 q 683 474 694 486 q 656 463 672 463 l 579 463 q 551 474 563 463 q 540 501 540 486 l 540 579 q 551 606 540 594 q 579 617 563 617 l 656 617 q 683 606 672 617 q 694 579 694 594 l 694 501 m 232 964 q 220 938 232 949 q 193 926 208 926 l 115 926 q 89 938 100 926 q 78 964 78 949 l 78 1042 q 89 1069 78 1058 q 115 1081 100 1081 l 193 1081 q 220 1069 208 1081 q 232 1042 232 1058 l 232 964 m 540 347 q 529 319 540 331 q 501 308 518 308 l 425 308 q 397 319 408 308 q 386 347 386 331 l 386 425 q 397 451 386 440 q 425 463 408 463 l 501 463 q 529 451 518 463 q 540 425 540 440 l 540 347 m 386 193 q 375 165 386 176 q 347 154 364 154 l 269 154 q 243 165 254 154 q 232 193 232 176 l 232 269 q 243 297 232 286 q 269 308 254 308 l 347 308 q 375 297 364 308 q 386 269 386 286 l 386 193 m 232 39 q 220 11 232 22 q 193 0 208 0 l 115 0 q 89 11 100 0 q 78 39 78 22 l 78 115 q 89 143 78 132 q 115 154 100 154 l 193 154 q 220 143 208 154 q 232 115 232 132 l 232 39 z "},"?":{"ha":926,"x_min":78,"x_max":849,"o":"m 849 656 q 838 628 849 640 q 810 617 826 617 l 733 617 q 706 628 717 617 q 694 656 694 640 l 694 888 q 706 915 694 903 q 733 926 717 926 l 810 926 q 838 915 826 926 q 849 888 849 903 l 849 656 m 694 964 q 683 938 694 949 q 656 926 672 926 l 269 926 q 243 938 254 926 q 232 964 232 949 l 232 1042 q 243 1069 232 1058 q 269 1081 254 1081 l 656 1081 q 683 1069 672 1081 q 694 1042 694 1058 l 694 964 m 694 501 q 683 474 694 486 q 656 463 672 463 l 579 463 q 551 474 563 463 q 540 501 540 486 l 540 579 q 551 606 540 594 q 579 617 563 617 l 656 617 q 683 606 672 617 q 694 579 694 594 l 694 501 m 232 810 q 220 783 232 794 q 193 772 208 772 l 115 772 q 89 783 100 772 q 78 810 78 794 l 78 888 q 89 915 78 903 q 115 926 100 926 l 193 926 q 220 915 208 926 q 232 888 232 903 l 232 810 m 540 347 q 529 319 540 331 q 501 308 518 308 l 425 308 q 397 319 408 308 q 386 347 386 331 l 386 425 q 397 451 386 440 q 425 463 408 463 l 501 463 q 529 451 518 463 q 540 425 540 440 l 540 347 m 540 39 q 529 11 540 22 q 501 0 518 0 l 425 0 q 397 11 408 0 q 386 39 386 22 l 386 115 q 397 143 386 132 q 425 154 408 154 l 501 154 q 529 143 518 154 q 540 115 540 132 l 540 39 z "},"@":{"ha":926,"x_min":78,"x_max":849,"o":"m 694 964 q 683 938 694 949 q 656 926 672 926 l 269 926 q 243 938 254 926 q 232 964 232 949 l 232 1042 q 243 1069 232 1058 q 269 1081 254 1081 l 656 1081 q 683 1069 672 1081 q 694 1042 694 1058 l 694 964 m 849 193 q 838 165 849 176 q 810 154 826 154 l 733 154 q 706 165 717 154 q 694 193 694 176 l 694 888 q 706 915 694 903 q 733 926 717 926 l 810 926 q 838 915 826 926 q 849 888 849 903 l 849 193 m 232 810 q 220 783 232 794 q 193 772 208 772 l 115 772 q 89 783 100 772 q 78 810 78 794 l 78 888 q 89 915 78 903 q 115 926 100 926 l 193 926 q 220 915 208 926 q 232 888 232 903 l 232 810 m 540 193 q 529 165 540 176 q 501 154 518 154 l 425 154 q 397 165 408 154 q 386 193 386 176 l 386 463 l 269 463 q 243 474 254 463 q 232 501 232 486 l 232 579 q 243 606 232 594 q 269 617 254 617 l 501 617 q 529 606 518 617 q 540 579 540 594 l 540 193 m 694 39 q 683 11 694 22 q 656 0 672 0 l 579 0 q 551 11 563 0 q 540 39 540 22 l 540 115 q 551 143 540 132 q 579 154 563 154 l 656 154 q 683 143 672 154 q 694 115 694 132 l 694 39 m 232 193 q 220 165 232 176 q 193 154 208 154 l 115 154 q 89 165 100 154 q 78 193 78 176 l 78 425 q 89 451 78 440 q 115 463 100 463 l 193 463 q 220 451 208 463 q 232 425 232 440 l 232 193 m 386 39 q 375 11 386 22 q 347 0 364 0 l 269 0 q 243 11 254 0 q 232 39 232 22 l 232 115 q 243 143 232 132 q 269 154 254 154 l 347 154 q 375 143 364 154 q 386 115 386 132 l 386 39 z "},"A":{"ha":926,"x_min":78,"x_max":849,"o":"m 694 964 q 683 938 694 949 q 656 926 672 926 l 269 926 q 243 938 254 926 q 232 964 232 949 l 232 1042 q 243 1069 232 1058 q 269 1081 254 1081 l 656 1081 q 683 1069 672 1081 q 694 1042 694 1058 l 694 964 m 849 39 q 838 11 849 22 q 810 0 826 0 l 733 0 q 706 11 717 0 q 694 39 694 22 l 694 463 l 232 463 l 232 39 q 220 11 232 22 q 193 0 208 0 l 115 0 q 89 11 100 0 q 78 39 78 22 l 78 888 q 89 915 78 903 q 115 926 100 926 l 193 926 q 220 915 208 926 q 232 888 232 903 l 232 617 l 694 617 l 694 888 q 706 915 694 903 q 733 926 717 926 l 810 926 q 838 915 826 926 q 849 888 849 903 l 849 39 z "},"B":{"ha":926,"x_min":78,"x_max":849,"o":"m 849 656 q 838 628 849 640 q 810 617 826 617 l 733 617 q 706 628 717 617 q 694 656 694 640 l 694 888 q 706 915 694 903 q 733 926 717 926 l 810 926 q 838 915 826 926 q 849 888 849 903 l 849 656 m 849 193 q 838 165 849 176 q 810 154 826 154 l 733 154 q 706 165 717 154 q 694 193 694 176 l 694 425 q 706 451 694 440 q 733 463 717 463 l 810 463 q 838 451 826 463 q 849 425 849 440 l 849 193 m 694 39 q 683 11 694 22 q 656 0 672 0 l 115 0 q 89 11 100 0 q 78 39 78 22 l 78 1042 q 89 1069 78 1058 q 115 1081 100 1081 l 656 1081 q 683 1069 672 1081 q 694 1042 694 1058 l 694 964 q 683 938 694 949 q 656 926 672 926 l 232 926 l 232 617 l 656 617 q 683 606 672 617 q 694 579 694 594 l 694 501 q 683 474 694 486 q 656 463 672 463 l 232 463 l 232 154 l 656 154 q 683 143 672 154 q 694 115 694 132 l 694 39 z "},"C":{"ha":926,"x_min":78,"x_max":849,"o":"m 849 810 q 838 783 849 794 q 810 772 826 772 l 733 772 q 706 783 717 772 q 694 810 694 794 l 694 888 q 706 915 694 903 q 733 926 717 926 l 810 926 q 838 915 826 926 q 849 888 849 903 l 849 810 m 694 964 q 683 938 694 949 q 656 926 672 926 l 269 926 q 243 938 254 926 q 232 964 232 949 l 232 1042 q 243 1069 232 1058 q 269 1081 254 1081 l 656 1081 q 683 1069 672 1081 q 694 1042 694 1058 l 694 964 m 849 193 q 838 165 849 176 q 810 154 826 154 l 733 154 q 706 165 717 154 q 694 193 694 176 l 694 269 q 706 297 694 286 q 733 308 717 308 l 810 308 q 838 297 826 308 q 849 269 849 286 l 849 193 m 232 193 q 220 165 232 176 q 193 154 208 154 l 115 154 q 89 165 100 154 q 78 193 78 176 l 78 888 q 89 915 78 903 q 115 926 100 926 l 193 926 q 220 915 208 926 q 232 888 232 903 l 232 193 m 694 39 q 683 11 694 22 q 656 0 672 0 l 269 0 q 243 11 254 0 q 232 39 232 22 l 232 115 q 243 143 232 132 q 269 154 254 154 l 656 154 q 683 143 672 154 q 694 115 694 132 l 694 39 z "},"D":{"ha":926,"x_min":78,"x_max":849,"o":"m 849 193 q 838 165 849 176 q 810 154 826 154 l 733 154 q 706 165 717 154 q 694 193 694 176 l 694 888 q 706 915 694 903 q 733 926 717 926 l 810 926 q 838 915 826 926 q 849 888 849 903 l 849 193 m 694 39 q 683 11 694 22 q 656 0 672 0 l 115 0 q 89 11 100 0 q 78 39 78 22 l 78 1042 q 89 1069 78 1058 q 115 1081 100 1081 l 656 1081 q 683 1069 672 1081 q 694 1042 694 1058 l 694 964 q 683 938 694 949 q 656 926 672 926 l 232 926 l 232 154 l 656 154 q 683 143 672 154 q 694 115 694 132 l 694 39 z "},"E":{"ha":926,"x_min":78,"x_max":849,"o":"m 849 39 q 838 11 849 22 q 810 0 826 0 l 115 0 q 89 11 100 0 q 78 39 78 22 l 78 1042 q 89 1069 78 1058 q 115 1081 100 1081 l 810 1081 q 838 1069 826 1081 q 849 1042 849 1058 l 849 964 q 838 938 849 949 q 810 926 826 926 l 232 926 l 232 617 l 656 617 q 683 606 672 617 q 694 579 694 594 l 694 501 q 683 474 694 486 q 656 463 672 463 l 232 463 l 232 154 l 810 154 q 838 143 826 154 q 849 115 849 132 l 849 39 l 849 39 z "},"F":{"ha":926,"x_min":78,"x_max":849,"o":"m 849 964 q 838 938 849 949 q 810 926 826 926 l 232 926 l 232 617 l 656 617 q 683 606 672 617 q 694 579 694 594 l 694 501 q 683 474 694 486 q 656 463 672 463 l 232 463 l 232 39 q 220 11 232 22 q 193 0 208 0 l 115 0 q 89 11 100 0 q 78 39 78 22 l 78 1042 q 89 1069 78 1058 q 115 1081 100 1081 l 810 1081 q 838 1069 826 1081 q 849 1042 849 1058 l 849 964 l 849 964 z "},"G":{"ha":926,"x_min":78,"x_max":849,"o":"m 849 810 q 838 783 849 794 q 810 772 826 772 l 733 772 q 706 783 717 772 q 694 810 694 794 l 694 888 q 706 915 694 903 q 733 926 717 926 l 810 926 q 838 915 826 926 q 849 888 849 903 l 849 810 m 694 964 q 683 938 694 949 q 656 926 672 926 l 264 926 q 236 938 247 926 q 225 964 225 949 l 225 1042 q 236 1069 225 1058 q 264 1081 247 1081 l 656 1081 q 683 1069 672 1081 q 694 1042 694 1058 l 694 964 m 849 193 q 838 165 849 176 q 810 154 826 154 l 733 154 q 706 165 717 154 q 694 193 694 176 l 694 463 l 425 463 q 397 474 408 463 q 386 501 386 486 l 386 579 q 397 606 386 594 q 425 617 408 617 l 810 617 q 838 606 826 617 q 849 579 849 594 l 849 193 m 232 193 q 220 165 232 176 q 193 154 208 154 l 115 154 q 89 165 100 154 q 78 193 78 176 l 78 888 q 89 915 78 903 q 115 926 100 926 l 193 926 q 220 915 208 926 q 232 888 232 903 l 232 193 m 694 39 q 683 11 694 22 q 656 0 672 0 l 264 0 q 236 11 247 0 q 225 39 225 22 l 225 115 q 236 143 225 132 q 264 154 247 154 l 656 154 q 683 143 672 154 q 694 115 694 132 l 694 39 z "},"H":{"ha":926,"x_min":78,"x_max":849,"o":"m 849 39 q 838 11 849 22 q 810 0 826 0 l 733 0 q 706 11 717 0 q 694 39 694 22 l 694 463 l 232 463 l 232 39 q 220 11 232 22 q 193 0 208 0 l 115 0 q 89 11 100 0 q 78 39 78 22 l 78 1042 q 89 1069 78 1058 q 115 1081 100 1081 l 193 1081 q 220 1069 208 1081 q 232 1042 232 1058 l 232 617 l 694 617 l 694 1042 q 706 1069 694 1058 q 733 1081 717 1081 l 810 1081 q 838 1069 826 1081 q 849 1042 849 1058 l 849 39 l 849 39 z "},"I":{"ha":926,"x_min":78,"x_max":849,"o":"m 849 39 q 838 11 849 22 q 810 0 826 0 l 115 0 q 89 11 100 0 q 78 39 78 22 l 78 115 q 89 143 78 132 q 115 154 100 154 l 386 154 l 386 926 l 269 926 q 243 938 254 926 q 232 964 232 949 l 232 1042 q 243 1069 232 1058 q 269 1081 254 1081 l 656 1081 q 683 1069 672 1081 q 694 1042 694 1058 l 694 964 q 683 938 694 949 q 656 926 672 926 l 540 926 l 540 154 l 810 154 q 838 143 826 154 q 849 115 849 132 l 849 39 l 849 39 z "},"J":{"ha":926,"x_min":78,"x_max":849,"o":"m 849 193 q 838 165 849 176 q 810 154 826 154 l 733 154 q 706 165 717 154 q 694 193 694 176 l 694 1042 q 706 1069 694 1058 q 733 1081 717 1081 l 810 1081 q 838 1069 826 1081 q 849 1042 849 1058 l 849 193 m 694 39 q 683 11 694 22 q 656 0 672 0 l 269 0 q 243 11 254 0 q 232 39 232 22 l 232 115 q 243 143 232 132 q 269 154 254 154 l 656 154 q 683 143 672 154 q 694 115 694 132 l 694 39 m 232 193 q 220 165 232 176 q 193 154 208 154 l 115 154 q 89 165 100 154 q 78 193 78 176 l 78 269 q 89 297 78 286 q 115 308 100 308 l 193 308 q 220 297 208 308 q 232 269 232 286 l 232 193 z "},"K":{"ha":926,"x_min":78,"x_max":849,"o":"m 849 964 q 838 938 849 949 q 810 926 826 926 l 733 926 q 706 938 717 926 q 694 964 694 949 l 694 1042 q 706 1069 694 1058 q 733 1081 717 1081 l 810 1081 q 838 1069 826 1081 q 849 1042 849 1058 l 849 964 m 694 810 q 683 783 694 794 q 656 772 672 772 l 579 772 q 551 783 563 772 q 540 810 540 794 l 540 888 q 551 915 540 903 q 579 926 563 926 l 656 926 q 683 915 672 926 q 694 888 694 903 l 694 810 m 540 656 q 529 628 540 640 q 501 617 518 617 l 425 617 q 397 628 408 617 q 386 656 386 640 l 386 733 q 397 760 386 749 q 425 772 408 772 l 501 772 q 529 760 518 772 q 540 733 540 749 l 540 656 m 540 347 q 529 319 540 331 q 501 308 518 308 l 425 308 q 397 319 408 308 q 386 347 386 331 l 386 425 q 397 451 386 440 q 425 463 408 463 l 501 463 q 529 451 518 463 q 540 425 540 440 l 540 347 m 694 193 q 683 165 694 176 q 656 154 672 154 l 579 154 q 551 165 563 154 q 540 193 540 176 l 540 269 q 551 297 540 286 q 579 308 563 308 l 656 308 q 683 297 672 308 q 694 269 694 286 l 694 193 m 849 39 q 838 11 849 22 q 810 0 826 0 l 733 0 q 706 11 717 0 q 694 39 694 22 l 694 115 q 706 143 694 132 q 733 154 717 154 l 810 154 q 838 143 826 154 q 849 115 849 132 l 849 39 m 386 501 q 375 474 386 486 q 347 463 364 463 l 232 463 l 232 39 q 220 11 232 22 q 193 0 208 0 l 115 0 q 89 11 100 0 q 78 39 78 22 l 78 1042 q 89 1069 78 1058 q 115 1081 100 1081 l 193 1081 q 220 1069 208 1081 q 232 1042 232 1058 l 232 617 l 347 617 q 375 606 364 617 q 386 579 386 594 l 386 501 z "},"L":{"ha":926,"x_min":78,"x_max":849,"o":"m 849 39 q 838 11 849 22 q 810 0 826 0 l 115 0 q 89 11 100 0 q 78 39 78 22 l 78 1042 q 89 1069 78 1058 q 115 1081 100 1081 l 193 1081 q 220 1069 208 1081 q 232 1042 232 1058 l 232 154 l 810 154 q 838 143 826 154 q 849 115 849 132 l 849 39 l 849 39 z "},"M":{"ha":926,"x_min":78,"x_max":849,"o":"m 849 39 q 838 11 849 22 q 810 0 826 0 l 733 0 q 706 11 717 0 q 694 39 694 22 l 694 772 l 579 772 q 551 783 563 772 q 540 810 540 794 l 540 888 q 551 915 540 903 q 579 926 563 926 l 694 926 l 694 1042 q 706 1069 694 1058 q 733 1081 717 1081 l 810 1081 q 838 1069 826 1081 q 849 1042 849 1058 l 849 39 m 540 656 q 529 628 540 640 q 501 617 518 617 l 425 617 q 397 628 408 617 q 386 656 386 640 l 386 733 q 397 760 386 749 q 425 772 408 772 l 501 772 q 529 760 518 772 q 540 733 540 749 l 540 656 m 386 810 q 375 783 386 794 q 347 772 364 772 l 232 772 l 232 39 q 220 11 232 22 q 193 0 208 0 l 115 0 q 89 11 100 0 q 78 39 78 22 l 78 1042 q 89 1069 78 1058 q 115 1081 100 1081 l 193 1081 q 220 1069 208 1081 q 232 1042 232 1058 l 232 926 l 347 926 q 375 915 364 926 q 386 888 386 903 l 386 810 z "},"N":{"ha":926,"x_min":78,"x_max":849,"o":"m 849 39 q 838 11 849 22 q 810 0 826 0 l 733 0 q 706 11 717 0 q 694 39 694 22 l 694 308 l 579 308 q 551 319 563 308 q 540 347 540 331 l 540 425 q 551 451 540 440 q 579 463 563 463 l 694 463 l 694 1042 q 706 1069 694 1058 q 733 1081 717 1081 l 810 1081 q 838 1069 826 1081 q 849 1042 849 1058 l 849 39 m 540 501 q 529 474 540 486 q 501 463 518 463 l 425 463 q 397 474 408 463 q 386 501 386 486 l 386 579 q 397 606 386 594 q 425 617 408 617 l 501 617 q 529 606 518 617 q 540 579 540 594 l 540 501 m 386 656 q 375 628 386 640 q 347 617 364 617 l 232 617 l 232 39 q 220 11 232 22 q 193 0 208 0 l 115 0 q 89 11 100 0 q 78 39 78 22 l 78 1042 q 89 1069 78 1058 q 115 1081 100 1081 l 193 1081 q 220 1069 208 1081 q 232 1042 232 1058 l 232 772 l 347 772 q 375 760 364 772 q 386 733 386 749 l 386 656 z "},"O":{"ha":926,"x_min":78,"x_max":849,"o":"m 694 964 q 683 938 694 949 q 656 926 672 926 l 269 926 q 243 938 254 926 q 232 964 232 949 l 232 1042 q 243 1069 232 1058 q 269 1081 254 1081 l 656 1081 q 683 1069 672 1081 q 694 1042 694 1058 l 694 964 m 849 193 q 838 165 849 176 q 810 154 826 154 l 733 154 q 706 165 717 154 q 694 193 694 176 l 694 888 q 706 915 694 903 q 733 926 717 926 l 810 926 q 838 915 826 926 q 849 888 849 903 l 849 193 m 232 193 q 220 165 232 176 q 193 154 208 154 l 115 154 q 89 165 100 154 q 78 193 78 176 l 78 888 q 89 915 78 903 q 115 926 100 926 l 193 926 q 220 915 208 926 q 232 888 232 903 l 232 193 m 694 39 q 683 11 694 22 q 656 0 672 0 l 269 0 q 243 11 254 0 q 232 39 232 22 l 232 115 q 243 143 232 132 q 269 154 254 154 l 656 154 q 683 143 672 154 q 694 115 694 132 l 694 39 z "},"P":{"ha":926,"x_min":78,"x_max":849,"o":"m 849 656 q 838 628 849 640 q 810 617 826 617 l 733 617 q 706 628 717 617 q 694 656 694 640 l 694 888 q 706 915 694 903 q 733 926 717 926 l 810 926 q 838 915 826 926 q 849 888 849 903 l 849 656 m 694 501 q 683 474 694 486 q 656 463 672 463 l 232 463 l 232 39 q 220 11 232 22 q 193 0 208 0 l 115 0 q 89 11 100 0 q 78 39 78 22 l 78 1042 q 89 1069 78 1058 q 115 1081 100 1081 l 656 1081 q 683 1069 672 1081 q 694 1042 694 1058 l 694 964 q 683 938 694 949 q 656 926 672 926 l 232 926 l 232 617 l 656 617 q 683 606 672 617 q 694 579 694 594 l 694 501 z "},"Q":{"ha":926,"x_min":78,"x_max":849,"o":"m 694 964 q 683 938 694 949 q 656 926 672 926 l 269 926 q 243 938 254 926 q 232 964 232 949 l 232 1042 q 243 1069 232 1058 q 269 1081 254 1081 l 656 1081 q 683 1069 672 1081 q 694 1042 694 1058 l 694 964 m 849 347 q 838 319 849 331 q 810 308 826 308 l 733 308 q 706 319 717 308 q 694 347 694 331 l 694 888 q 706 915 694 903 q 733 926 717 926 l 810 926 q 838 915 826 926 q 849 888 849 903 l 849 347 m 540 347 q 529 319 540 331 q 501 308 518 308 l 425 308 q 397 319 408 308 q 386 347 386 331 l 386 425 q 397 451 386 440 q 425 463 408 463 l 501 463 q 529 451 518 463 q 540 425 540 440 l 540 347 m 694 193 q 683 165 694 176 q 656 154 672 154 l 579 154 q 551 165 563 154 q 540 193 540 176 l 540 269 q 551 297 540 286 q 579 308 563 308 l 656 308 q 683 297 672 308 q 694 269 694 286 l 694 193 m 849 39 q 838 11 849 22 q 810 0 826 0 l 733 0 q 706 11 717 0 q 694 39 694 22 l 694 115 q 706 143 694 132 q 733 154 717 154 l 810 154 q 838 143 826 154 q 849 115 849 132 l 849 39 m 232 193 q 220 165 232 176 q 193 154 208 154 l 115 154 q 89 165 100 154 q 78 193 78 176 l 78 888 q 89 915 78 903 q 115 926 100 926 l 193 926 q 220 915 208 926 q 232 888 232 903 l 232 193 m 540 39 q 529 11 540 22 q 501 0 518 0 l 269 0 q 243 11 254 0 q 232 39 232 22 l 232 115 q 243 143 232 132 q 269 154 254 154 l 501 154 q 529 143 518 154 q 540 115 540 132 l 540 39 z "},"R":{"ha":926,"x_min":78,"x_max":849,"o":"m 849 656 q 838 628 849 640 q 810 617 826 617 l 733 617 q 706 628 717 617 q 694 656 694 640 l 694 888 q 706 915 694 903 q 733 926 717 926 l 810 926 q 838 915 826 926 q 849 888 849 903 l 849 656 m 694 501 q 683 474 694 486 q 656 463 672 463 l 540 463 l 540 347 q 529 319 540 331 q 501 308 518 308 l 425 308 q 397 319 408 308 q 386 347 386 331 l 386 463 l 232 463 l 232 39 q 220 11 232 22 q 193 0 208 0 l 115 0 q 89 11 100 0 q 78 39 78 22 l 78 1042 q 89 1069 78 1058 q 115 1081 100 1081 l 656 1081 q 683 1069 672 1081 q 694 1042 694 1058 l 694 964 q 683 938 694 949 q 656 926 672 926 l 232 926 l 232 617 l 656 617 q 683 606 672 617 q 694 579 694 594 l 694 501 m 694 193 q 683 165 694 176 q 656 154 672 154 l 579 154 q 551 165 563 154 q 540 193 540 176 l 540 269 q 551 297 540 286 q 579 308 563 308 l 656 308 q 683 297 672 308 q 694 269 694 286 l 694 193 m 849 39 q 838 11 849 22 q 810 0 826 0 l 733 0 q 706 11 717 0 q 694 39 694 22 l 694 115 q 706 143 694 132 q 733 154 717 154 l 810 154 q 838 143 826 154 q 849 115 849 132 l 849 39 z "},"S":{"ha":926,"x_min":78,"x_max":849,"o":"m 849 810 q 838 783 849 794 q 810 772 826 772 l 733 772 q 706 783 717 772 q 694 810 694 794 l 694 888 q 706 915 694 903 q 733 926 717 926 l 810 926 q 838 915 826 926 q 849 888 849 903 l 849 810 m 694 964 q 683 938 694 949 q 656 926 672 926 l 269 926 q 243 938 254 926 q 232 964 232 949 l 232 1042 q 243 1069 232 1058 q 269 1081 254 1081 l 656 1081 q 683 1069 672 1081 q 694 1042 694 1058 l 694 964 m 849 193 q 838 165 849 176 q 810 154 826 154 l 733 154 q 706 165 717 154 q 694 193 694 176 l 694 425 q 706 451 694 440 q 733 463 717 463 l 810 463 q 838 451 826 463 q 849 425 849 440 l 849 193 m 694 501 q 683 474 694 486 q 656 463 672 463 l 269 463 q 243 474 254 463 q 232 501 232 486 l 232 579 q 243 606 232 594 q 269 617 254 617 l 656 617 q 683 606 672 617 q 694 579 694 594 l 694 501 m 232 656 q 220 628 232 640 q 193 617 208 617 l 115 617 q 89 628 100 617 q 78 656 78 640 l 78 888 q 89 915 78 903 q 115 926 100 926 l 193 926 q 220 915 208 926 q 232 888 232 903 l 232 656 m 694 39 q 683 11 694 22 q 656 0 672 0 l 269 0 q 243 11 254 0 q 232 39 232 22 l 232 115 q 243 143 232 132 q 269 154 254 154 l 656 154 q 683 143 672 154 q 694 115 694 132 l 694 39 m 232 193 q 220 165 232 176 q 193 154 208 154 l 115 154 q 89 165 100 154 q 78 193 78 176 l 78 269 q 89 297 78 286 q 115 308 100 308 l 193 308 q 220 297 208 308 q 232 269 232 286 l 232 193 z "},"T":{"ha":926,"x_min":78,"x_max":849,"o":"m 849 964 q 838 938 849 949 q 810 926 826 926 l 540 926 l 540 39 q 529 11 540 22 q 501 0 518 0 l 425 0 q 397 11 408 0 q 386 39 386 22 l 386 926 l 115 926 q 89 938 100 926 q 78 964 78 949 l 78 1042 q 89 1069 78 1058 q 115 1081 100 1081 l 810 1081 q 838 1069 826 1081 q 849 1042 849 1058 l 849 964 l 849 964 z "},"U":{"ha":926,"x_min":78,"x_max":849,"o":"m 849 193 q 838 165 849 176 q 810 154 826 154 l 733 154 q 706 165 717 154 q 694 193 694 176 l 694 1042 q 706 1069 694 1058 q 733 1081 717 1081 l 810 1081 q 838 1069 826 1081 q 849 1042 849 1058 l 849 193 m 232 193 q 220 165 232 176 q 193 154 208 154 l 115 154 q 89 165 100 154 q 78 193 78 176 l 78 1042 q 89 1069 78 1058 q 115 1081 100 1081 l 193 1081 q 220 1069 208 1081 q 232 1042 232 1058 l 232 193 m 694 39 q 683 11 694 22 q 656 0 672 0 l 269 0 q 243 11 254 0 q 232 39 232 22 l 232 115 q 243 143 232 132 q 269 154 254 154 l 656 154 q 683 143 672 154 q 694 115 694 132 l 694 39 z "},"V":{"ha":926,"x_min":78,"x_max":849,"o":"m 849 347 q 838 319 849 331 q 810 308 826 308 l 733 308 q 706 319 717 308 q 694 347 694 331 l 694 1042 q 706 1069 694 1058 q 733 1081 717 1081 l 810 1081 q 838 1069 826 1081 q 849 1042 849 1058 l 849 347 m 232 347 q 220 319 232 331 q 193 308 208 308 l 115 308 q 89 319 100 308 q 78 347 78 331 l 78 1042 q 89 1069 78 1058 q 115 1081 100 1081 l 193 1081 q 220 1069 208 1081 q 232 1042 232 1058 l 232 347 m 694 193 q 683 165 694 176 q 656 154 672 154 l 579 154 q 551 165 563 154 q 540 193 540 176 l 540 269 q 551 297 540 286 q 579 308 563 308 l 656 308 q 683 297 672 308 q 694 269 694 286 l 694 193 m 386 193 q 375 165 386 176 q 347 154 364 154 l 269 154 q 243 165 254 154 q 232 193 232 176 l 232 269 q 243 297 232 286 q 269 308 254 308 l 347 308 q 375 297 364 308 q 386 269 386 286 l 386 193 m 540 39 q 529 11 540 22 q 501 0 518 0 l 425 0 q 397 11 408 0 q 386 39 386 22 l 386 115 q 397 143 386 132 q 425 154 408 154 l 501 154 q 529 143 518 154 q 540 115 540 132 l 540 39 z "},"W":{"ha":926,"x_min":78,"x_max":849,"o":"m 849 193 q 838 165 849 176 q 810 154 826 154 l 733 154 q 706 165 717 154 q 694 193 694 176 l 694 1042 q 706 1069 694 1058 q 733 1081 717 1081 l 810 1081 q 838 1069 826 1081 q 849 1042 849 1058 l 849 193 m 540 193 q 529 165 540 176 q 501 154 518 154 l 425 154 q 397 165 408 154 q 386 193 386 176 l 386 579 q 397 606 386 594 q 425 617 408 617 l 501 617 q 529 606 518 617 q 540 579 540 594 l 540 193 m 232 193 q 220 165 232 176 q 193 154 208 154 l 115 154 q 89 165 100 154 q 78 193 78 176 l 78 1042 q 89 1069 78 1058 q 115 1081 100 1081 l 193 1081 q 220 1069 208 1081 q 232 1042 232 1058 l 232 193 m 694 39 q 683 11 694 22 q 656 0 672 0 l 579 0 q 551 11 563 0 q 540 39 540 22 l 540 115 q 551 143 540 132 q 579 154 563 154 l 656 154 q 683 143 672 154 q 694 115 694 132 l 694 39 m 386 39 q 375 11 386 22 q 347 0 364 0 l 269 0 q 243 11 254 0 q 232 39 232 22 l 232 115 q 243 143 232 132 q 269 154 254 154 l 347 154 q 375 143 364 154 q 386 115 386 132 l 386 39 z "},"X":{"ha":926,"x_min":78,"x_max":849,"o":"m 849 810 q 838 783 849 794 q 810 772 826 772 l 733 772 q 706 783 717 772 q 694 810 694 794 l 694 1042 q 706 1069 694 1058 q 733 1081 717 1081 l 810 1081 q 838 1069 826 1081 q 849 1042 849 1058 l 849 810 m 694 656 q 683 628 694 640 q 656 617 672 617 l 579 617 q 551 628 563 617 q 540 656 540 640 l 540 733 q 551 760 540 749 q 579 772 563 772 l 656 772 q 683 760 672 772 q 694 733 694 749 l 694 656 m 232 810 q 220 783 232 794 q 193 772 208 772 l 115 772 q 89 783 100 772 q 78 810 78 794 l 78 1042 q 89 1069 78 1058 q 115 1081 100 1081 l 193 1081 q 220 1069 208 1081 q 232 1042 232 1058 l 232 810 m 386 656 q 375 628 386 640 q 347 617 364 617 l 269 617 q 243 628 254 617 q 232 656 232 640 l 232 733 q 243 760 232 749 q 269 772 254 772 l 347 772 q 375 760 364 772 q 386 733 386 749 l 386 656 m 540 501 q 529 474 540 486 q 501 463 518 463 l 425 463 q 397 474 408 463 q 386 501 386 486 l 386 579 q 397 606 386 594 q 425 617 408 617 l 501 617 q 529 606 518 617 q 540 579 540 594 l 540 501 m 694 347 q 683 319 694 331 q 656 308 672 308 l 579 308 q 551 319 563 308 q 540 347 540 331 l 540 425 q 551 451 540 440 q 579 463 563 463 l 656 463 q 683 451 672 463 q 694 425 694 440 l 694 347 m 849 39 q 838 11 849 22 q 810 0 826 0 l 733 0 q 706 11 717 0 q 694 39 694 22 l 694 269 q 706 297 694 286 q 733 308 717 308 l 810 308 q 838 297 826 308 q 849 269 849 286 l 849 39 m 386 347 q 375 319 386 331 q 347 308 364 308 l 269 308 q 243 319 254 308 q 232 347 232 331 l 232 425 q 243 451 232 440 q 269 463 254 463 l 347 463 q 375 451 364 463 q 386 425 386 440 l 386 347 m 232 39 q 220 11 232 22 q 193 0 208 0 l 115 0 q 89 11 100 0 q 78 39 78 22 l 78 269 q 89 297 78 286 q 115 308 100 308 l 193 308 q 220 297 208 308 q 232 269 232 286 l 232 39 z "},"Y":{"ha":926,"x_min":78,"x_max":849,"o":"m 849 810 q 838 783 849 794 q 810 772 826 772 l 733 772 q 706 783 717 772 q 694 810 694 794 l 694 1042 q 706 1069 694 1058 q 733 1081 717 1081 l 810 1081 q 838 1069 826 1081 q 849 1042 849 1058 l 849 810 m 694 656 q 683 628 694 640 q 656 617 672 617 l 579 617 q 551 628 563 617 q 540 656 540 640 l 540 733 q 551 760 540 749 q 579 772 563 772 l 656 772 q 683 760 672 772 q 694 733 694 749 l 694 656 m 232 810 q 220 783 232 794 q 193 772 208 772 l 115 772 q 89 783 100 772 q 78 810 78 794 l 78 1042 q 89 1069 78 1058 q 115 1081 100 1081 l 193 1081 q 220 1069 208 1081 q 232 1042 232 1058 l 232 810 m 386 656 q 375 628 386 640 q 347 617 364 617 l 269 617 q 243 628 254 617 q 232 656 232 640 l 232 733 q 243 760 232 749 q 269 772 254 772 l 347 772 q 375 760 364 772 q 386 733 386 749 l 386 656 m 540 39 q 529 11 540 22 q 501 0 518 0 l 425 0 q 397 11 408 0 q 386 39 386 22 l 386 579 q 397 606 386 594 q 425 617 408 617 l 501 617 q 529 606 518 617 q 540 579 540 594 l 540 39 z "},"Z":{"ha":926,"x_min":78,"x_max":849,"o":"m 849 810 q 838 783 849 794 q 810 772 826 772 l 733 772 q 706 783 717 772 q 694 810 694 794 l 694 926 l 115 926 q 89 938 100 926 q 78 964 78 949 l 78 1042 q 89 1069 78 1058 q 115 1081 100 1081 l 810 1081 q 838 1069 826 1081 q 849 1042 849 1058 l 849 810 m 694 656 q 683 628 694 640 q 656 617 672 617 l 579 617 q 551 628 563 617 q 540 656 540 640 l 540 733 q 551 760 540 749 q 579 772 563 772 l 656 772 q 683 760 672 772 q 694 733 694 749 l 694 656 m 540 501 q 529 474 540 486 q 501 463 518 463 l 425 463 q 397 474 408 463 q 386 501 386 486 l 386 579 q 397 606 386 594 q 425 617 408 617 l 501 617 q 529 606 518 617 q 540 579 540 594 l 540 501 m 386 347 q 375 319 386 331 q 347 308 364 308 l 269 308 q 243 319 254 308 q 232 347 232 331 l 232 425 q 243 451 232 440 q 269 463 254 463 l 347 463 q 375 451 364 463 q 386 425 386 440 l 386 347 m 849 39 q 838 11 849 22 q 810 0 826 0 l 115 0 q 89 11 100 0 q 78 39 78 22 l 78 269 q 89 297 78 286 q 115 308 100 308 l 193 308 q 220 297 208 308 q 232 269 232 286 l 232 154 l 810 154 q 838 143 826 154 q 849 115 849 132 l 849 39 z "},"[":{"ha":926,"x_min":308,"x_max":926,"o":"m 926 39 q 915 11 926 22 q 888 0 903 0 l 347 0 q 319 11 331 0 q 308 39 308 22 l 308 1042 q 319 1069 308 1058 q 347 1081 331 1081 l 888 1081 q 915 1069 903 1081 q 926 1042 926 1058 l 926 964 q 915 938 926 949 q 888 926 903 926 l 463 926 l 463 154 l 888 154 q 915 143 903 154 q 926 115 926 132 l 926 39 l 926 39 z "},"\\":{"ha":926,"x_min":78,"x_max":849,"o":"m 232 810 q 220 783 232 794 q 193 772 208 772 l 115 772 q 89 783 100 772 q 78 810 78 794 l 78 1042 q 89 1069 78 1058 q 115 1081 100 1081 l 193 1081 q 220 1069 208 1081 q 232 1042 232 1058 l 232 810 m 386 656 q 375 628 386 640 q 347 617 364 617 l 269 617 q 243 628 254 617 q 232 656 232 640 l 232 733 q 243 760 232 749 q 269 772 254 772 l 347 772 q 375 760 364 772 q 386 733 386 749 l 386 656 m 540 501 q 529 474 540 486 q 501 463 518 463 l 425 463 q 397 474 408 463 q 386 501 386 486 l 386 579 q 397 606 386 594 q 425 617 408 617 l 501 617 q 529 606 518 617 q 540 579 540 594 l 540 501 m 694 347 q 683 319 694 331 q 656 308 672 308 l 579 308 q 551 319 563 308 q 540 347 540 331 l 540 425 q 551 451 540 440 q 579 463 563 463 l 656 463 q 683 451 672 463 q 694 425 694 440 l 694 347 m 849 39 q 838 11 849 22 q 810 0 826 0 l 733 0 q 706 11 717 0 q 694 39 694 22 l 694 269 q 706 297 694 286 q 733 308 717 308 l 810 308 q 838 297 826 308 q 849 269 849 286 l 849 39 z "},"]":{"ha":926,"x_min":154,"x_max":772,"o":"m 772 39 q 760 11 772 22 q 733 0 749 0 l 193 0 q 165 11 176 0 q 154 39 154 22 l 154 115 q 165 143 154 132 q 193 154 176 154 l 617 154 l 617 926 l 193 926 q 165 938 176 926 q 154 964 154 949 l 154 1042 q 165 1069 154 1058 q 193 1081 176 1081 l 733 1081 q 760 1069 749 1081 q 772 1042 772 1058 l 772 39 l 772 39 z "},"^":{"ha":617,"x_min":78,"x_max":540,"o":"m 386 772 l 386 926 l 232 926 l 232 772 l 78 772 l 78 926 l 232 926 l 232 1081 l 386 1081 l 386 926 l 540 926 l 540 772 l 386 772 z "},"_":{"ha":926,"x_min":154,"x_max":926,"o":"m 926 -115 q 915 -143 926 -132 q 888 -154 903 -154 l 193 -154 q 165 -143 176 -154 q 154 -115 154 -132 l 154 -39 q 165 -11 154 -22 q 193 0 176 0 l 888 0 q 915 -11 903 0 q 926 -39 926 -22 l 926 -115 l 926 -115 z "},"`":{"ha":926,"x_min":232,"x_max":540,"o":"m 386 964 q 375 938 386 949 q 347 926 364 926 l 269 926 q 243 938 254 926 q 232 964 232 949 l 232 1042 q 243 1069 232 1058 q 269 1081 254 1081 l 347 1081 q 375 1069 364 1081 q 386 1042 386 1058 l 386 964 m 540 810 q 529 783 540 794 q 501 772 518 772 l 425 772 q 397 783 408 772 q 386 810 386 794 l 386 888 q 397 915 386 903 q 425 926 408 926 l 501 926 q 529 915 518 926 q 540 888 540 903 l 540 810 z "},"a":{"ha":926,"x_min":78,"x_max":849,"o":"m 694 656 q 683 628 694 640 q 656 617 672 617 l 269 617 q 243 628 254 617 q 232 656 232 640 l 232 733 q 243 760 232 749 q 269 772 254 772 l 656 772 q 683 760 672 772 q 694 733 694 749 l 694 656 m 849 39 q 838 11 849 22 q 810 0 826 0 l 269 0 q 243 11 254 0 q 232 39 232 22 l 232 115 q 243 143 232 132 q 269 154 254 154 l 694 154 l 694 308 l 269 308 q 243 319 254 308 q 232 347 232 331 l 232 425 q 243 451 232 440 q 269 463 254 463 l 694 463 l 694 579 q 706 606 694 594 q 733 617 717 617 l 810 617 q 838 606 826 617 q 849 579 849 594 l 849 39 m 232 193 q 220 165 232 176 q 193 154 208 154 l 115 154 q 89 165 100 154 q 78 193 78 176 l 78 269 q 89 297 78 286 q 115 308 100 308 l 193 308 q 220 297 208 308 q 232 269 232 286 l 232 193 z "},"b":{"ha":926,"x_min":78,"x_max":849,"o":"m 849 193 q 838 165 849 176 q 810 154 826 154 l 733 154 q 706 165 717 154 q 694 193 694 176 l 694 579 q 706 606 694 594 q 733 617 717 617 l 810 617 q 838 606 826 617 q 849 579 849 594 l 849 193 m 694 39 q 683 11 694 22 q 656 0 672 0 l 115 0 q 89 11 100 0 q 78 39 78 22 l 78 1042 q 89 1069 78 1058 q 115 1081 100 1081 l 193 1081 q 220 1069 208 1081 q 232 1042 232 1058 l 232 772 l 656 772 q 683 760 672 772 q 694 733 694 749 l 694 656 q 683 628 694 640 q 656 617 672 617 l 232 617 l 232 154 l 656 154 q 683 143 672 154 q 694 115 694 132 l 694 39 z "},"c":{"ha":926,"x_min":78,"x_max":849,"o":"m 849 656 q 838 628 849 640 q 810 617 826 617 l 269 617 q 243 628 254 617 q 232 656 232 640 l 232 733 q 243 760 232 749 q 269 772 254 772 l 810 772 q 838 760 826 772 q 849 733 849 749 l 849 656 m 849 39 q 838 11 849 22 q 810 0 826 0 l 269 0 q 243 11 254 0 q 232 39 232 22 l 232 115 q 243 143 232 132 q 269 154 254 154 l 810 154 q 838 143 826 154 q 849 115 849 132 l 849 39 m 232 193 q 220 165 232 176 q 193 154 208 154 l 115 154 q 89 165 100 154 q 78 193 78 176 l 78 579 q 89 606 78 594 q 115 617 100 617 l 193 617 q 220 606 208 617 q 232 579 232 594 l 232 193 z "},"d":{"ha":926,"x_min":78,"x_max":849,"o":"m 849 39 q 838 11 849 22 q 810 0 826 0 l 269 0 q 243 11 254 0 q 232 39 232 22 l 232 115 q 243 143 232 132 q 269 154 254 154 l 694 154 l 694 617 l 269 617 q 243 628 254 617 q 232 656 232 640 l 232 733 q 243 760 232 749 q 269 772 254 772 l 694 772 l 694 1042 q 706 1069 694 1058 q 733 1081 717 1081 l 810 1081 q 838 1069 826 1081 q 849 1042 849 1058 l 849 39 m 232 193 q 220 165 232 176 q 193 154 208 154 l 115 154 q 89 165 100 154 q 78 193 78 176 l 78 579 q 89 606 78 594 q 115 617 100 617 l 193 617 q 220 606 208 617 q 232 579 232 594 l 232 193 z "},"e":{"ha":926,"x_min":78,"x_max":849,"o":"m 694 656 q 683 628 694 640 q 656 617 672 617 l 269 617 q 243 628 254 617 q 232 656 232 640 l 232 733 q 243 760 232 749 q 269 772 254 772 l 656 772 q 683 760 672 772 q 694 733 694 749 l 694 656 m 849 347 q 838 319 849 331 q 810 308 826 308 l 232 308 l 232 193 q 220 165 232 176 q 193 154 208 154 l 115 154 q 89 165 100 154 q 78 193 78 176 l 78 579 q 89 606 78 594 q 115 617 100 617 l 193 617 q 220 606 208 617 q 232 579 232 594 l 232 463 l 694 463 l 694 579 q 706 606 694 594 q 733 617 717 617 l 810 617 q 838 606 826 617 q 849 579 849 594 l 849 347 m 849 39 q 838 11 849 22 q 810 0 826 0 l 269 0 q 243 11 254 0 q 232 39 232 22 l 232 115 q 243 143 232 132 q 269 154 254 154 l 810 154 q 838 143 826 154 q 849 115 849 132 l 849 39 z "},"f":{"ha":926,"x_min":78,"x_max":849,"o":"m 849 964 q 838 938 849 949 q 810 926 826 926 l 579 926 q 551 938 563 926 q 540 964 540 949 l 540 1042 q 551 1069 540 1058 q 579 1081 563 1081 l 810 1081 q 838 1069 826 1081 q 849 1042 849 1058 l 849 964 m 849 656 q 838 628 849 640 q 810 617 826 617 l 540 617 l 540 39 q 529 11 540 22 q 501 0 518 0 l 425 0 q 397 11 408 0 q 386 39 386 22 l 386 617 l 115 617 q 89 628 100 617 q 78 656 78 640 l 78 733 q 89 760 78 749 q 115 772 100 772 l 386 772 l 386 888 q 397 915 386 903 q 425 926 408 926 l 501 926 q 529 915 518 926 q 540 888 540 903 l 540 772 l 810 772 q 838 760 826 772 q 849 733 849 749 l 849 656 z "},"g":{"ha":926,"x_min":78,"x_max":849,"o":"m 849 -115 q 838 -143 849 -132 q 810 -154 826 -154 l 733 -154 q 706 -143 717 -154 q 694 -115 694 -132 l 694 0 l 269 0 q 243 11 254 0 q 232 39 232 22 l 232 115 q 243 143 232 132 q 269 154 254 154 l 694 154 l 694 617 l 269 617 q 243 628 254 617 q 232 656 232 640 l 232 733 q 243 760 232 749 q 269 772 254 772 l 810 772 q 838 760 826 772 q 849 733 849 749 l 849 -115 m 232 193 q 220 165 232 176 q 193 154 208 154 l 115 154 q 89 165 100 154 q 78 193 78 176 l 78 579 q 89 606 78 594 q 115 617 100 617 l 193 617 q 220 606 208 617 q 232 579 232 594 l 232 193 m 694 -269 q 683 -297 694 -286 q 656 -308 672 -308 l 115 -308 q 89 -297 100 -308 q 78 -269 78 -286 l 78 -193 q 89 -165 78 -176 q 115 -154 100 -154 l 656 -154 q 683 -165 672 -154 q 694 -193 694 -176 l 694 -269 z "},"h":{"ha":926,"x_min":78,"x_max":849,"o":"m 849 39 q 838 11 849 22 q 810 0 826 0 l 733 0 q 706 11 717 0 q 694 39 694 22 l 694 579 q 706 606 694 594 q 733 617 717 617 l 810 617 q 838 606 826 617 q 849 579 849 594 l 849 39 m 694 656 q 683 628 694 640 q 656 617 672 617 l 232 617 l 232 39 q 220 11 232 22 q 193 0 208 0 l 115 0 q 89 11 100 0 q 78 39 78 22 l 78 1042 q 89 1069 78 1058 q 115 1081 100 1081 l 193 1081 q 220 1069 208 1081 q 232 1042 232 1058 l 232 772 l 656 772 q 683 760 672 772 q 694 733 694 749 l 694 656 z "},"i":{"ha":926,"x_min":78,"x_max":849,"o":"m 540 964 q 529 938 540 949 q 501 926 518 926 l 425 926 q 397 938 408 926 q 386 964 386 949 l 386 1042 q 397 1069 386 1058 q 425 1081 408 1081 l 501 1081 q 529 1069 518 1081 q 540 1042 540 1058 l 540 964 m 849 39 q 838 11 849 22 q 810 0 826 0 l 115 0 q 89 11 100 0 q 78 39 78 22 l 78 115 q 89 143 78 132 q 115 154 100 154 l 386 154 l 386 617 l 269 617 q 243 628 254 617 q 232 656 232 640 l 232 733 q 243 760 232 749 q 269 772 254 772 l 501 772 q 529 760 518 772 q 540 733 540 749 l 540 154 l 810 154 q 838 143 826 154 q 849 115 849 132 l 849 39 z "},"j":{"ha":926,"x_min":78,"x_max":849,"o":"m 849 964 q 838 938 849 949 q 810 926 826 926 l 733 926 q 706 938 717 926 q 694 964 694 949 l 694 1042 q 706 1069 694 1058 q 733 1081 717 1081 l 810 1081 q 838 1069 826 1081 q 849 1042 849 1058 l 849 964 m 849 -115 q 838 -143 849 -132 q 810 -154 826 -154 l 733 -154 q 706 -143 717 -154 q 694 -115 694 -132 l 694 617 l 579 617 q 551 628 563 617 q 540 656 540 640 l 540 733 q 551 760 540 749 q 579 772 563 772 l 810 772 q 838 760 826 772 q 849 733 849 749 l 849 -115 m 694 -269 q 683 -297 694 -286 q 656 -308 672 -308 l 269 -308 q 243 -297 254 -308 q 232 -269 232 -286 l 232 -193 q 243 -165 232 -176 q 269 -154 254 -154 l 656 -154 q 683 -165 672 -154 q 694 -193 694 -176 l 694 -269 m 232 -115 q 220 -143 232 -132 q 193 -154 208 -154 l 115 -154 q 89 -143 100 -154 q 78 -115 78 -132 l 78 -39 q 89 -11 78 -22 q 115 0 100 0 l 193 0 q 220 -11 208 0 q 232 -39 232 -22 l 232 -115 z "},"k":{"ha":926,"x_min":78,"x_max":849,"o":"m 849 656 q 838 628 849 640 q 810 617 826 617 l 733 617 q 706 628 717 617 q 694 656 694 640 l 694 733 q 706 760 694 749 q 733 772 717 772 l 810 772 q 838 760 826 772 q 849 733 849 749 l 849 656 m 694 501 q 683 474 694 486 q 656 463 672 463 l 579 463 q 551 474 563 463 q 540 501 540 486 l 540 579 q 551 606 540 594 q 579 617 563 617 l 656 617 q 683 606 672 617 q 694 579 694 594 l 694 501 m 540 347 q 529 319 540 331 q 501 308 518 308 l 425 308 q 397 319 408 308 q 386 347 386 331 l 386 425 q 397 451 386 440 q 425 463 408 463 l 501 463 q 529 451 518 463 q 540 425 540 440 l 540 347 m 694 193 q 683 165 694 176 q 656 154 672 154 l 579 154 q 551 165 563 154 q 540 193 540 176 l 540 269 q 551 297 540 286 q 579 308 563 308 l 656 308 q 683 297 672 308 q 694 269 694 286 l 694 193 m 849 39 q 838 11 849 22 q 810 0 826 0 l 733 0 q 706 11 717 0 q 694 39 694 22 l 694 115 q 706 143 694 132 q 733 154 717 154 l 810 154 q 838 143 826 154 q 849 115 849 132 l 849 39 m 386 193 q 375 165 386 176 q 347 154 364 154 l 232 154 l 232 39 q 220 11 232 22 q 193 0 208 0 l 115 0 q 89 11 100 0 q 78 39 78 22 l 78 1042 q 89 1069 78 1058 q 115 1081 100 1081 l 193 1081 q 220 1069 208 1081 q 232 1042 232 1058 l 232 308 l 347 308 q 375 297 364 308 q 386 269 386 286 l 386 193 z "},"l":{"ha":926,"x_min":78,"x_max":849,"o":"m 849 39 q 838 11 849 22 q 810 0 826 0 l 115 0 q 89 11 100 0 q 78 39 78 22 l 78 115 q 89 143 78 132 q 115 154 100 154 l 386 154 l 386 926 l 269 926 q 243 938 254 926 q 232 964 232 949 l 232 1042 q 243 1069 232 1058 q 269 1081 254 1081 l 501 1081 q 529 1069 518 1081 q 540 1042 540 1058 l 540 154 l 810 154 q 838 143 826 154 q 849 115 849 132 l 849 39 l 849 39 z "},"m":{"ha":926,"x_min":78,"x_max":849,"o":"m 694 656 q 683 628 694 640 q 656 617 672 617 l 579 617 q 551 628 563 617 q 540 656 540 640 l 540 733 q 551 760 540 749 q 579 772 563 772 l 656 772 q 683 760 672 772 q 694 733 694 749 l 694 656 m 849 39 q 838 11 849 22 q 810 0 826 0 l 733 0 q 706 11 717 0 q 694 39 694 22 l 694 579 q 706 606 694 594 q 733 617 717 617 l 810 617 q 838 606 826 617 q 849 579 849 594 l 849 39 m 540 39 q 529 11 540 22 q 501 0 518 0 l 425 0 q 397 11 408 0 q 386 39 386 22 l 386 579 q 397 606 386 594 q 425 617 408 617 l 501 617 q 529 606 518 617 q 540 579 540 594 l 540 39 m 386 656 q 375 628 386 640 q 347 617 364 617 l 232 617 l 232 39 q 220 11 232 22 q 193 0 208 0 l 115 0 q 89 11 100 0 q 78 39 78 22 l 78 733 q 89 760 78 749 q 115 772 100 772 l 347 772 q 375 760 364 772 q 386 733 386 749 l 386 656 z "},"n":{"ha":926,"x_min":78,"x_max":849,"o":"m 849 39 q 838 11 849 22 q 810 0 826 0 l 733 0 q 706 11 717 0 q 694 39 694 22 l 694 579 q 706 606 694 594 q 733 617 717 617 l 810 617 q 838 606 826 617 q 849 579 849 594 l 849 39 m 694 656 q 683 628 694 640 q 656 617 672 617 l 232 617 l 232 39 q 220 11 232 22 q 193 0 208 0 l 115 0 q 89 11 100 0 q 78 39 78 22 l 78 733 q 89 760 78 749 q 115 772 100 772 l 656 772 q 683 760 672 772 q 694 733 694 749 l 694 656 z "},"o":{"ha":926,"x_min":78,"x_max":849,"o":"m 694 656 q 683 628 694 640 q 656 617 672 617 l 269 617 q 243 628 254 617 q 232 656 232 640 l 232 733 q 243 760 232 749 q 269 772 254 772 l 656 772 q 683 760 672 772 q 694 733 694 749 l 694 656 m 849 193 q 838 165 849 176 q 810 154 826 154 l 733 154 q 706 165 717 154 q 694 193 694 176 l 694 579 q 706 606 694 594 q 733 617 717 617 l 810 617 q 838 606 826 617 q 849 579 849 594 l 849 193 m 232 193 q 220 165 232 176 q 193 154 208 154 l 115 154 q 89 165 100 154 q 78 193 78 176 l 78 579 q 89 606 78 594 q 115 617 100 617 l 193 617 q 220 606 208 617 q 232 579 232 594 l 232 193 m 694 39 q 683 11 694 22 q 656 0 672 0 l 269 0 q 243 11 254 0 q 232 39 232 22 l 232 115 q 243 143 232 132 q 269 154 254 154 l 656 154 q 683 143 672 154 q 694 115 694 132 l 694 39 z "},"p":{"ha":926,"x_min":78,"x_max":849,"o":"m 849 193 q 838 165 849 176 q 810 154 826 154 l 733 154 q 706 165 717 154 q 694 193 694 176 l 694 579 q 706 606 694 594 q 733 617 717 617 l 810 617 q 838 606 826 617 q 849 579 849 594 l 849 193 m 694 39 q 683 11 694 22 q 656 0 672 0 l 232 0 l 232 -269 q 220 -297 232 -286 q 193 -308 208 -308 l 115 -308 q 89 -297 100 -308 q 78 -269 78 -286 l 78 733 q 89 760 78 749 q 115 772 100 772 l 656 772 q 683 760 672 772 q 694 733 694 749 l 694 656 q 683 628 694 640 q 656 617 672 617 l 232 617 l 232 154 l 656 154 q 683 143 672 154 q 694 115 694 132 l 694 39 z "},"q":{"ha":926,"x_min":78,"x_max":849,"o":"m 849 -269 q 838 -297 849 -286 q 810 -308 826 -308 l 733 -308 q 706 -297 717 -308 q 694 -269 694 -286 l 694 0 l 269 0 q 243 11 254 0 q 232 39 232 22 l 232 115 q 243 143 232 132 q 269 154 254 154 l 694 154 l 694 617 l 269 617 q 243 628 254 617 q 232 656 232 640 l 232 733 q 243 760 232 749 q 269 772 254 772 l 810 772 q 838 760 826 772 q 849 733 849 749 l 849 -269 m 232 193 q 220 165 232 176 q 193 154 208 154 l 115 154 q 89 165 100 154 q 78 193 78 176 l 78 579 q 89 606 78 594 q 115 617 100 617 l 193 617 q 220 606 208 617 q 232 579 232 594 l 232 193 z "},"r":{"ha":926,"x_min":78,"x_max":849,"o":"m 849 501 q 838 474 849 486 q 810 463 826 463 l 733 463 q 706 474 717 463 q 694 501 694 486 l 694 579 q 706 606 694 594 q 733 617 717 617 l 810 617 q 838 606 826 617 q 849 579 849 594 l 849 501 m 694 656 q 683 628 694 640 q 656 617 672 617 l 232 617 l 232 39 q 220 11 232 22 q 193 0 208 0 l 115 0 q 89 11 100 0 q 78 39 78 22 l 78 733 q 89 760 78 749 q 115 772 100 772 l 656 772 q 683 760 672 772 q 694 733 694 749 l 694 656 z "},"s":{"ha":926,"x_min":78,"x_max":849,"o":"m 849 656 q 838 628 849 640 q 810 617 826 617 l 269 617 q 243 628 254 617 q 232 656 232 640 l 232 733 q 243 760 232 749 q 269 772 254 772 l 810 772 q 838 760 826 772 q 849 733 849 749 l 849 656 m 849 193 q 838 165 849 176 q 810 154 826 154 l 733 154 q 706 165 717 154 q 694 193 694 176 l 694 269 q 706 297 694 286 q 733 308 717 308 l 810 308 q 838 297 826 308 q 849 269 849 286 l 849 193 m 694 347 q 683 319 694 331 q 656 308 672 308 l 269 308 q 243 319 254 308 q 232 347 232 331 l 232 425 q 243 451 232 440 q 269 463 254 463 l 656 463 q 683 451 672 463 q 694 425 694 440 l 694 347 m 232 501 q 220 474 232 486 q 193 463 208 463 l 115 463 q 89 474 100 463 q 78 501 78 486 l 78 579 q 89 606 78 594 q 115 617 100 617 l 193 617 q 220 606 208 617 q 232 579 232 594 l 232 501 m 694 39 q 683 11 694 22 q 656 0 672 0 l 115 0 q 89 11 100 0 q 78 39 78 22 l 78 115 q 89 143 78 132 q 115 154 100 154 l 656 154 q 683 143 672 154 q 694 115 694 132 l 694 39 z "},"t":{"ha":926,"x_min":78,"x_max":849,"o":"m 849 656 q 838 628 849 640 q 810 617 826 617 l 540 617 l 540 193 q 529 165 540 176 q 501 154 518 154 l 425 154 q 397 165 408 154 q 386 193 386 176 l 386 617 l 115 617 q 89 628 100 617 q 78 656 78 640 l 78 733 q 89 760 78 749 q 115 772 100 772 l 386 772 l 386 1042 q 397 1069 386 1058 q 425 1081 408 1081 l 501 1081 q 529 1069 518 1081 q 540 1042 540 1058 l 540 772 l 810 772 q 838 760 826 772 q 849 733 849 749 l 849 656 m 849 39 q 838 11 849 22 q 810 0 826 0 l 579 0 q 551 11 563 0 q 540 39 540 22 l 540 115 q 551 143 540 132 q 579 154 563 154 l 810 154 q 838 143 826 154 q 849 115 849 132 l 849 39 z "},"u":{"ha":926,"x_min":78,"x_max":849,"o":"m 849 39 q 838 11 849 22 q 810 0 826 0 l 269 0 q 243 11 254 0 q 232 39 232 22 l 232 115 q 243 143 232 132 q 269 154 254 154 l 694 154 l 694 733 q 706 760 694 749 q 733 772 717 772 l 810 772 q 838 760 826 772 q 849 733 849 749 l 849 39 m 232 193 q 220 165 232 176 q 193 154 208 154 l 115 154 q 89 165 100 154 q 78 193 78 176 l 78 733 q 89 760 78 749 q 115 772 100 772 l 193 772 q 220 760 208 772 q 232 733 232 749 l 232 193 z "},"v":{"ha":926,"x_min":78,"x_max":849,"o":"m 849 347 q 838 319 849 331 q 810 308 826 308 l 733 308 q 706 319 717 308 q 694 347 694 331 l 694 733 q 706 760 694 749 q 733 772 717 772 l 810 772 q 838 760 826 772 q 849 733 849 749 l 849 347 m 694 193 q 683 165 694 176 q 656 154 672 154 l 579 154 q 551 165 563 154 q 540 193 540 176 l 540 269 q 551 297 540 286 q 579 308 563 308 l 656 308 q 683 297 672 308 q 694 269 694 286 l 694 193 m 232 347 q 220 319 232 331 q 193 308 208 308 l 115 308 q 89 319 100 308 q 78 347 78 331 l 78 733 q 89 760 78 749 q 115 772 100 772 l 193 772 q 220 760 208 772 q 232 733 232 749 l 232 347 m 386 193 q 375 165 386 176 q 347 154 364 154 l 269 154 q 243 165 254 154 q 232 193 232 176 l 232 269 q 243 297 232 286 q 269 308 254 308 l 347 308 q 375 297 364 308 q 386 269 386 286 l 386 193 m 540 39 q 529 11 540 22 q 501 0 518 0 l 425 0 q 397 11 408 0 q 386 39 386 22 l 386 115 q 397 143 386 132 q 425 154 408 154 l 501 154 q 529 143 518 154 q 540 115 540 132 l 540 39 z "},"w":{"ha":926,"x_min":78,"x_max":849,"o":"m 849 193 q 838 165 849 176 q 810 154 826 154 l 733 154 q 706 165 717 154 q 694 193 694 176 l 694 733 q 706 760 694 749 q 733 772 717 772 l 810 772 q 838 760 826 772 q 849 733 849 749 l 849 193 m 540 193 q 529 165 540 176 q 501 154 518 154 l 425 154 q 397 165 408 154 q 386 193 386 176 l 386 425 q 397 451 386 440 q 425 463 408 463 l 501 463 q 529 451 518 463 q 540 425 540 440 l 540 193 m 694 39 q 683 11 694 22 q 656 0 672 0 l 579 0 q 551 11 563 0 q 540 39 540 22 l 540 115 q 551 143 540 132 q 579 154 563 154 l 656 154 q 683 143 672 154 q 694 115 694 132 l 694 39 m 232 193 q 220 165 232 176 q 193 154 208 154 l 115 154 q 89 165 100 154 q 78 193 78 176 l 78 733 q 89 760 78 749 q 115 772 100 772 l 193 772 q 220 760 208 772 q 232 733 232 749 l 232 193 m 386 39 q 375 11 386 22 q 347 0 364 0 l 269 0 q 243 11 254 0 q 232 39 232 22 l 232 115 q 243 143 232 132 q 269 154 254 154 l 347 154 q 375 143 364 154 q 386 115 386 132 l 386 39 z "},"x":{"ha":926,"x_min":78,"x_max":849,"o":"m 849 656 q 838 628 849 640 q 810 617 826 617 l 733 617 q 706 628 717 617 q 694 656 694 640 l 694 733 q 706 760 694 749 q 733 772 717 772 l 810 772 q 838 760 826 772 q 849 733 849 749 l 849 656 m 694 501 q 683 474 694 486 q 656 463 672 463 l 579 463 q 551 474 563 463 q 540 501 540 486 l 540 579 q 551 606 540 594 q 579 617 563 617 l 656 617 q 683 606 672 617 q 694 579 694 594 l 694 501 m 232 656 q 220 628 232 640 q 193 617 208 617 l 115 617 q 89 628 100 617 q 78 656 78 640 l 78 733 q 89 760 78 749 q 115 772 100 772 l 193 772 q 220 760 208 772 q 232 733 232 749 l 232 656 m 386 501 q 375 474 386 486 q 347 463 364 463 l 269 463 q 243 474 254 463 q 232 501 232 486 l 232 579 q 243 606 232 594 q 269 617 254 617 l 347 617 q 375 606 364 617 q 386 579 386 594 l 386 501 m 540 347 q 529 319 540 331 q 501 308 518 308 l 425 308 q 397 319 408 308 q 386 347 386 331 l 386 425 q 397 451 386 440 q 425 463 408 463 l 501 463 q 529 451 518 463 q 540 425 540 440 l 540 347 m 694 193 q 683 165 694 176 q 656 154 672 154 l 579 154 q 551 165 563 154 q 540 193 540 176 l 540 269 q 551 297 540 286 q 579 308 563 308 l 656 308 q 683 297 672 308 q 694 269 694 286 l 694 193 m 849 39 q 838 11 849 22 q 810 0 826 0 l 733 0 q 706 11 717 0 q 694 39 694 22 l 694 115 q 706 143 694 132 q 733 154 717 154 l 810 154 q 838 143 826 154 q 849 115 849 132 l 849 39 m 386 193 q 375 165 386 176 q 347 154 364 154 l 269 154 q 243 165 254 154 q 232 193 232 176 l 232 269 q 243 297 232 286 q 269 308 254 308 l 347 308 q 375 297 364 308 q 386 269 386 286 l 386 193 m 232 39 q 220 11 232 22 q 193 0 208 0 l 115 0 q 89 11 100 0 q 78 39 78 22 l 78 115 q 89 143 78 132 q 115 154 100 154 l 193 154 q 220 143 208 154 q 232 115 232 132 l 232 39 z "},"y":{"ha":926,"x_min":78,"x_max":849,"o":"m 849 -115 q 838 -143 849 -132 q 810 -154 826 -154 l 733 -154 q 706 -143 717 -154 q 694 -115 694 -132 l 694 0 l 269 0 q 243 11 254 0 q 232 39 232 22 l 232 115 q 243 143 232 132 q 269 154 254 154 l 694 154 l 694 733 q 706 760 694 749 q 733 772 717 772 l 810 772 q 838 760 826 772 q 849 733 849 749 l 849 -115 m 232 193 q 220 165 232 176 q 193 154 208 154 l 115 154 q 89 165 100 154 q 78 193 78 176 l 78 733 q 89 760 78 749 q 115 772 100 772 l 193 772 q 220 760 208 772 q 232 733 232 749 l 232 193 m 694 -269 q 683 -297 694 -286 q 656 -308 672 -308 l 115 -308 q 89 -297 100 -308 q 78 -269 78 -286 l 78 -193 q 89 -165 78 -176 q 115 -154 100 -154 l 656 -154 q 683 -165 672 -154 q 694 -193 694 -176 l 694 -269 z "},"z":{"ha":926,"x_min":78,"x_max":849,"o":"m 849 656 q 838 628 849 640 q 810 617 826 617 l 694 617 l 694 501 q 683 474 694 486 q 656 463 672 463 l 579 463 q 551 474 563 463 q 540 501 540 486 l 540 617 l 115 617 q 89 628 100 617 q 78 656 78 640 l 78 733 q 89 760 78 749 q 115 772 100 772 l 810 772 q 838 760 826 772 q 849 733 849 749 l 849 656 m 540 347 q 529 319 540 331 q 501 308 518 308 l 425 308 q 397 319 408 308 q 386 347 386 331 l 386 425 q 397 451 386 440 q 425 463 408 463 l 501 463 q 529 451 518 463 q 540 425 540 440 l 540 347 m 849 39 q 838 11 849 22 q 810 0 826 0 l 115 0 q 89 11 100 0 q 78 39 78 22 l 78 115 q 89 143 78 132 q 115 154 100 154 l 232 154 l 232 269 q 243 297 232 286 q 269 308 254 308 l 347 308 q 375 297 364 308 q 386 269 386 286 l 386 154 l 810 154 q 838 143 826 154 q 849 115 849 132 l 849 39 z "},"{":{"ha":617,"x_min":78,"x_max":540,"o":"m 386 0 l 386 154 l 232 154 l 232 463 l 78 463 l 78 617 l 232 617 l 232 926 l 386 926 l 386 1081 l 540 1081 l 540 926 l 386 926 l 386 154 l 540 154 l 540 0 l 386 0 z "},"|":{"ha":926,"x_min":386,"x_max":540,"o":"m 540 -269 q 529 -297 540 -286 q 501 -308 518 -308 l 425 -308 q 397 -297 408 -308 q 386 -269 386 -286 l 386 1042 q 397 1069 386 1058 q 425 1081 408 1081 l 501 1081 q 529 1069 518 1081 q 540 1042 540 1058 l 540 -269 l 540 -269 z "},"}":{"ha":617,"x_min":78,"x_max":540,"o":"m 386 463 l 386 154 l 232 154 l 232 0 l 78 0 l 78 154 l 232 154 l 232 926 l 78 926 l 78 1081 l 232 1081 l 232 926 l 386 926 l 386 617 l 540 617 l 540 463 l 386 463 z "},"~":{"ha":926,"x_min":78,"x_max":849,"o":"m 849 501 q 838 474 849 486 q 810 463 826 463 l 733 463 q 706 474 717 463 q 694 501 694 486 l 694 579 q 706 606 694 594 q 733 617 717 617 l 810 617 q 838 606 826 617 q 849 579 849 594 l 849 501 m 386 656 q 375 628 386 640 q 347 617 364 617 l 269 617 q 243 628 254 617 q 232 656 232 640 l 232 733 q 243 760 232 749 q 269 772 254 772 l 347 772 q 375 760 364 772 q 386 733 386 749 l 386 656 m 694 347 q 683 319 694 331 q 656 308 672 308 l 579 308 q 551 319 563 308 q 540 347 540 331 l 540 425 q 551 451 540 440 q 579 463 563 463 l 656 463 q 683 451 672 463 q 694 425 694 440 l 694 347 m 540 501 q 529 474 540 486 q 501 463 518 463 l 425 463 q 397 474 408 463 q 386 501 386 486 l 386 579 q 397 606 386 594 q 425 617 408 617 l 501 617 q 529 606 518 617 q 540 579 540 594 l 540 501 m 232 501 q 220 474 232 486 q 193 463 208 463 l 115 463 q 89 474 100 463 q 78 501 78 486 l 78 579 q 89 606 78 594 q 115 617 100 617 l 193 617 q 220 606 208 617 q 232 579 232 594 l 232 501 z "},"Ä":{"ha":926,"x_min":78,"x_max":849,"o":"m 694 964 q 683 938 694 949 q 656 926 672 926 l 269 926 q 243 938 254 926 q 232 964 232 949 l 232 1042 q 243 1069 232 1058 q 269 1081 254 1081 l 656 1081 q 683 1069 672 1081 q 694 1042 694 1058 l 694 964 m 849 39 q 838 11 849 22 q 810 0 826 0 l 733 0 q 706 11 717 0 q 694 39 694 22 l 694 463 l 232 463 l 232 39 q 220 11 232 22 q 193 0 208 0 l 115 0 q 89 11 100 0 q 78 39 78 22 l 78 888 q 89 915 78 903 q 115 926 100 926 l 193 926 q 220 915 208 926 q 232 888 232 903 l 232 617 l 694 617 l 694 888 q 706 915 694 903 q 733 926 717 926 l 810 926 q 838 915 826 926 q 849 888 849 903 l 849 39 m 694 1274 q 683 1246 694 1257 q 656 1235 672 1235 l 579 1235 q 551 1246 563 1235 q 540 1274 540 1257 l 540 1350 q 551 1378 540 1367 q 579 1389 563 1389 l 656 1389 q 683 1378 672 1389 q 694 1350 694 1367 l 694 1274 m 386 1274 q 375 1246 386 1257 q 347 1235 364 1235 l 269 1235 q 243 1246 254 1235 q 232 1274 232 1257 l 232 1350 q 243 1378 232 1367 q 269 1389 254 1389 l 347 1389 q 375 1378 364 1389 q 386 1350 386 1367 l 386 1274 z "},"Å":{"ha":926,"x_min":78,"x_max":849,"o":"m 694 964 q 683 938 694 949 q 656 926 672 926 l 269 926 q 243 938 254 926 q 232 964 232 949 l 232 1042 q 243 1069 232 1058 q 269 1081 254 1081 l 656 1081 q 683 1069 672 1081 q 694 1042 694 1058 l 694 964 m 849 39 q 838 11 849 22 q 810 0 826 0 l 733 0 q 706 11 717 0 q 694 39 694 22 l 694 463 l 232 463 l 232 39 q 220 11 232 22 q 193 0 208 0 l 115 0 q 89 11 100 0 q 78 39 78 22 l 78 888 q 89 915 78 903 q 115 926 100 926 l 193 926 q 220 915 208 926 q 232 888 232 903 l 232 617 l 694 617 l 694 888 q 706 915 694 903 q 733 926 717 926 l 810 926 q 838 915 826 926 q 849 888 849 903 l 849 39 z "},"Ç":{"ha":926,"x_min":78,"x_max":849,"o":"m 849 810 q 838 783 849 794 q 810 772 826 772 l 733 772 q 706 783 717 772 q 694 810 694 794 l 694 888 q 706 915 694 903 q 733 926 717 926 l 810 926 q 838 915 826 926 q 849 888 849 903 l 849 810 m 694 964 q 683 938 694 949 q 656 926 672 926 l 269 926 q 243 938 254 926 q 232 964 232 949 l 232 1042 q 243 1069 232 1058 q 269 1081 254 1081 l 656 1081 q 683 1069 672 1081 q 694 1042 694 1058 l 694 964 m 849 193 q 838 165 849 176 q 810 154 826 154 l 733 154 q 706 165 717 154 q 694 193 694 176 l 694 269 q 706 297 694 286 q 733 308 717 308 l 810 308 q 838 297 826 308 q 849 269 849 286 l 849 193 m 232 193 q 220 165 232 176 q 193 154 208 154 l 115 154 q 89 165 100 154 q 78 193 78 176 l 78 888 q 89 915 78 903 q 115 926 100 926 l 193 926 q 220 915 208 926 q 232 888 232 903 l 232 193 m 694 39 q 683 11 694 22 q 656 0 672 0 l 540 0 l 540 -115 q 529 -143 540 -132 q 501 -154 518 -154 l 425 -154 q 397 -143 408 -154 q 386 -115 386 -132 l 386 0 l 269 0 q 243 11 254 0 q 232 39 232 22 l 232 115 q 243 143 232 132 q 269 154 254 154 l 656 154 q 683 143 672 154 q 694 115 694 132 l 694 39 m 386 -269 q 375 -297 386 -286 q 347 -308 364 -308 l 269 -308 q 243 -297 254 -308 q 232 -269 232 -286 l 232 -193 q 243 -165 232 -176 q 269 -154 254 -154 l 347 -154 q 375 -165 364 -154 q 386 -193 386 -176 l 386 -269 z "},"É":{"ha":926,"x_min":78,"x_max":849,"o":"m 694 1274 q 683 1246 694 1257 q 656 1235 672 1235 l 579 1235 q 551 1246 563 1235 q 540 1274 540 1257 l 540 1350 q 551 1378 540 1367 q 579 1389 563 1389 l 656 1389 q 683 1378 672 1389 q 694 1350 694 1367 l 694 1274 m 849 39 q 838 11 849 22 q 810 0 826 0 l 115 0 q 89 11 100 0 q 78 39 78 22 l 78 1042 q 89 1069 78 1058 q 115 1081 100 1081 l 386 1081 l 386 1196 q 397 1224 386 1213 q 425 1235 408 1235 l 501 1235 q 529 1224 518 1235 q 540 1196 540 1213 l 540 1081 l 810 1081 q 838 1069 826 1081 q 849 1042 849 1058 l 849 964 q 838 938 849 949 q 810 926 826 926 l 232 926 l 232 617 l 656 617 q 683 606 672 617 q 694 579 694 594 l 694 501 q 683 474 694 486 q 656 463 672 463 l 232 463 l 232 154 l 810 154 q 838 143 826 154 q 849 115 849 132 l 849 39 z "},"Ñ":{"ha":926,"x_min":78,"x_max":849,"o":"m 386 1274 q 374 1246 386 1257 q 347 1235 363 1235 l 269 1235 q 243 1246 254 1235 q 232 1274 232 1257 l 232 1350 q 243 1378 232 1367 q 269 1389 254 1389 l 347 1389 q 374 1378 363 1389 q 386 1350 386 1367 l 386 1274 m 540 1119 q 529 1092 540 1103 q 501 1081 518 1081 l 425 1081 q 397 1092 408 1081 q 386 1119 386 1103 l 386 1196 q 397 1224 386 1213 q 425 1235 408 1235 l 501 1235 q 529 1224 518 1235 q 540 1196 540 1213 l 540 1119 m 849 39 q 838 11 849 22 q 810 0 826 0 l 733 0 q 706 11 717 0 q 694 39 694 22 l 694 308 l 579 308 q 551 320 563 308 q 540 347 540 332 l 540 425 q 551 451 540 440 q 579 463 563 463 l 694 463 l 694 926 l 579 926 q 551 938 563 926 q 540 964 540 949 l 540 1042 q 551 1069 540 1057 q 579 1081 563 1081 l 694 1081 l 694 1196 q 706 1224 694 1213 q 733 1235 717 1235 l 810 1235 q 838 1224 826 1235 q 849 1196 849 1213 l 849 39 m 540 501 q 529 474 540 486 q 501 463 518 463 l 425 463 q 397 474 408 463 q 386 501 386 486 l 386 579 q 397 606 386 594 q 425 617 408 617 l 501 617 q 529 606 518 617 q 540 579 540 594 l 540 501 m 386 656 q 374 628 386 640 q 347 617 363 617 l 232 617 l 232 39 q 220 11 232 22 q 193 0 208 0 l 115 0 q 89 11 100 0 q 78 39 78 22 l 78 1196 q 89 1224 78 1213 q 115 1235 100 1235 l 193 1235 q 220 1224 208 1235 q 232 1196 232 1213 l 232 772 l 347 772 q 374 760 363 772 q 386 733 386 749 l 386 656 z "},"Ö":{"ha":926,"x_min":78,"x_max":849,"o":"m 694 964 q 683 938 694 949 q 656 926 672 926 l 269 926 q 243 938 254 926 q 232 964 232 949 l 232 1042 q 243 1069 232 1058 q 269 1081 254 1081 l 656 1081 q 683 1069 672 1081 q 694 1042 694 1058 l 694 964 m 849 193 q 838 165 849 176 q 810 154 826 154 l 733 154 q 706 165 717 154 q 694 193 694 176 l 694 888 q 706 915 694 903 q 733 926 717 926 l 810 926 q 838 915 826 926 q 849 888 849 903 l 849 193 m 232 193 q 220 165 232 176 q 193 154 208 154 l 115 154 q 89 165 100 154 q 78 193 78 176 l 78 888 q 89 915 78 903 q 115 926 100 926 l 193 926 q 220 915 208 926 q 232 888 232 903 l 232 193 m 694 39 q 683 11 694 22 q 656 0 672 0 l 269 0 q 243 11 254 0 q 232 39 232 22 l 232 115 q 243 143 232 132 q 269 154 254 154 l 656 154 q 683 143 672 154 q 694 115 694 132 l 694 39 m 694 1274 q 683 1246 694 1257 q 656 1235 672 1235 l 579 1235 q 551 1246 563 1235 q 540 1274 540 1257 l 540 1350 q 551 1378 540 1367 q 579 1389 563 1389 l 656 1389 q 683 1378 672 1389 q 694 1350 694 1367 l 694 1274 m 386 1274 q 375 1246 386 1257 q 347 1235 364 1235 l 269 1235 q 243 1246 254 1235 q 232 1274 232 1257 l 232 1350 q 243 1378 232 1367 q 269 1389 254 1389 l 347 1389 q 375 1378 364 1389 q 386 1350 386 1367 l 386 1274 z "},"Ü":{"ha":926,"x_min":78,"x_max":849,"o":"m 849 193 q 838 165 849 176 q 810 154 826 154 l 733 154 q 706 165 717 154 q 694 193 694 176 l 694 1042 q 706 1069 694 1058 q 733 1081 717 1081 l 810 1081 q 838 1069 826 1081 q 849 1042 849 1058 l 849 193 m 232 193 q 220 165 232 176 q 193 154 208 154 l 115 154 q 89 165 100 154 q 78 193 78 176 l 78 1042 q 89 1069 78 1058 q 115 1081 100 1081 l 193 1081 q 220 1069 208 1081 q 232 1042 232 1058 l 232 193 m 694 39 q 683 11 694 22 q 656 0 672 0 l 269 0 q 243 11 254 0 q 232 39 232 22 l 232 115 q 243 143 232 132 q 269 154 254 154 l 656 154 q 683 143 672 154 q 694 115 694 132 l 694 39 m 694 1274 q 683 1246 694 1257 q 656 1235 672 1235 l 579 1235 q 551 1246 563 1235 q 540 1274 540 1257 l 540 1350 q 551 1378 540 1367 q 579 1389 563 1389 l 656 1389 q 683 1378 672 1389 q 694 1350 694 1367 l 694 1274 m 386 1274 q 375 1246 386 1257 q 347 1235 364 1235 l 269 1235 q 243 1246 254 1235 q 232 1274 232 1257 l 232 1350 q 243 1378 232 1367 q 269 1389 254 1389 l 347 1389 q 375 1378 364 1389 q 386 1350 386 1367 l 386 1274 z "},"á":{"ha":926,"x_min":78,"x_max":849,"o":"m 694 964 q 683 938 694 949 q 656 926 672 926 l 579 926 q 551 938 563 926 q 540 964 540 949 l 540 1042 q 551 1069 540 1058 q 579 1081 563 1081 l 656 1081 q 683 1069 672 1081 q 694 1042 694 1058 l 694 964 m 694 656 q 683 628 694 640 q 656 617 672 617 l 269 617 q 243 628 254 617 q 232 656 232 640 l 232 733 q 243 760 232 749 q 269 772 254 772 l 386 772 l 386 888 q 397 915 386 903 q 425 926 408 926 l 501 926 q 529 915 518 926 q 540 888 540 903 l 540 772 l 656 772 q 683 760 672 772 q 694 733 694 749 l 694 656 m 849 39 q 838 11 849 22 q 810 0 826 0 l 269 0 q 243 11 254 0 q 232 39 232 22 l 232 115 q 243 143 232 132 q 269 154 254 154 l 694 154 l 694 308 l 269 308 q 243 319 254 308 q 232 347 232 331 l 232 425 q 243 451 232 440 q 269 463 254 463 l 694 463 l 694 579 q 706 606 694 594 q 733 617 717 617 l 810 617 q 838 606 826 617 q 849 579 849 594 l 849 39 m 232 193 q 220 165 232 176 q 193 154 208 154 l 115 154 q 89 165 100 154 q 78 193 78 176 l 78 269 q 89 297 78 286 q 115 308 100 308 l 193 308 q 220 297 208 308 q 232 269 232 286 l 232 193 z "},"à":{"ha":926,"x_min":78,"x_max":849,"o":"m 386 964 q 375 938 386 949 q 347 926 364 926 l 269 926 q 243 938 254 926 q 232 964 232 949 l 232 1042 q 243 1069 232 1058 q 269 1081 254 1081 l 347 1081 q 375 1069 364 1081 q 386 1042 386 1058 l 386 964 m 694 656 q 683 628 694 640 q 656 617 672 617 l 269 617 q 243 628 254 617 q 232 656 232 640 l 232 733 q 243 760 232 749 q 269 772 254 772 l 386 772 l 386 888 q 397 915 386 903 q 425 926 408 926 l 501 926 q 529 915 518 926 q 540 888 540 903 l 540 772 l 656 772 q 683 760 672 772 q 694 733 694 749 l 694 656 m 849 39 q 838 11 849 22 q 810 0 826 0 l 269 0 q 243 11 254 0 q 232 39 232 22 l 232 115 q 243 143 232 132 q 269 154 254 154 l 694 154 l 694 308 l 269 308 q 243 319 254 308 q 232 347 232 331 l 232 425 q 243 451 232 440 q 269 463 254 463 l 694 463 l 694 579 q 706 606 694 594 q 733 617 717 617 l 810 617 q 838 606 826 617 q 849 579 849 594 l 849 39 m 232 193 q 220 165 232 176 q 193 154 208 154 l 115 154 q 89 165 100 154 q 78 193 78 176 l 78 269 q 89 297 78 286 q 115 308 100 308 l 193 308 q 220 297 208 308 q 232 269 232 286 l 232 193 z "},"â":{"ha":926,"x_min":78,"x_max":849,"o":"m 540 964 q 529 938 540 949 q 501 926 518 926 l 425 926 q 397 938 408 926 q 386 964 386 949 l 386 1042 q 397 1069 386 1057 q 425 1081 408 1081 l 501 1081 q 529 1069 518 1081 q 540 1042 540 1057 l 540 964 m 694 656 q 683 628 694 640 q 656 617 672 617 l 269 617 q 243 628 254 617 q 232 656 232 640 l 232 888 q 243 915 232 903 q 269 926 254 926 l 347 926 q 374 915 363 926 q 386 888 386 903 l 386 772 l 540 772 l 540 888 q 551 915 540 903 q 579 926 563 926 l 656 926 q 683 915 672 926 q 694 888 694 903 l 694 656 m 849 39 q 838 11 849 22 q 810 0 826 0 l 269 0 q 243 11 254 0 q 232 39 232 22 l 232 115 q 243 143 232 132 q 269 154 254 154 l 694 154 l 694 308 l 269 308 q 243 320 254 308 q 232 347 232 332 l 232 425 q 243 451 232 440 q 269 463 254 463 l 694 463 l 694 579 q 706 606 694 594 q 733 617 717 617 l 810 617 q 838 606 826 617 q 849 579 849 594 l 849 39 m 232 193 q 220 165 232 176 q 193 154 208 154 l 115 154 q 89 165 100 154 q 78 193 78 176 l 78 269 q 89 297 78 286 q 115 308 100 308 l 193 308 q 220 297 208 308 q 232 269 232 286 l 232 193 z "},"ä":{"ha":926,"x_min":78,"x_max":849,"o":"m 694 656 q 683 628 694 640 q 656 617 672 617 l 269 617 q 243 628 254 617 q 232 656 232 640 l 232 733 q 243 760 232 749 q 269 772 254 772 l 656 772 q 683 760 672 772 q 694 733 694 749 l 694 656 m 849 39 q 838 11 849 22 q 810 0 826 0 l 269 0 q 243 11 254 0 q 232 39 232 22 l 232 115 q 243 143 232 132 q 269 154 254 154 l 694 154 l 694 308 l 269 308 q 243 319 254 308 q 232 347 232 331 l 232 425 q 243 451 232 440 q 269 463 254 463 l 694 463 l 694 579 q 706 606 694 594 q 733 617 717 617 l 810 617 q 838 606 826 617 q 849 579 849 594 l 849 39 m 232 193 q 220 165 232 176 q 193 154 208 154 l 115 154 q 89 165 100 154 q 78 193 78 176 l 78 269 q 89 297 78 286 q 115 308 100 308 l 193 308 q 220 297 208 308 q 232 269 232 286 l 232 193 m 694 964 q 683 938 694 949 q 656 926 672 926 l 579 926 q 551 938 563 926 q 540 964 540 949 l 540 1042 q 551 1069 540 1058 q 579 1081 563 1081 l 656 1081 q 683 1069 672 1081 q 694 1042 694 1058 l 694 964 m 386 964 q 375 938 386 949 q 347 926 364 926 l 269 926 q 243 938 254 926 q 232 964 232 949 l 232 1042 q 243 1069 232 1058 q 269 1081 254 1081 l 347 1081 q 375 1069 364 1081 q 386 1042 386 1058 l 386 964 z "},"ã":{"ha":926,"x_min":78,"x_max":849,"o":"m 849 810 q 838 783 849 794 q 810 772 826 772 l 733 772 q 706 783 717 772 q 694 810 694 794 l 694 888 q 706 915 694 903 q 733 926 717 926 l 810 926 q 838 915 826 926 q 849 888 849 903 l 849 810 m 386 964 q 375 938 386 949 q 347 926 364 926 l 269 926 q 243 938 254 926 q 232 964 232 949 l 232 1042 q 243 1069 232 1058 q 269 1081 254 1081 l 347 1081 q 375 1069 364 1081 q 386 1042 386 1058 l 386 964 m 694 656 q 683 628 694 640 q 656 617 672 617 l 269 617 q 243 628 254 617 q 232 656 232 640 l 232 733 q 243 760 232 749 q 269 772 254 772 l 386 772 l 386 888 q 397 915 386 903 q 425 926 408 926 l 501 926 q 529 915 518 926 q 540 888 540 903 l 540 772 l 656 772 q 683 760 672 772 q 694 733 694 749 l 694 656 m 232 810 q 220 783 232 794 q 193 772 208 772 l 115 772 q 89 783 100 772 q 78 810 78 794 l 78 888 q 89 915 78 903 q 115 926 100 926 l 193 926 q 220 915 208 926 q 232 888 232 903 l 232 810 m 849 39 q 838 11 849 22 q 810 0 826 0 l 269 0 q 243 11 254 0 q 232 39 232 22 l 232 115 q 243 143 232 132 q 269 154 254 154 l 694 154 l 694 308 l 269 308 q 243 319 254 308 q 232 347 232 331 l 232 425 q 243 451 232 440 q 269 463 254 463 l 694 463 l 694 579 q 706 606 694 594 q 733 617 717 617 l 810 617 q 838 606 826 617 q 849 579 849 594 l 849 39 m 232 193 q 220 165 232 176 q 193 154 208 154 l 115 154 q 89 165 100 154 q 78 193 78 176 l 78 269 q 89 297 78 286 q 115 308 100 308 l 193 308 q 220 297 208 308 q 232 269 232 286 l 232 193 z "},"å":{"ha":926,"x_min":78,"x_max":849,"o":"m 540 964 q 529 938 540 949 q 501 926 518 926 l 425 926 q 397 938 408 926 q 386 964 386 949 l 386 1042 q 397 1069 386 1057 q 425 1081 408 1081 l 501 1081 q 529 1069 518 1081 q 540 1042 540 1057 l 540 964 m 694 656 q 683 628 694 640 q 656 617 672 617 l 269 617 q 243 628 254 617 q 232 656 232 640 l 232 888 q 243 915 232 903 q 269 926 254 926 l 347 926 q 374 915 363 926 q 386 888 386 903 l 386 772 l 540 772 l 540 888 q 551 915 540 903 q 579 926 563 926 l 656 926 q 683 915 672 926 q 694 888 694 903 l 694 656 m 849 39 q 838 11 849 22 q 810 0 826 0 l 269 0 q 243 11 254 0 q 232 39 232 22 l 232 115 q 243 143 232 132 q 269 154 254 154 l 694 154 l 694 308 l 269 308 q 243 320 254 308 q 232 347 232 332 l 232 425 q 243 451 232 440 q 269 463 254 463 l 694 463 l 694 579 q 706 606 694 594 q 733 617 717 617 l 810 617 q 838 606 826 617 q 849 579 849 594 l 849 39 m 232 193 q 220 165 232 176 q 193 154 208 154 l 115 154 q 89 165 100 154 q 78 193 78 176 l 78 269 q 89 297 78 286 q 115 308 100 308 l 193 308 q 220 297 208 308 q 232 269 232 286 l 232 193 z "},"ç":{"ha":926,"x_min":78,"x_max":849,"o":"m 849 656 q 838 628 849 640 q 810 617 826 617 l 269 617 q 243 628 254 617 q 232 656 232 640 l 232 733 q 243 760 232 749 q 269 772 254 772 l 810 772 q 838 760 826 772 q 849 733 849 749 l 849 656 m 232 193 q 220 165 232 176 q 193 154 208 154 l 115 154 q 89 165 100 154 q 78 193 78 176 l 78 579 q 89 606 78 594 q 115 617 100 617 l 193 617 q 220 606 208 617 q 232 579 232 594 l 232 193 m 849 39 q 838 11 849 22 q 810 0 826 0 l 540 0 l 540 -115 q 529 -143 540 -132 q 501 -154 518 -154 l 425 -154 q 397 -143 408 -154 q 386 -115 386 -132 l 386 0 l 269 0 q 243 11 254 0 q 232 39 232 22 l 232 115 q 243 143 232 132 q 269 154 254 154 l 810 154 q 838 143 826 154 q 849 115 849 132 l 849 39 m 386 -269 q 375 -297 386 -286 q 347 -308 364 -308 l 269 -308 q 243 -297 254 -308 q 232 -269 232 -286 l 232 -193 q 243 -165 232 -176 q 269 -154 254 -154 l 347 -154 q 375 -165 364 -154 q 386 -193 386 -176 l 386 -269 z "},"é":{"ha":926,"x_min":78,"x_max":849,"o":"m 694 964 q 683 938 694 949 q 656 926 672 926 l 579 926 q 551 938 563 926 q 540 964 540 949 l 540 1042 q 551 1069 540 1058 q 579 1081 563 1081 l 656 1081 q 683 1069 672 1081 q 694 1042 694 1058 l 694 964 m 694 656 q 683 628 694 640 q 656 617 672 617 l 269 617 q 243 628 254 617 q 232 656 232 640 l 232 733 q 243 760 232 749 q 269 772 254 772 l 386 772 l 386 888 q 397 915 386 903 q 425 926 408 926 l 501 926 q 529 915 518 926 q 540 888 540 903 l 540 772 l 656 772 q 683 760 672 772 q 694 733 694 749 l 694 656 m 849 347 q 838 319 849 331 q 810 308 826 308 l 232 308 l 232 193 q 220 165 232 176 q 193 154 208 154 l 115 154 q 89 165 100 154 q 78 193 78 176 l 78 579 q 89 606 78 594 q 115 617 100 617 l 193 617 q 220 606 208 617 q 232 579 232 594 l 232 463 l 694 463 l 694 579 q 706 606 694 594 q 733 617 717 617 l 810 617 q 838 606 826 617 q 849 579 849 594 l 849 347 m 849 39 q 838 11 849 22 q 810 0 826 0 l 269 0 q 243 11 254 0 q 232 39 232 22 l 232 115 q 243 143 232 132 q 269 154 254 154 l 810 154 q 838 143 826 154 q 849 115 849 132 l 849 39 z "},"è":{"ha":926,"x_min":78,"x_max":849,"o":"m 386 964 q 375 938 386 949 q 347 926 364 926 l 269 926 q 243 938 254 926 q 232 964 232 949 l 232 1042 q 243 1069 232 1058 q 269 1081 254 1081 l 347 1081 q 375 1069 364 1081 q 386 1042 386 1058 l 386 964 m 694 656 q 683 628 694 640 q 656 617 672 617 l 269 617 q 243 628 254 617 q 232 656 232 640 l 232 733 q 243 760 232 749 q 269 772 254 772 l 386 772 l 386 888 q 397 915 386 903 q 425 926 408 926 l 501 926 q 529 915 518 926 q 540 888 540 903 l 540 772 l 656 772 q 683 760 672 772 q 694 733 694 749 l 694 656 m 849 347 q 838 319 849 331 q 810 308 826 308 l 232 308 l 232 193 q 220 165 232 176 q 193 154 208 154 l 115 154 q 89 165 100 154 q 78 193 78 176 l 78 579 q 89 606 78 594 q 115 617 100 617 l 193 617 q 220 606 208 617 q 232 579 232 594 l 232 463 l 694 463 l 694 579 q 706 606 694 594 q 733 617 717 617 l 810 617 q 838 606 826 617 q 849 579 849 594 l 849 347 m 849 39 q 838 11 849 22 q 810 0 826 0 l 269 0 q 243 11 254 0 q 232 39 232 22 l 232 115 q 243 143 232 132 q 269 154 254 154 l 810 154 q 838 143 826 154 q 849 115 849 132 l 849 39 z "},"ê":{"ha":926,"x_min":78,"x_max":849,"o":"m 540 964 q 529 938 540 949 q 501 926 518 926 l 425 926 q 397 938 408 926 q 386 964 386 949 l 386 1042 q 397 1069 386 1057 q 425 1081 408 1081 l 501 1081 q 529 1069 518 1081 q 540 1042 540 1057 l 540 964 m 694 656 q 683 628 694 640 q 656 617 672 617 l 269 617 q 243 628 254 617 q 232 656 232 640 l 232 888 q 243 915 232 903 q 269 926 254 926 l 347 926 q 374 915 363 926 q 386 888 386 903 l 386 772 l 540 772 l 540 888 q 551 915 540 903 q 579 926 563 926 l 656 926 q 683 915 672 926 q 694 888 694 903 l 694 656 m 849 347 q 838 320 849 332 q 810 308 826 308 l 232 308 l 232 193 q 220 165 232 176 q 193 154 208 154 l 115 154 q 89 165 100 154 q 78 193 78 176 l 78 579 q 89 606 78 594 q 115 617 100 617 l 193 617 q 220 606 208 617 q 232 579 232 594 l 232 463 l 694 463 l 694 579 q 706 606 694 594 q 733 617 717 617 l 810 617 q 838 606 826 617 q 849 579 849 594 l 849 347 m 849 39 q 838 11 849 22 q 810 0 826 0 l 269 0 q 243 11 254 0 q 232 39 232 22 l 232 115 q 243 143 232 132 q 269 154 254 154 l 810 154 q 838 143 826 154 q 849 115 849 132 l 849 39 z "},"ë":{"ha":926,"x_min":78,"x_max":849,"o":"m 694 656 q 683 628 694 640 q 656 617 672 617 l 269 617 q 243 628 254 617 q 232 656 232 640 l 232 733 q 243 760 232 749 q 269 772 254 772 l 656 772 q 683 760 672 772 q 694 733 694 749 l 694 656 m 849 347 q 838 319 849 331 q 810 308 826 308 l 232 308 l 232 193 q 220 165 232 176 q 193 154 208 154 l 115 154 q 89 165 100 154 q 78 193 78 176 l 78 579 q 89 606 78 594 q 115 617 100 617 l 193 617 q 220 606 208 617 q 232 579 232 594 l 232 463 l 694 463 l 694 579 q 706 606 694 594 q 733 617 717 617 l 810 617 q 838 606 826 617 q 849 579 849 594 l 849 347 m 849 39 q 838 11 849 22 q 810 0 826 0 l 269 0 q 243 11 254 0 q 232 39 232 22 l 232 115 q 243 143 232 132 q 269 154 254 154 l 810 154 q 838 143 826 154 q 849 115 849 132 l 849 39 m 694 964 q 683 938 694 949 q 656 926 672 926 l 579 926 q 551 938 563 926 q 540 964 540 949 l 540 1042 q 551 1069 540 1058 q 579 1081 563 1081 l 656 1081 q 683 1069 672 1081 q 694 1042 694 1058 l 694 964 m 386 964 q 375 938 386 949 q 347 926 364 926 l 269 926 q 243 938 254 926 q 232 964 232 949 l 232 1042 q 243 1069 232 1058 q 269 1081 254 1081 l 347 1081 q 375 1069 364 1081 q 386 1042 386 1058 l 386 964 z "},"í":{"ha":926,"x_min":78,"x_max":849,"o":"m 694 964 q 683 938 694 949 q 656 926 672 926 l 579 926 q 551 938 563 926 q 540 964 540 949 l 540 1042 q 551 1069 540 1057 q 579 1081 563 1081 l 656 1081 q 683 1069 672 1081 q 694 1042 694 1057 l 694 964 m 810 154 q 838 143 826 154 q 849 115 849 132 l 849 39 q 838 11 849 22 q 810 0 826 0 l 115 0 q 89 11 100 0 q 78 39 78 22 l 78 115 q 89 143 78 132 q 115 154 100 154 l 386 154 l 386 617 l 269 617 q 243 628 254 617 q 232 656 232 640 l 232 733 q 243 760 232 749 q 269 772 254 772 l 386 772 l 386 888 q 397 915 386 903 q 425 926 408 926 l 501 926 q 529 915 518 926 q 540 888 540 903 l 540 154 l 810 154 z "},"ì":{"ha":926,"x_min":78,"x_max":849,"o":"m 386 964 q 374 938 386 949 q 347 926 363 926 l 269 926 q 243 938 254 926 q 232 964 232 949 l 232 1042 q 243 1069 232 1057 q 269 1081 254 1081 l 347 1081 q 374 1069 363 1081 q 386 1042 386 1057 l 386 964 m 849 39 q 838 11 849 22 q 810 0 826 0 l 115 0 q 89 11 100 0 q 78 39 78 22 l 78 115 q 89 143 78 132 q 115 154 100 154 l 386 154 l 386 617 l 269 617 q 243 628 254 617 q 232 656 232 640 l 232 733 q 243 760 232 749 q 269 772 254 772 l 386 772 l 386 888 q 397 915 386 903 q 425 926 408 926 l 501 926 q 529 915 518 926 q 540 888 540 903 l 540 154 l 810 154 q 838 143 826 154 q 849 115 849 132 l 849 39 z "},"î":{"ha":926,"x_min":78,"x_max":849,"o":"m 540 964 q 529 938 540 949 q 501 926 518 926 l 425 926 q 397 938 408 926 q 386 964 386 949 l 386 1042 q 397 1069 386 1057 q 425 1081 408 1081 l 501 1081 q 529 1069 518 1081 q 540 1042 540 1057 l 540 964 m 694 810 q 683 783 694 794 q 656 772 672 772 l 579 772 q 551 783 563 772 q 540 810 540 794 l 540 888 q 551 915 540 903 q 579 926 563 926 l 656 926 q 683 915 672 926 q 694 888 694 903 l 694 810 m 849 39 q 838 11 849 22 q 810 0 826 0 l 115 0 q 89 11 100 0 q 78 39 78 22 l 78 115 q 89 143 78 132 q 115 154 100 154 l 386 154 l 386 617 l 269 617 q 243 628 254 617 q 232 656 232 640 l 232 888 q 243 915 232 903 q 269 926 254 926 l 347 926 q 374 915 363 926 q 386 888 386 903 l 386 772 l 501 772 q 529 760 518 772 q 540 733 540 749 l 540 154 l 810 154 q 838 143 826 154 q 849 115 849 132 l 849 39 z "},"ï":{"ha":926,"x_min":78,"x_max":849,"o":"m 849 39 q 838 11 849 22 q 810 0 826 0 l 115 0 q 89 11 100 0 q 78 39 78 22 l 78 115 q 89 143 78 132 q 115 154 100 154 l 386 154 l 386 617 l 269 617 q 243 628 254 617 q 232 656 232 640 l 232 733 q 243 760 232 749 q 269 772 254 772 l 501 772 q 529 760 518 772 q 540 733 540 749 l 540 154 l 810 154 q 838 143 826 154 q 849 115 849 132 l 849 39 m 694 964 q 683 938 694 949 q 656 926 672 926 l 579 926 q 551 938 563 926 q 540 964 540 949 l 540 1042 q 551 1069 540 1058 q 579 1081 563 1081 l 656 1081 q 683 1069 672 1081 q 694 1042 694 1058 l 694 964 m 386 964 q 375 938 386 949 q 347 926 364 926 l 269 926 q 243 938 254 926 q 232 964 232 949 l 232 1042 q 243 1069 232 1058 q 269 1081 254 1081 l 347 1081 q 375 1069 364 1081 q 386 1042 386 1058 l 386 964 z "},"ñ":{"ha":926,"x_min":78,"x_max":849,"o":"m 849 810 q 838 783 849 794 q 810 772 826 772 l 733 772 q 706 783 717 772 q 694 810 694 794 l 694 888 q 706 915 694 903 q 733 926 717 926 l 810 926 q 838 915 826 926 q 849 888 849 903 l 849 810 m 386 964 q 374 938 386 949 q 347 926 363 926 l 269 926 q 243 938 254 926 q 232 964 232 949 l 232 1042 q 243 1069 232 1057 q 269 1081 254 1081 l 347 1081 q 374 1069 363 1081 q 386 1042 386 1057 l 386 964 m 849 39 q 838 11 849 22 q 810 0 826 0 l 733 0 q 706 11 717 0 q 694 39 694 22 l 694 579 q 706 606 694 594 q 733 617 717 617 l 810 617 q 838 606 826 617 q 849 579 849 594 l 849 39 m 694 656 q 683 628 694 640 q 656 617 672 617 l 232 617 l 232 39 q 220 11 232 22 q 193 0 208 0 l 115 0 q 89 11 100 0 q 78 39 78 22 l 78 888 q 89 915 78 903 q 115 926 100 926 l 193 926 q 220 915 208 926 q 232 888 232 903 l 232 772 l 386 772 l 386 888 q 397 915 386 903 q 425 926 408 926 l 501 926 q 529 915 518 926 q 540 888 540 903 l 540 772 l 656 772 q 683 760 672 772 q 694 733 694 749 l 694 656 z "},"ó":{"ha":926,"x_min":78,"x_max":849,"o":"m 694 964 q 683 938 694 949 q 656 926 672 926 l 579 926 q 551 938 563 926 q 540 964 540 949 l 540 1042 q 551 1069 540 1058 q 579 1081 563 1081 l 656 1081 q 683 1069 672 1081 q 694 1042 694 1058 l 694 964 m 694 656 q 683 628 694 640 q 656 617 672 617 l 269 617 q 243 628 254 617 q 232 656 232 640 l 232 733 q 243 760 232 749 q 269 772 254 772 l 386 772 l 386 888 q 397 915 386 903 q 425 926 408 926 l 501 926 q 529 915 518 926 q 540 888 540 903 l 540 772 l 656 772 q 683 760 672 772 q 694 733 694 749 l 694 656 m 849 193 q 838 165 849 176 q 810 154 826 154 l 733 154 q 706 165 717 154 q 694 193 694 176 l 694 579 q 706 606 694 594 q 733 617 717 617 l 810 617 q 838 606 826 617 q 849 579 849 594 l 849 193 m 232 193 q 220 165 232 176 q 193 154 208 154 l 115 154 q 89 165 100 154 q 78 193 78 176 l 78 579 q 89 606 78 594 q 115 617 100 617 l 193 617 q 220 606 208 617 q 232 579 232 594 l 232 193 m 694 39 q 683 11 694 22 q 656 0 672 0 l 269 0 q 243 11 254 0 q 232 39 232 22 l 232 115 q 243 143 232 132 q 269 154 254 154 l 656 154 q 683 143 672 154 q 694 115 694 132 l 694 39 z "},"ò":{"ha":926,"x_min":78,"x_max":849,"o":"m 386 964 q 375 938 386 949 q 347 926 364 926 l 269 926 q 243 938 254 926 q 232 964 232 949 l 232 1042 q 243 1069 232 1058 q 269 1081 254 1081 l 347 1081 q 375 1069 364 1081 q 386 1042 386 1058 l 386 964 m 694 656 q 683 628 694 640 q 656 617 672 617 l 269 617 q 243 628 254 617 q 232 656 232 640 l 232 733 q 243 760 232 749 q 269 772 254 772 l 386 772 l 386 888 q 397 915 386 903 q 425 926 408 926 l 501 926 q 529 915 518 926 q 540 888 540 903 l 540 772 l 656 772 q 683 760 672 772 q 694 733 694 749 l 694 656 m 849 193 q 838 165 849 176 q 810 154 826 154 l 733 154 q 706 165 717 154 q 694 193 694 176 l 694 579 q 706 606 694 594 q 733 617 717 617 l 810 617 q 838 606 826 617 q 849 579 849 594 l 849 193 m 232 193 q 220 165 232 176 q 193 154 208 154 l 115 154 q 89 165 100 154 q 78 193 78 176 l 78 579 q 89 606 78 594 q 115 617 100 617 l 193 617 q 220 606 208 617 q 232 579 232 594 l 232 193 m 694 39 q 683 11 694 22 q 656 0 672 0 l 269 0 q 243 11 254 0 q 232 39 232 22 l 232 115 q 243 143 232 132 q 269 154 254 154 l 656 154 q 683 143 672 154 q 694 115 694 132 l 694 39 z "},"ô":{"ha":926,"x_min":78,"x_max":849,"o":"m 540 964 q 529 938 540 949 q 501 926 518 926 l 425 926 q 397 938 408 926 q 386 964 386 949 l 386 1042 q 397 1069 386 1057 q 425 1081 408 1081 l 501 1081 q 529 1069 518 1081 q 540 1042 540 1057 l 540 964 m 694 656 q 683 628 694 640 q 656 617 672 617 l 269 617 q 243 628 254 617 q 232 656 232 640 l 232 888 q 243 915 232 903 q 269 926 254 926 l 347 926 q 374 915 363 926 q 386 888 386 903 l 386 772 l 540 772 l 540 888 q 551 915 540 903 q 579 926 563 926 l 656 926 q 683 915 672 926 q 694 888 694 903 l 694 656 m 849 193 q 838 165 849 176 q 810 154 826 154 l 733 154 q 706 165 717 154 q 694 193 694 176 l 694 579 q 706 606 694 594 q 733 617 717 617 l 810 617 q 838 606 826 617 q 849 579 849 594 l 849 193 m 232 193 q 220 165 232 176 q 193 154 208 154 l 115 154 q 89 165 100 154 q 78 193 78 176 l 78 579 q 89 606 78 594 q 115 617 100 617 l 193 617 q 220 606 208 617 q 232 579 232 594 l 232 193 m 694 39 q 683 11 694 22 q 656 0 672 0 l 269 0 q 243 11 254 0 q 232 39 232 22 l 232 115 q 243 143 232 132 q 269 154 254 154 l 656 154 q 683 143 672 154 q 694 115 694 132 l 694 39 z "},"ö":{"ha":926,"x_min":78,"x_max":849,"o":"m 694 656 q 683 628 694 640 q 656 617 672 617 l 269 617 q 243 628 254 617 q 232 656 232 640 l 232 733 q 243 760 232 749 q 269 772 254 772 l 656 772 q 683 760 672 772 q 694 733 694 749 l 694 656 m 849 193 q 838 165 849 176 q 810 154 826 154 l 733 154 q 706 165 717 154 q 694 193 694 176 l 694 579 q 706 606 694 594 q 733 617 717 617 l 810 617 q 838 606 826 617 q 849 579 849 594 l 849 193 m 232 193 q 220 165 232 176 q 193 154 208 154 l 115 154 q 89 165 100 154 q 78 193 78 176 l 78 579 q 89 606 78 594 q 115 617 100 617 l 193 617 q 220 606 208 617 q 232 579 232 594 l 232 193 m 694 39 q 683 11 694 22 q 656 0 672 0 l 269 0 q 243 11 254 0 q 232 39 232 22 l 232 115 q 243 143 232 132 q 269 154 254 154 l 656 154 q 683 143 672 154 q 694 115 694 132 l 694 39 m 694 964 q 683 938 694 949 q 656 926 672 926 l 579 926 q 551 938 563 926 q 540 964 540 949 l 540 1042 q 551 1069 540 1058 q 579 1081 563 1081 l 656 1081 q 683 1069 672 1081 q 694 1042 694 1058 l 694 964 m 386 964 q 375 938 386 949 q 347 926 364 926 l 269 926 q 243 938 254 926 q 232 964 232 949 l 232 1042 q 243 1069 232 1058 q 269 1081 254 1081 l 347 1081 q 375 1069 364 1081 q 386 1042 386 1058 l 386 964 z "},"õ":{"ha":926,"x_min":78,"x_max":849,"o":"m 849 810 q 838 783 849 794 q 810 772 826 772 l 733 772 q 706 783 717 772 q 694 810 694 794 l 694 888 q 706 915 694 903 q 733 926 717 926 l 810 926 q 838 915 826 926 q 849 888 849 903 l 849 810 m 386 964 q 375 938 386 949 q 347 926 364 926 l 269 926 q 243 938 254 926 q 232 964 232 949 l 232 1042 q 243 1069 232 1058 q 269 1081 254 1081 l 347 1081 q 375 1069 364 1081 q 386 1042 386 1058 l 386 964 m 694 656 q 683 628 694 640 q 656 617 672 617 l 269 617 q 243 628 254 617 q 232 656 232 640 l 232 733 q 243 760 232 749 q 269 772 254 772 l 386 772 l 386 888 q 397 915 386 903 q 425 926 408 926 l 501 926 q 529 915 518 926 q 540 888 540 903 l 540 772 l 656 772 q 683 760 672 772 q 694 733 694 749 l 694 656 m 849 193 q 838 165 849 176 q 810 154 826 154 l 733 154 q 706 165 717 154 q 694 193 694 176 l 694 579 q 706 606 694 594 q 733 617 717 617 l 810 617 q 838 606 826 617 q 849 579 849 594 l 849 193 m 232 810 q 220 783 232 794 q 193 772 208 772 l 115 772 q 89 783 100 772 q 78 810 78 794 l 78 888 q 89 915 78 903 q 115 926 100 926 l 193 926 q 220 915 208 926 q 232 888 232 903 l 232 810 m 232 193 q 220 165 232 176 q 193 154 208 154 l 115 154 q 89 165 100 154 q 78 193 78 176 l 78 579 q 89 606 78 594 q 115 617 100 617 l 193 617 q 220 606 208 617 q 232 579 232 594 l 232 193 m 694 39 q 683 11 694 22 q 656 0 672 0 l 269 0 q 243 11 254 0 q 232 39 232 22 l 232 115 q 243 143 232 132 q 269 154 254 154 l 656 154 q 683 143 672 154 q 694 115 694 132 l 694 39 z "},"ú":{"ha":926,"x_min":78,"x_max":849,"o":"m 849 39 q 838 11 849 22 q 810 0 826 0 l 269 0 q 243 11 254 0 q 232 39 232 22 l 232 115 q 243 143 232 132 q 269 154 254 154 l 694 154 l 694 733 q 706 760 694 749 q 733 772 717 772 l 810 772 q 838 760 826 772 q 849 733 849 749 l 849 39 m 232 193 q 220 165 232 176 q 193 154 208 154 l 115 154 q 89 165 100 154 q 78 193 78 176 l 78 733 q 89 760 78 749 q 115 772 100 772 l 193 772 q 220 760 208 772 q 232 733 232 749 l 232 193 m 694 964 q 683 938 694 949 q 656 926 672 926 l 579 926 q 551 938 563 926 q 540 964 540 949 l 540 1042 q 551 1069 540 1058 q 579 1081 563 1081 l 656 1081 q 683 1069 672 1081 q 694 1042 694 1058 l 694 964 m 540 810 q 529 783 540 794 q 501 772 518 772 l 425 772 q 397 783 408 772 q 386 810 386 794 l 386 888 q 397 915 386 903 q 425 926 408 926 l 501 926 q 529 915 518 926 q 540 888 540 903 l 540 810 z "},"ù":{"ha":926,"x_min":78,"x_max":849,"o":"m 849 39 q 838 11 849 22 q 810 0 826 0 l 269 0 q 243 11 254 0 q 232 39 232 22 l 232 115 q 243 143 232 132 q 269 154 254 154 l 694 154 l 694 733 q 706 760 694 749 q 733 772 717 772 l 810 772 q 838 760 826 772 q 849 733 849 749 l 849 39 m 232 193 q 220 165 232 176 q 193 154 208 154 l 115 154 q 89 165 100 154 q 78 193 78 176 l 78 733 q 89 760 78 749 q 115 772 100 772 l 193 772 q 220 760 208 772 q 232 733 232 749 l 232 193 m 386 964 q 375 938 386 949 q 347 926 364 926 l 269 926 q 243 938 254 926 q 232 964 232 949 l 232 1042 q 243 1069 232 1058 q 269 1081 254 1081 l 347 1081 q 375 1069 364 1081 q 386 1042 386 1058 l 386 964 m 540 810 q 529 783 540 794 q 501 772 518 772 l 425 772 q 397 783 408 772 q 386 810 386 794 l 386 888 q 397 915 386 903 q 425 926 408 926 l 501 926 q 529 915 518 926 q 540 888 540 903 l 540 810 z "},"û":{"ha":926,"x_min":78,"x_max":849,"o":"m 849 39 q 838 11 849 22 q 810 0 826 0 l 269 0 q 243 11 254 0 q 232 39 232 22 l 232 115 q 243 143 232 132 q 269 154 254 154 l 694 154 l 694 733 q 706 760 694 749 q 733 772 717 772 l 810 772 q 838 760 826 772 q 849 733 849 749 l 849 39 m 232 193 q 220 165 232 176 q 193 154 208 154 l 115 154 q 89 165 100 154 q 78 193 78 176 l 78 733 q 89 760 78 749 q 115 772 100 772 l 193 772 q 220 760 208 772 q 232 733 232 749 l 232 193 m 540 964 q 529 938 540 949 q 501 926 518 926 l 425 926 q 397 938 408 926 q 386 964 386 949 l 386 1042 q 397 1069 386 1058 q 425 1081 408 1081 l 501 1081 q 529 1069 518 1081 q 540 1042 540 1058 l 540 964 m 694 810 q 683 783 694 794 q 656 772 672 772 l 579 772 q 551 783 563 772 q 540 810 540 794 l 540 888 q 551 915 540 903 q 579 926 563 926 l 656 926 q 683 915 672 926 q 694 888 694 903 l 694 810 m 386 810 q 375 783 386 794 q 347 772 364 772 l 269 772 q 243 783 254 772 q 232 810 232 794 l 232 888 q 243 915 232 903 q 269 926 254 926 l 347 926 q 375 915 364 926 q 386 888 386 903 l 386 810 z "},"ü":{"ha":926,"x_min":78,"x_max":849,"o":"m 849 39 q 838 11 849 22 q 810 0 826 0 l 269 0 q 243 11 254 0 q 232 39 232 22 l 232 115 q 243 143 232 132 q 269 154 254 154 l 694 154 l 694 733 q 706 760 694 749 q 733 772 717 772 l 810 772 q 838 760 826 772 q 849 733 849 749 l 849 39 m 232 193 q 220 165 232 176 q 193 154 208 154 l 115 154 q 89 165 100 154 q 78 193 78 176 l 78 733 q 89 760 78 749 q 115 772 100 772 l 193 772 q 220 760 208 772 q 232 733 232 749 l 232 193 m 694 964 q 683 938 694 949 q 656 926 672 926 l 579 926 q 551 938 563 926 q 540 964 540 949 l 540 1042 q 551 1069 540 1058 q 579 1081 563 1081 l 656 1081 q 683 1069 672 1081 q 694 1042 694 1058 l 694 964 m 386 964 q 375 938 386 949 q 347 926 364 926 l 269 926 q 243 938 254 926 q 232 964 232 949 l 232 1042 q 243 1069 232 1058 q 269 1081 254 1081 l 347 1081 q 375 1069 364 1081 q 386 1042 386 1058 l 386 964 z "},"†":{"ha":926,"x_min":78,"x_max":849,"o":"m 849 654 q 838 628 849 639 q 810 617 826 617 l 540 617 l 540 -269 q 529 -297 540 -286 q 501 -308 518 -308 l 425 -308 q 397 -297 408 -308 q 386 -269 386 -286 l 386 617 l 115 617 q 89 628 100 617 q 78 654 78 639 l 78 732 q 89 759 78 747 q 115 771 100 771 l 386 771 l 386 1040 q 397 1068 386 1057 q 425 1079 408 1079 l 501 1079 q 529 1068 518 1079 q 540 1040 540 1057 l 540 771 l 810 771 q 838 759 826 771 q 849 732 849 747 l 849 654 l 849 654 z "},"°":{"ha":926,"x_min":78,"x_max":849,"o":"m 849 656 q 838 628 849 640 q 810 617 826 617 l 733 617 q 706 628 717 617 q 694 656 694 640 l 694 888 q 706 915 694 903 q 733 926 717 926 l 810 926 q 838 915 826 926 q 849 888 849 903 l 849 656 m 694 964 q 683 938 694 949 q 656 926 672 926 l 269 926 q 243 938 254 926 q 232 964 232 949 l 232 1042 q 243 1069 232 1058 q 269 1081 254 1081 l 656 1081 q 683 1069 672 1081 q 694 1042 694 1058 l 694 964 m 849 193 q 838 165 849 176 q 810 154 826 154 l 733 154 q 706 165 717 154 q 694 193 694 176 l 694 425 q 706 451 694 440 q 733 463 717 463 l 810 463 q 838 451 826 463 q 849 425 849 440 l 849 193 m 694 501 q 683 474 694 486 q 656 463 672 463 l 269 463 q 243 474 254 463 q 232 501 232 486 l 232 579 q 243 606 232 594 q 269 617 254 617 l 656 617 q 683 606 672 617 q 694 579 694 594 l 694 501 m 232 656 q 220 628 232 640 q 193 617 208 617 l 115 617 q 89 628 100 617 q 78 656 78 640 l 78 888 q 89 915 78 903 q 115 926 100 926 l 193 926 q 220 915 208 926 q 232 888 232 903 l 232 656 m 694 39 q 683 11 694 22 q 656 0 672 0 l 269 0 q 243 11 254 0 q 232 39 232 22 l 232 115 q 243 143 232 132 q 269 154 254 154 l 656 154 q 683 143 672 154 q 694 115 694 132 l 694 39 m 232 193 q 220 165 232 176 q 193 154 208 154 l 115 154 q 89 165 100 154 q 78 193 78 176 l 78 425 q 89 451 78 440 q 115 463 100 463 l 193 463 q 220 451 208 463 q 232 425 232 440 l 232 193 z "},"¢":{"ha":926,"x_min":78,"x_max":849,"o":"m 849 193 q 838 165 849 176 q 810 154 826 154 l 694 154 l 694 39 q 683 11 694 22 q 656 0 672 0 l 579 0 q 551 11 563 0 q 540 39 540 22 l 540 154 l 269 154 q 243 165 254 154 q 232 193 232 176 l 232 269 q 243 297 232 286 q 269 308 254 308 l 540 308 l 540 772 l 269 772 q 243 783 254 772 q 232 810 232 794 l 232 888 q 243 915 232 903 q 269 926 254 926 l 540 926 l 540 1042 q 551 1069 540 1058 q 579 1081 563 1081 l 656 1081 q 683 1069 672 1081 q 694 1042 694 1058 l 694 926 l 810 926 q 838 915 826 926 q 849 888 849 903 l 849 810 q 838 783 849 794 q 810 772 826 772 l 694 772 l 694 308 l 810 308 q 838 297 826 308 q 849 269 849 286 l 849 193 m 232 347 q 220 319 232 331 q 193 308 208 308 l 115 308 q 89 319 100 308 q 78 347 78 331 l 78 733 q 89 760 78 749 q 115 772 100 772 l 193 772 q 220 760 208 772 q 232 733 232 749 l 232 347 z "},"£":{"ha":772,"x_min":78,"x_max":694,"o":"m 78 0 l 78 154 l 232 154 l 232 463 l 78 463 l 78 617 l 232 617 l 232 926 l 386 926 l 386 1081 l 694 1081 l 694 926 l 386 926 l 386 617 l 540 617 l 540 463 l 386 463 l 386 154 l 694 154 l 694 0 l 78 0 z "},"§":{"ha":926,"x_min":78,"x_max":849,"o":"m 849 39 q 838 11 849 22 q 810 0 826 0 l 425 0 q 397 11 408 0 q 386 39 386 22 l 386 115 q 397 143 386 132 q 425 154 408 154 l 540 154 l 540 926 l 269 926 q 243 938 254 926 q 232 964 232 949 l 232 1042 q 243 1069 232 1057 q 269 1081 254 1081 l 656 1081 q 683 1069 672 1081 q 694 1042 694 1057 l 694 154 l 810 154 q 838 143 826 154 q 849 115 849 132 l 849 39 m 386 656 q 374 628 386 640 q 347 617 363 617 l 232 617 l 232 39 q 220 11 232 22 q 193 0 208 0 l 115 0 q 89 11 100 0 q 78 39 78 22 l 78 888 q 89 915 78 903 q 115 926 100 926 l 193 926 q 220 915 208 926 q 232 888 232 903 l 232 772 l 347 772 q 374 760 363 772 q 386 733 386 749 l 386 656 z "},"•":{"ha":926,"x_min":463,"x_max":772,"o":"m 772 501 q 760 474 772 486 q 733 463 749 463 l 501 463 q 474 474 486 463 q 463 501 463 486 l 463 733 q 474 760 463 749 q 501 772 486 772 l 733 772 q 760 760 749 772 q 772 733 772 749 l 772 501 l 772 501 z "},"¶":{"ha":926,"x_min":78,"x_max":849,"o":"m 849 964 q 838 938 849 949 q 810 926 826 926 l 694 926 l 694 -115 q 683 -143 694 -132 q 656 -154 672 -154 l 579 -154 q 551 -143 563 -154 q 540 -115 540 -132 l 540 463 l 269 463 q 243 474 254 463 q 232 501 232 486 l 232 617 l 115 617 q 89 628 100 617 q 78 656 78 640 l 78 888 q 89 915 78 903 q 115 926 100 926 l 232 926 l 232 1042 q 243 1069 232 1057 q 269 1081 254 1081 l 810 1081 q 838 1069 826 1081 q 849 1042 849 1057 l 849 964 m 540 -269 q 529 -297 540 -286 q 501 -308 518 -308 l 425 -308 q 397 -297 408 -308 q 386 -269 386 -286 l 386 -193 q 397 -165 386 -176 q 425 -154 408 -154 l 501 -154 q 529 -165 518 -154 q 540 -193 540 -176 l 540 -269 z "},"ß":{"ha":926,"x_min":78,"x_max":849,"o":"m 694 810 q 683 783 694 794 q 656 772 672 772 l 579 772 q 551 783 563 772 q 540 810 540 794 l 540 888 q 551 915 540 903 q 579 926 563 926 l 656 926 q 683 915 672 926 q 694 888 694 903 l 694 810 m 540 964 q 529 938 540 949 q 501 926 518 926 l 269 926 q 243 938 254 926 q 232 964 232 949 l 232 1042 q 243 1069 232 1057 q 269 1081 254 1081 l 501 1081 q 529 1069 518 1081 q 540 1042 540 1057 l 540 964 m 694 501 q 683 474 694 486 q 656 463 672 463 l 425 463 q 397 474 408 463 q 386 501 386 486 l 386 733 q 397 760 386 749 q 425 772 408 772 l 501 772 q 529 760 518 772 q 540 733 540 749 l 540 617 l 656 617 q 683 606 672 617 q 694 579 694 594 l 694 501 m 849 193 q 838 165 849 176 q 810 154 826 154 l 733 154 q 706 165 717 154 q 694 193 694 176 l 694 425 q 706 451 694 440 q 733 463 717 463 l 810 463 q 838 451 826 463 q 849 425 849 440 l 849 193 m 232 39 q 220 11 232 22 q 193 0 208 0 l 115 0 q 89 11 100 0 q 78 39 78 22 l 78 888 q 89 915 78 903 q 115 926 100 926 l 193 926 q 220 915 208 926 q 232 888 232 903 l 232 39 m 694 39 q 683 11 694 22 q 656 0 672 0 l 425 0 q 397 11 408 0 q 386 39 386 22 l 386 115 q 397 143 386 132 q 425 154 408 154 l 656 154 q 683 143 672 154 q 694 115 694 132 l 694 39 z "},"®":{"ha":926,"x_min":78,"x_max":849,"o":"m 849 964 q 838 938 849 949 q 810 926 826 926 l 115 926 q 89 938 100 926 q 78 964 78 949 l 78 1042 q 89 1069 78 1058 q 115 1081 100 1081 l 810 1081 q 838 1069 826 1081 q 849 1042 849 1058 l 849 964 m 849 501 q 838 474 849 486 q 810 463 826 463 l 733 463 q 706 474 717 463 q 694 501 694 486 l 694 579 q 706 606 694 594 q 733 617 717 617 l 810 617 q 838 606 826 617 q 849 579 849 594 l 849 501 m 849 39 q 838 11 849 22 q 810 0 826 0 l 733 0 q 706 11 717 0 q 694 39 694 22 l 694 115 q 706 143 694 132 q 733 154 717 154 l 810 154 q 838 143 826 154 q 849 115 849 132 l 849 39 m 694 193 q 683 165 694 176 q 656 154 672 154 l 579 154 q 551 165 563 154 q 540 193 540 176 l 540 308 l 232 308 l 232 39 q 220 11 232 22 q 193 0 208 0 l 115 0 q 89 11 100 0 q 78 39 78 22 l 78 733 q 89 760 78 749 q 115 772 100 772 l 656 772 q 683 760 672 772 q 694 733 694 749 l 694 656 q 683 628 694 640 q 656 617 672 617 l 232 617 l 232 463 l 656 463 q 683 451 672 463 q 694 425 694 440 l 694 193 m 849 -269 q 838 -297 849 -286 q 810 -308 826 -308 l 115 -308 q 89 -297 100 -308 q 78 -269 78 -286 l 78 -193 q 89 -165 78 -176 q 115 -154 100 -154 l 810 -154 q 838 -165 826 -154 q 849 -193 849 -176 l 849 -269 z "},"©":{"ha":926,"x_min":78,"x_max":849,"o":"m 849 656 q 838 628 849 640 q 810 617 826 617 l 269 617 q 243 628 254 617 q 232 656 232 640 l 232 733 q 243 760 232 749 q 269 772 254 772 l 810 772 q 838 760 826 772 q 849 733 849 749 l 849 656 m 849 39 q 838 11 849 22 q 810 0 826 0 l 269 0 q 243 11 254 0 q 232 39 232 22 l 232 115 q 243 143 232 132 q 269 154 254 154 l 810 154 q 838 143 826 154 q 849 115 849 132 l 849 39 m 232 193 q 220 165 232 176 q 193 154 208 154 l 115 154 q 89 165 100 154 q 78 193 78 176 l 78 579 q 89 606 78 594 q 115 617 100 617 l 193 617 q 220 606 208 617 q 232 579 232 594 l 232 193 m 849 964 q 838 938 849 949 q 810 926 826 926 l 115 926 q 89 938 100 926 q 78 964 78 949 l 78 1042 q 89 1069 78 1058 q 115 1081 100 1081 l 810 1081 q 838 1069 826 1081 q 849 1042 849 1058 l 849 964 m 849 -269 q 838 -297 849 -286 q 810 -308 826 -308 l 115 -308 q 89 -297 100 -308 q 78 -269 78 -286 l 78 -193 q 89 -165 78 -176 q 115 -154 100 -154 l 810 -154 q 838 -165 826 -154 q 849 -193 849 -176 l 849 -269 z "},"™":{"ha":926,"x_min":78,"x_max":849,"o":"m 849 964 q 838 938 849 949 q 810 926 826 926 l 540 926 l 540 501 q 529 474 540 486 q 501 463 518 463 l 425 463 q 397 474 408 463 q 386 501 386 486 l 386 926 l 115 926 q 89 938 100 926 q 78 964 78 949 l 78 1042 q 89 1069 78 1058 q 115 1081 100 1081 l 810 1081 q 838 1069 826 1081 q 849 1042 849 1058 l 849 964 m 849 39 q 838 11 849 22 q 810 0 826 0 l 733 0 q 706 11 717 0 q 694 39 694 22 l 694 308 l 579 308 q 551 319 563 308 q 540 347 540 331 l 540 425 q 551 451 540 440 q 579 463 563 463 l 694 463 l 694 579 q 706 606 694 594 q 733 617 717 617 l 810 617 q 838 606 826 617 q 849 579 849 594 l 849 39 m 540 193 q 529 165 540 176 q 501 154 518 154 l 425 154 q 397 165 408 154 q 386 193 386 176 l 386 269 q 397 297 386 286 q 425 308 408 308 l 501 308 q 529 297 518 308 q 540 269 540 286 l 540 193 m 386 347 q 375 319 386 331 q 347 308 364 308 l 232 308 l 232 39 q 220 11 232 22 q 193 0 208 0 l 115 0 q 89 11 100 0 q 78 39 78 22 l 78 579 q 89 606 78 594 q 115 617 100 617 l 193 617 q 220 606 208 617 q 232 579 232 594 l 232 463 l 347 463 q 375 451 364 463 q 386 425 386 440 l 386 347 z "},"´":{"ha":926,"x_min":386,"x_max":694,"o":"m 694 964 q 683 938 694 949 q 656 926 672 926 l 579 926 q 551 938 563 926 q 540 964 540 949 l 540 1042 q 551 1069 540 1058 q 579 1081 563 1081 l 656 1081 q 683 1069 672 1081 q 694 1042 694 1058 l 694 964 m 540 810 q 529 783 540 794 q 501 772 518 772 l 425 772 q 397 783 408 772 q 386 810 386 794 l 386 888 q 397 915 386 903 q 425 926 408 926 l 501 926 q 529 915 518 926 q 540 888 540 903 l 540 810 z "},"¨":{"ha":926,"x_min":232,"x_max":694,"o":"m 694 964 q 683 938 694 949 q 656 926 672 926 l 579 926 q 551 938 563 926 q 540 964 540 949 l 540 1042 q 551 1069 540 1058 q 579 1081 563 1081 l 656 1081 q 683 1069 672 1081 q 694 1042 694 1058 l 694 964 m 386 964 q 375 938 386 949 q 347 926 364 926 l 269 926 q 243 938 254 926 q 232 964 232 949 l 232 1042 q 243 1069 232 1058 q 269 1081 254 1081 l 347 1081 q 375 1069 364 1081 q 386 1042 386 1058 l 386 964 z "},"≠":{"ha":926,"x_min":78,"x_max":849,"o":"m 849 193 q 838 165 849 176 q 810 154 826 154 l 232 154 l 232 39 q 220 11 232 22 q 193 0 208 0 l 115 0 q 89 11 100 0 q 78 39 78 22 l 78 269 q 89 297 78 286 q 115 308 100 308 l 386 308 l 386 463 l 115 463 q 89 474 100 463 q 78 501 78 486 l 78 579 q 89 606 78 594 q 115 617 100 617 l 694 617 l 694 733 q 706 760 694 749 q 733 772 717 772 l 810 772 q 838 760 826 772 q 849 733 849 749 l 849 501 q 838 474 849 486 q 810 463 826 463 l 540 463 l 540 308 l 810 308 q 838 297 826 308 q 849 269 849 286 l 849 193 l 849 193 z "},"Æ":{"ha":926,"x_min":78,"x_max":849,"o":"m 849 39 q 838 11 849 22 q 810 0 826 0 l 425 0 q 397 11 408 0 q 386 39 386 22 l 386 463 l 232 463 l 232 39 q 220 11 232 22 q 193 0 208 0 l 115 0 q 89 11 100 0 q 78 39 78 22 l 78 888 q 89 915 78 903 q 115 926 100 926 l 193 926 q 220 915 208 926 q 232 888 232 903 l 232 617 l 386 617 l 386 926 l 269 926 q 243 938 254 926 q 232 964 232 949 l 232 1042 q 243 1069 232 1057 q 269 1081 254 1081 l 810 1081 q 838 1069 826 1081 q 849 1042 849 1057 l 849 964 q 838 938 849 949 q 810 926 826 926 l 540 926 l 540 617 l 656 617 q 683 606 672 617 q 694 579 694 594 l 694 501 q 683 474 694 486 q 656 463 672 463 l 540 463 l 540 154 l 810 154 q 838 143 826 154 q 849 115 849 132 l 849 39 l 849 39 z "},"Ø":{"ha":926,"x_min":78,"x_max":849,"o":"m 694 964 q 683 938 694 949 q 656 926 672 926 l 269 926 q 243 938 254 926 q 232 964 232 949 l 232 1042 q 243 1069 232 1058 q 269 1081 254 1081 l 656 1081 q 683 1069 672 1081 q 694 1042 694 1058 l 694 964 m 849 193 q 838 165 849 176 q 810 154 826 154 l 733 154 q 706 165 717 154 q 694 193 694 176 l 694 617 l 579 617 q 551 628 563 617 q 540 656 540 640 l 540 733 q 551 760 540 749 q 579 772 563 772 l 694 772 l 694 888 q 706 915 694 903 q 733 926 717 926 l 810 926 q 838 915 826 926 q 849 888 849 903 l 849 193 m 540 501 q 529 474 540 486 q 501 463 518 463 l 425 463 q 397 474 408 463 q 386 501 386 486 l 386 579 q 397 606 386 594 q 425 617 408 617 l 501 617 q 529 606 518 617 q 540 579 540 594 l 540 501 m 386 347 q 375 319 386 331 q 347 308 364 308 l 232 308 l 232 193 q 220 165 232 176 q 193 154 208 154 l 115 154 q 89 165 100 154 q 78 193 78 176 l 78 888 q 89 915 78 903 q 115 926 100 926 l 193 926 q 220 915 208 926 q 232 888 232 903 l 232 463 l 347 463 q 375 451 364 463 q 386 425 386 440 l 386 347 m 694 39 q 683 11 694 22 q 656 0 672 0 l 269 0 q 243 11 254 0 q 232 39 232 22 l 232 115 q 243 143 232 132 q 269 154 254 154 l 656 154 q 683 143 672 154 q 694 115 694 132 l 694 39 z "},"∞":{"ha":926,"x_min":78,"x_max":849,"o":"m 540 964 q 529 938 540 949 q 501 926 518 926 l 269 926 q 243 938 254 926 q 232 964 232 949 l 232 1042 q 243 1069 232 1057 q 269 1081 254 1081 l 501 1081 q 529 1069 518 1081 q 540 1042 540 1057 l 540 964 m 849 39 q 838 11 849 22 q 810 0 826 0 l 425 0 q 397 11 408 0 q 386 39 386 22 l 386 115 q 397 143 386 132 q 425 154 408 154 l 540 154 l 540 617 l 232 617 l 232 39 q 220 11 232 22 q 193 0 208 0 l 115 0 q 89 11 100 0 q 78 39 78 22 l 78 888 q 89 915 78 903 q 115 926 100 926 l 193 926 q 220 915 208 926 q 232 888 232 903 l 232 772 l 501 772 l 656 772 q 683 760 672 772 q 694 733 694 749 l 694 154 l 810 154 q 838 143 826 154 q 849 115 849 132 l 849 39 z "},"±":{"ha":926,"x_min":78,"x_max":849,"o":"m 849 656 q 838 628 849 640 q 810 617 826 617 l 540 617 l 540 347 q 529 319 540 331 q 501 308 518 308 l 425 308 q 397 319 408 308 q 386 347 386 331 l 386 617 l 115 617 q 89 628 100 617 q 78 656 78 640 l 78 733 q 89 760 78 749 q 115 772 100 772 l 386 772 l 386 1042 q 397 1069 386 1058 q 425 1081 408 1081 l 501 1081 q 529 1069 518 1081 q 540 1042 540 1058 l 540 772 l 810 772 q 838 760 826 772 q 849 733 849 749 l 849 656 m 849 39 q 838 11 849 22 q 810 0 826 0 l 115 0 q 89 11 100 0 q 78 39 78 22 l 78 115 q 89 143 78 132 q 115 154 100 154 l 810 154 q 838 143 826 154 q 849 115 849 132 l 849 39 z "},"¥":{"ha":926,"x_min":78,"x_max":849,"o":"m 849 810 q 838 783 849 794 q 810 772 826 772 l 733 772 q 706 783 717 772 q 694 810 694 794 l 694 1042 q 706 1069 694 1058 q 733 1081 717 1081 l 810 1081 q 838 1069 826 1081 q 849 1042 849 1058 l 849 810 m 232 810 q 220 783 232 794 q 193 772 208 772 l 115 772 q 89 783 100 772 q 78 810 78 794 l 78 1042 q 89 1069 78 1058 q 115 1081 100 1081 l 193 1081 q 220 1069 208 1081 q 232 1042 232 1058 l 232 810 m 849 193 q 838 165 849 176 q 810 154 826 154 l 540 154 l 540 39 q 529 11 540 22 q 501 0 518 0 l 425 0 q 397 11 408 0 q 386 39 386 22 l 386 154 l 115 154 q 89 165 100 154 q 78 193 78 176 l 78 269 q 89 297 78 286 q 115 308 100 308 l 386 308 l 386 463 l 115 463 q 89 474 100 463 q 78 501 78 486 l 78 579 q 89 606 78 594 q 115 617 100 617 l 232 617 l 232 733 q 243 760 232 749 q 269 772 254 772 l 347 772 q 375 760 364 772 q 386 733 386 749 l 386 617 l 540 617 l 540 733 q 551 760 540 749 q 579 772 563 772 l 656 772 q 683 760 672 772 q 694 733 694 749 l 694 617 l 810 617 q 838 606 826 617 q 849 579 849 594 l 849 501 q 838 474 849 486 q 810 463 826 463 l 540 463 l 540 308 l 810 308 q 838 297 826 308 q 849 269 849 286 l 849 193 z "},"µ":{"ha":926,"x_min":78,"x_max":849,"o":"m 694 193 q 683 165 694 176 q 656 154 672 154 l 579 154 q 551 165 563 154 q 540 193 540 176 l 540 733 q 551 760 540 749 q 579 772 563 772 l 656 772 q 683 760 672 772 q 694 733 694 749 l 694 193 m 849 39 q 838 11 849 22 q 810 0 826 0 l 733 0 q 706 11 717 0 q 694 39 694 22 l 694 115 q 706 143 694 132 q 733 154 717 154 l 810 154 q 838 143 826 154 q 849 115 849 132 l 849 39 m 540 39 q 529 11 540 22 q 501 0 518 0 l 232 0 l 232 -269 q 220 -297 232 -286 q 193 -308 208 -308 l 115 -308 q 89 -297 100 -308 q 78 -269 78 -286 l 78 733 q 89 760 78 749 q 115 772 100 772 l 193 772 q 220 760 208 772 q 232 733 232 749 l 232 154 l 501 154 q 529 143 518 154 q 540 115 540 132 l 540 39 z "},"∂":{"ha":926,"x_min":78,"x_max":849,"o":"m 232 964 q 220 938 232 949 q 193 926 208 926 l 115 926 q 89 938 100 926 q 78 964 78 949 l 78 1042 q 89 1069 78 1058 q 115 1081 100 1081 l 193 1081 q 220 1069 208 1081 q 232 1042 232 1058 l 232 964 m 386 810 q 375 783 386 794 q 347 772 364 772 l 269 772 q 243 783 254 772 q 232 810 232 794 l 232 888 q 243 915 232 903 q 269 926 254 926 l 347 926 q 375 915 364 926 q 386 888 386 903 l 386 810 m 694 501 q 683 474 694 486 q 656 463 672 463 l 269 463 q 243 474 254 463 q 232 501 232 486 l 232 579 q 243 606 232 594 q 269 617 254 617 l 386 617 l 386 733 q 397 760 386 749 q 425 772 408 772 l 501 772 q 529 760 518 772 q 540 733 540 749 l 540 617 l 656 617 q 683 606 672 617 q 694 579 694 594 l 694 501 m 849 193 q 838 165 849 176 q 810 154 826 154 l 733 154 q 706 165 717 154 q 694 193 694 176 l 694 425 q 706 451 694 440 q 733 463 717 463 l 810 463 q 838 451 826 463 q 849 425 849 440 l 849 193 m 694 39 q 683 11 694 22 q 656 0 672 0 l 269 0 q 243 11 254 0 q 232 39 232 22 l 232 115 q 243 143 232 132 q 269 154 254 154 l 656 154 q 683 143 672 154 q 694 115 694 132 l 694 39 m 232 193 q 220 165 232 176 q 193 154 208 154 l 115 154 q 89 165 100 154 q 78 193 78 176 l 78 425 q 89 451 78 440 q 115 463 100 463 l 193 463 q 220 451 208 463 q 232 425 232 440 l 232 193 z "},"∑":{"ha":926,"x_min":78,"x_max":849,"o":"m 849 964 q 838 938 849 949 q 810 926 826 926 l 425 926 q 397 938 408 926 q 386 964 386 949 l 386 1042 q 397 1069 386 1058 q 425 1081 408 1081 l 810 1081 q 838 1069 826 1081 q 849 1042 849 1058 l 849 964 m 694 656 q 683 628 694 640 q 656 617 672 617 l 386 617 l 386 463 l 501 463 q 529 451 518 463 q 540 425 540 440 l 540 347 q 529 319 540 331 q 501 308 518 308 l 386 308 l 386 193 q 375 165 386 176 q 347 154 364 154 l 269 154 q 243 165 254 154 q 232 193 232 176 l 232 308 l 115 308 q 89 319 100 308 q 78 347 78 331 l 78 425 q 89 451 78 440 q 115 463 100 463 l 232 463 l 232 617 l 115 617 q 89 628 100 617 q 78 656 78 640 l 78 733 q 89 760 78 749 q 115 772 100 772 l 232 772 l 232 888 q 243 915 232 903 q 269 926 254 926 l 347 926 q 375 915 364 926 q 386 888 386 903 l 386 772 l 656 772 q 683 760 672 772 q 694 733 694 749 l 694 656 m 849 39 q 838 11 849 22 q 810 0 826 0 l 425 0 q 397 11 408 0 q 386 39 386 22 l 386 115 q 397 143 386 132 q 425 154 408 154 l 810 154 q 838 143 826 154 q 849 115 849 132 l 849 39 z "},"∏":{"ha":926,"x_min":78,"x_max":849,"o":"m 849 501 q 838 474 849 486 q 810 463 826 463 l 733 463 q 706 474 717 463 q 694 501 694 486 l 694 579 q 706 606 694 594 q 733 617 717 617 l 810 617 q 838 606 826 617 q 849 579 849 594 l 849 501 m 694 347 q 683 319 694 331 q 656 308 672 308 l 232 308 l 232 39 q 220 11 232 22 q 193 0 208 0 l 115 0 q 89 11 100 0 q 78 39 78 22 l 78 733 q 89 760 78 749 q 115 772 100 772 l 656 772 q 683 760 672 772 q 694 733 694 749 l 694 656 q 683 628 694 640 q 656 617 672 617 l 232 617 l 232 463 l 656 463 q 683 451 672 463 q 694 425 694 440 l 694 347 m 849 964 q 838 938 849 949 q 810 926 826 926 l 115 926 q 89 938 100 926 q 78 964 78 949 l 78 1042 q 89 1069 78 1058 q 115 1081 100 1081 l 810 1081 q 838 1069 826 1081 q 849 1042 849 1058 l 849 964 m 849 -269 q 838 -297 849 -286 q 810 -308 826 -308 l 115 -308 q 89 -297 100 -308 q 78 -269 78 -286 l 78 -193 q 89 -165 78 -176 q 115 -154 100 -154 l 810 -154 q 838 -165 826 -154 q 849 -193 849 -176 l 849 -269 z "},"ª":{"ha":926,"x_min":78,"x_max":849,"o":"m 694 964 q 683 938 694 949 q 656 926 672 926 l 269 926 q 243 938 254 926 q 232 964 232 949 l 232 1042 q 243 1069 232 1058 q 269 1081 254 1081 l 656 1081 q 683 1069 672 1081 q 694 1042 694 1058 l 694 964 m 849 347 q 838 319 849 331 q 810 308 826 308 l 269 308 q 243 319 254 308 q 232 347 232 331 l 232 425 q 243 451 232 440 q 269 463 254 463 l 694 463 l 694 617 l 269 617 q 243 628 254 617 q 232 656 232 640 l 232 733 q 243 760 232 749 q 269 772 254 772 l 694 772 l 694 888 q 706 915 694 903 q 733 926 717 926 l 810 926 q 838 915 826 926 q 849 888 849 903 l 849 347 m 232 501 q 220 474 232 486 q 193 463 208 463 l 115 463 q 89 474 100 463 q 78 501 78 486 l 78 579 q 89 606 78 594 q 115 617 100 617 l 193 617 q 220 606 208 617 q 232 579 232 594 l 232 501 z "},"º":{"ha":926,"x_min":78,"x_max":849,"o":"m 694 964 q 683 938 694 949 q 656 926 672 926 l 269 926 q 243 938 254 926 q 232 964 232 949 l 232 1042 q 243 1069 232 1058 q 269 1081 254 1081 l 656 1081 q 683 1069 672 1081 q 694 1042 694 1058 l 694 964 m 849 501 q 838 474 849 486 q 810 463 826 463 l 733 463 q 706 474 717 463 q 694 501 694 486 l 694 888 q 706 915 694 903 q 733 926 717 926 l 810 926 q 838 915 826 926 q 849 888 849 903 l 849 501 m 232 501 q 220 474 232 486 q 193 463 208 463 l 115 463 q 89 474 100 463 q 78 501 78 486 l 78 888 q 89 915 78 903 q 115 926 100 926 l 193 926 q 220 915 208 926 q 232 888 232 903 l 232 501 m 694 347 q 683 319 694 331 q 656 308 672 308 l 269 308 q 243 319 254 308 q 232 347 232 331 l 232 425 q 243 451 232 440 q 269 463 254 463 l 656 463 q 683 451 672 463 q 694 425 694 440 l 694 347 z "},"æ":{"ha":926,"x_min":78,"x_max":849,"o":"m 849 39 q 838 11 849 22 q 810 0 826 0 l 269 0 q 243 11 254 0 q 232 39 232 22 l 232 115 q 243 143 232 132 q 269 154 254 154 l 386 154 l 386 308 l 269 308 q 243 320 254 308 q 232 347 232 332 l 232 425 q 243 451 232 440 q 269 463 254 463 l 386 463 l 386 617 l 269 617 q 243 628 254 617 q 232 656 232 640 l 232 733 q 243 760 232 749 q 269 772 254 772 l 656 772 q 683 760 672 772 q 694 733 694 749 l 694 656 q 683 628 694 640 q 656 617 672 617 l 540 617 l 540 463 l 694 463 l 694 579 q 706 606 694 594 q 733 617 717 617 l 810 617 q 838 606 826 617 q 849 579 849 594 l 849 347 q 838 320 849 332 q 810 308 826 308 l 540 308 l 540 154 l 810 154 q 838 143 826 154 q 849 115 849 132 l 849 39 m 232 193 q 220 166 232 178 q 193 154 208 154 l 115 154 q 89 166 100 154 q 78 193 78 178 l 78 269 q 89 297 78 286 q 115 308 100 308 l 193 308 q 220 297 208 308 q 232 269 232 286 l 232 193 z "},"ø":{"ha":926,"x_min":78,"x_max":849,"o":"m 849 193 q 838 165 849 176 q 810 154 826 154 l 733 154 q 706 165 717 154 q 694 193 694 176 l 694 463 l 579 463 q 551 474 563 463 q 540 501 540 486 l 540 617 l 269 617 q 243 628 254 617 q 232 656 232 640 l 232 733 q 243 760 232 749 q 269 772 254 772 l 656 772 q 683 760 672 772 q 694 733 694 749 l 694 656 q 706 628 694 640 q 733 617 717 617 l 810 617 q 838 606 826 617 q 849 579 849 594 l 849 193 m 540 347 q 529 319 540 331 q 501 308 518 308 l 425 308 q 397 319 408 308 q 386 347 386 331 l 386 425 q 397 451 386 440 q 425 463 408 463 l 501 463 q 529 451 518 463 q 540 425 540 440 l 540 347 m 694 39 q 683 11 694 22 q 656 0 672 0 l 269 0 q 243 11 254 0 q 232 39 232 22 l 232 115 q 220 143 232 132 q 193 154 208 154 l 115 154 q 89 165 100 154 q 78 193 78 176 l 78 579 q 89 606 78 594 q 115 617 100 617 l 193 617 q 220 606 208 617 q 232 579 232 594 l 232 308 l 347 308 q 375 297 364 308 q 386 269 386 286 l 386 154 l 656 154 q 683 143 672 154 q 694 115 694 132 l 694 39 z "},"¿":{"ha":926,"x_min":78,"x_max":849,"o":"m 540 964 q 529 938 540 949 q 501 926 518 926 l 425 926 q 397 938 408 926 q 386 964 386 949 l 386 1042 q 397 1069 386 1058 q 425 1081 408 1081 l 501 1081 q 529 1069 518 1081 q 540 1042 540 1058 l 540 964 m 540 656 q 529 628 540 640 q 501 617 518 617 l 425 617 q 397 628 408 617 q 386 656 386 640 l 386 733 q 397 760 386 749 q 425 772 408 772 l 501 772 q 529 760 518 772 q 540 733 540 749 l 540 656 m 849 193 q 838 165 849 176 q 810 154 826 154 l 733 154 q 706 165 717 154 q 694 193 694 176 l 694 269 q 706 297 694 286 q 733 308 717 308 l 810 308 q 838 297 826 308 q 849 269 849 286 l 849 193 m 386 501 q 375 474 386 486 q 347 463 364 463 l 269 463 q 243 474 254 463 q 232 501 232 486 l 232 579 q 243 606 232 594 q 269 617 254 617 l 347 617 q 375 606 364 617 q 386 579 386 594 l 386 501 m 694 39 q 683 11 694 22 q 656 0 672 0 l 269 0 q 243 11 254 0 q 232 39 232 22 l 232 115 q 243 143 232 132 q 269 154 254 154 l 656 154 q 683 143 672 154 q 694 115 694 132 l 694 39 m 232 193 q 220 165 232 176 q 193 154 208 154 l 115 154 q 89 165 100 154 q 78 193 78 176 l 78 425 q 89 451 78 440 q 115 463 100 463 l 193 463 q 220 451 208 463 q 232 425 232 440 l 232 193 z "},"¡":{"ha":926,"x_min":386,"x_max":540,"o":"m 540 964 q 529 938 540 949 q 501 926 518 926 l 425 926 q 397 938 408 926 q 386 964 386 949 l 386 1042 q 397 1069 386 1058 q 425 1081 408 1081 l 501 1081 q 529 1069 518 1081 q 540 1042 540 1058 l 540 964 m 540 39 q 529 11 540 22 q 501 0 518 0 l 425 0 q 397 11 408 0 q 386 39 386 22 l 386 733 q 397 760 386 749 q 425 772 408 772 l 501 772 q 529 760 518 772 q 540 733 540 749 l 540 39 z "},"ƒ":{"ha":926,"x_min":78,"x_max":849,"o":"m 849 964 q 838 938 849 949 q 810 926 826 926 l 579 926 q 551 938 563 926 q 540 964 540 949 l 540 1042 q 551 1069 540 1058 q 579 1081 563 1081 l 810 1081 q 838 1069 826 1081 q 849 1042 849 1058 l 849 964 m 849 656 q 838 628 849 640 q 810 617 826 617 l 540 617 l 540 -115 q 529 -143 540 -132 q 501 -154 518 -154 l 425 -154 q 397 -143 408 -154 q 386 -115 386 -132 l 386 617 l 115 617 q 89 628 100 617 q 78 656 78 640 l 78 733 q 89 760 78 749 q 115 772 100 772 l 386 772 l 386 888 q 397 915 386 903 q 425 926 408 926 l 501 926 q 529 915 518 926 q 540 888 540 903 l 540 772 l 810 772 q 838 760 826 772 q 849 733 849 749 l 849 656 m 386 -269 q 375 -297 386 -286 q 347 -308 364 -308 l 115 -308 q 89 -297 100 -308 q 78 -269 78 -286 l 78 -193 q 89 -165 78 -176 q 115 -154 100 -154 l 347 -154 q 375 -165 364 -154 q 386 -193 386 -176 l 386 -269 z "},"«":{"ha":926,"x_min":78,"x_max":850,"o":"m 694 964 q 683 938 694 949 q 656 926 672 926 l 579 926 q 551 938 563 926 q 540 964 540 949 l 540 1042 q 551 1069 540 1058 q 579 1081 563 1081 l 656 1081 q 683 1069 672 1081 q 694 1042 694 1058 l 694 964 m 540 810 q 529 783 540 794 q 501 772 518 772 l 425 772 q 397 783 408 772 q 386 810 386 794 l 386 888 q 397 915 386 903 q 425 926 408 926 l 501 926 q 529 915 518 926 q 540 888 540 903 l 540 810 m 386 656 q 375 628 386 640 q 347 617 364 617 l 269 617 q 243 628 254 617 q 232 656 232 640 l 232 733 q 243 760 232 749 q 269 772 254 772 l 347 772 q 375 760 364 772 q 386 733 386 749 l 386 656 m 232 501 q 220 474 232 486 q 193 463 208 463 l 115 463 q 89 474 100 463 q 78 501 78 486 l 78 579 q 89 606 78 594 q 115 617 100 617 l 193 617 q 220 606 208 617 q 232 579 232 594 l 232 501 m 386 347 q 375 319 386 331 q 347 308 364 308 l 269 308 q 243 319 254 308 q 232 347 232 331 l 232 425 q 243 451 232 440 q 269 463 254 463 l 347 463 q 375 451 364 463 q 386 425 386 440 l 386 347 m 694 39 q 683 11 694 22 q 656 0 672 0 l 579 0 q 551 11 563 0 q 540 39 540 22 l 540 115 q 551 143 540 132 q 579 154 563 154 l 656 154 q 683 143 672 154 q 694 115 694 132 l 694 39 m 540 193 q 529 165 540 176 q 501 154 518 154 l 425 154 q 397 165 408 154 q 386 193 386 176 l 386 269 q 397 297 386 286 q 425 308 408 308 l 501 308 q 529 297 518 308 q 540 269 540 286 l 540 193 m 850 656 q 838 628 850 640 q 811 617 826 617 l 733 617 q 706 628 718 617 q 694 656 694 640 l 694 733 q 706 760 694 749 q 733 772 718 772 l 811 772 q 838 760 826 772 q 850 733 850 749 l 850 656 m 694 501 q 683 474 694 486 q 657 463 672 463 l 579 463 q 552 474 564 463 q 540 501 540 486 l 540 579 q 552 606 540 594 q 579 617 564 617 l 657 617 q 683 606 672 617 q 694 579 694 594 l 694 501 m 850 347 q 838 319 850 331 q 811 308 826 308 l 733 308 q 706 319 718 308 q 694 347 694 331 l 694 425 q 706 451 694 440 q 733 463 718 463 l 811 463 q 838 451 826 463 q 850 425 850 440 l 850 347 z "},"»":{"ha":926,"x_min":78,"x_max":849,"o":"m 540 810 q 529 783 540 794 q 501 772 518 772 l 425 772 q 397 783 408 772 q 386 810 386 794 l 386 888 q 397 915 386 903 q 425 926 408 926 l 501 926 q 529 915 518 926 q 540 888 540 903 l 540 810 m 694 656 q 683 628 694 640 q 656 617 672 617 l 579 617 q 551 628 563 617 q 540 656 540 640 l 540 733 q 551 760 540 749 q 579 772 563 772 l 656 772 q 683 760 672 772 q 694 733 694 749 l 694 656 m 849 501 q 838 474 849 486 q 810 463 826 463 l 733 463 q 706 474 717 463 q 694 501 694 486 l 694 579 q 706 606 694 594 q 733 617 717 617 l 810 617 q 838 606 826 617 q 849 579 849 594 l 849 501 m 386 964 q 375 938 386 949 q 347 926 364 926 l 269 926 q 243 938 254 926 q 232 964 232 949 l 232 1042 q 243 1069 232 1058 q 269 1081 254 1081 l 347 1081 q 375 1069 364 1081 q 386 1042 386 1058 l 386 964 m 694 347 q 683 319 694 331 q 656 308 672 308 l 579 308 q 551 319 563 308 q 540 347 540 331 l 540 425 q 551 451 540 440 q 579 463 563 463 l 656 463 q 683 451 672 463 q 694 425 694 440 l 694 347 m 232 656 q 220 628 232 640 q 193 617 208 617 l 115 617 q 89 628 100 617 q 78 656 78 640 l 78 733 q 89 760 78 749 q 115 772 100 772 l 193 772 q 220 760 208 772 q 232 733 232 749 l 232 656 m 386 501 q 375 474 386 486 q 347 463 364 463 l 269 463 q 243 474 254 463 q 232 501 232 486 l 232 579 q 243 606 232 594 q 269 617 254 617 l 347 617 q 375 606 364 617 q 386 579 386 594 l 386 501 m 540 193 q 529 165 540 176 q 501 154 518 154 l 425 154 q 397 165 408 154 q 386 193 386 176 l 386 269 q 397 297 386 286 q 425 308 408 308 l 501 308 q 529 297 518 308 q 540 269 540 286 l 540 193 m 232 347 q 220 319 232 331 q 193 308 208 308 l 115 308 q 89 319 100 308 q 78 347 78 331 l 78 425 q 89 451 78 440 q 115 463 100 463 l 193 463 q 220 451 208 463 q 232 425 232 440 l 232 347 m 386 39 q 375 11 386 22 q 347 0 364 0 l 269 0 q 243 11 254 0 q 232 39 232 22 l 232 115 q 243 143 232 132 q 269 154 254 154 l 347 154 q 375 143 364 154 q 386 115 386 132 l 386 39 z "},"…":{"ha":926,"x_min":154,"x_max":926,"o":"m 926 39 q 915 11 926 22 q 888 0 903 0 l 810 0 q 783 11 794 0 q 772 39 772 22 l 772 269 q 783 297 772 286 q 810 308 794 308 l 888 308 q 915 297 903 308 q 926 269 926 286 l 926 39 m 617 39 q 606 11 617 22 q 579 0 594 0 l 501 0 q 474 11 486 0 q 463 39 463 22 l 463 269 q 474 297 463 286 q 501 308 486 308 l 579 308 q 606 297 594 308 q 617 269 617 286 l 617 39 m 308 39 q 297 11 308 22 q 269 0 286 0 l 193 0 q 165 11 176 0 q 154 39 154 22 l 154 269 q 165 297 154 286 q 193 308 176 308 l 269 308 q 297 297 286 308 q 308 269 308 286 l 308 39 z "}," ":{"ha":926,"x_min":0,"x_max":0,"o":""},"À":{"ha":926,"x_min":78,"x_max":849,"o":"m 386 1274 q 375 1246 386 1257 q 347 1235 364 1235 l 269 1235 q 243 1246 254 1235 q 232 1274 232 1257 l 232 1350 q 243 1378 232 1367 q 269 1389 254 1389 l 347 1389 q 375 1378 364 1389 q 386 1350 386 1367 l 386 1274 m 694 964 q 683 938 694 949 q 656 926 672 926 l 269 926 q 243 938 254 926 q 232 964 232 949 l 232 1042 q 243 1069 232 1058 q 269 1081 254 1081 l 386 1081 l 386 1196 q 397 1224 386 1213 q 425 1235 408 1235 l 501 1235 q 529 1224 518 1235 q 540 1196 540 1213 l 540 1081 l 656 1081 q 683 1069 672 1081 q 694 1042 694 1058 l 694 964 m 849 39 q 838 11 849 22 q 810 0 826 0 l 733 0 q 706 11 717 0 q 694 39 694 22 l 694 463 l 232 463 l 232 39 q 220 11 232 22 q 193 0 208 0 l 115 0 q 89 11 100 0 q 78 39 78 22 l 78 888 q 89 915 78 903 q 115 926 100 926 l 193 926 q 220 915 208 926 q 232 888 232 903 l 232 617 l 694 617 l 694 888 q 706 915 694 903 q 733 926 717 926 l 810 926 q 838 915 826 926 q 849 888 849 903 l 849 39 z "},"Ã":{"ha":926,"x_min":78,"x_max":849,"o":"m 849 1119 q 838 1092 849 1103 q 810 1081 826 1081 l 733 1081 q 706 1092 717 1081 q 694 1119 694 1103 l 694 1196 q 706 1224 694 1213 q 733 1235 717 1235 l 810 1235 q 838 1224 826 1235 q 849 1196 849 1213 l 849 1119 m 386 1274 q 375 1246 386 1257 q 347 1235 364 1235 l 269 1235 q 243 1246 254 1235 q 232 1274 232 1257 l 232 1350 q 243 1378 232 1367 q 269 1389 254 1389 l 347 1389 q 375 1378 364 1389 q 386 1350 386 1367 l 386 1274 m 694 964 q 683 938 694 949 q 656 926 672 926 l 269 926 q 243 938 254 926 q 232 964 232 949 l 232 1042 q 243 1069 232 1058 q 269 1081 254 1081 l 386 1081 l 386 1196 q 397 1224 386 1213 q 425 1235 408 1235 l 501 1235 q 529 1224 518 1235 q 540 1196 540 1213 l 540 1081 l 656 1081 q 683 1069 672 1081 q 694 1042 694 1058 l 694 964 m 232 1119 q 220 1092 232 1103 q 193 1081 208 1081 l 115 1081 q 89 1092 100 1081 q 78 1119 78 1103 l 78 1196 q 89 1224 78 1213 q 115 1235 100 1235 l 193 1235 q 220 1224 208 1235 q 232 1196 232 1213 l 232 1119 m 849 39 q 838 11 849 22 q 810 0 826 0 l 733 0 q 706 11 717 0 q 694 39 694 22 l 694 463 l 232 463 l 232 39 q 220 11 232 22 q 193 0 208 0 l 115 0 q 89 11 100 0 q 78 39 78 22 l 78 888 q 89 915 78 903 q 115 926 100 926 l 193 926 q 220 915 208 926 q 232 888 232 903 l 232 617 l 694 617 l 694 888 q 706 915 694 903 q 733 926 717 926 l 810 926 q 838 915 826 926 q 849 888 849 903 l 849 39 z "},"Õ":{"ha":926,"x_min":78,"x_max":849,"o":"m 849 1119 q 838 1092 849 1103 q 810 1081 826 1081 l 733 1081 q 706 1092 717 1081 q 694 1119 694 1103 l 694 1196 q 706 1224 694 1213 q 733 1235 717 1235 l 810 1235 q 838 1224 826 1235 q 849 1196 849 1213 l 849 1119 m 386 1274 q 375 1246 386 1257 q 347 1235 364 1235 l 269 1235 q 243 1246 254 1235 q 232 1274 232 1257 l 232 1350 q 243 1378 232 1367 q 269 1389 254 1389 l 347 1389 q 375 1378 364 1389 q 386 1350 386 1367 l 386 1274 m 694 964 q 683 938 694 949 q 656 926 672 926 l 269 926 q 243 938 254 926 q 232 964 232 949 l 232 1042 q 243 1069 232 1058 q 269 1081 254 1081 l 386 1081 l 386 1196 q 397 1224 386 1213 q 425 1235 408 1235 l 501 1235 q 529 1224 518 1235 q 540 1196 540 1213 l 540 1081 l 656 1081 q 683 1069 672 1081 q 694 1042 694 1058 l 694 964 m 232 1119 q 220 1092 232 1103 q 193 1081 208 1081 l 115 1081 q 89 1092 100 1081 q 78 1119 78 1103 l 78 1196 q 89 1224 78 1213 q 115 1235 100 1235 l 193 1235 q 220 1224 208 1235 q 232 1196 232 1213 l 232 1119 m 849 193 q 838 165 849 176 q 810 154 826 154 l 733 154 q 706 165 717 154 q 694 193 694 176 l 694 888 q 706 915 694 903 q 733 926 717 926 l 810 926 q 838 915 826 926 q 849 888 849 903 l 849 193 m 232 193 q 220 165 232 176 q 193 154 208 154 l 115 154 q 89 165 100 154 q 78 193 78 176 l 78 888 q 89 915 78 903 q 115 926 100 926 l 193 926 q 220 915 208 926 q 232 888 232 903 l 232 193 m 694 39 q 683 11 694 22 q 656 0 672 0 l 269 0 q 243 11 254 0 q 232 39 232 22 l 232 115 q 243 143 232 132 q 269 154 254 154 l 656 154 q 683 143 672 154 q 694 115 694 132 l 694 39 z "},"Œ":{"ha":926,"x_min":78,"x_max":849,"o":"m 849 39 q 838 11 849 22 q 810 0 826 0 l 269 0 q 243 11 254 0 q 232 39 232 22 l 232 115 q 243 143 232 132 q 269 154 254 154 l 386 154 l 386 926 l 269 926 q 243 938 254 926 q 232 964 232 949 l 232 1042 q 243 1069 232 1058 q 269 1081 254 1081 l 810 1081 q 838 1069 826 1081 q 849 1042 849 1058 l 849 964 q 838 938 849 949 q 810 926 826 926 l 540 926 l 540 617 l 656 617 q 683 606 672 617 q 694 579 694 594 l 694 501 q 683 474 694 486 q 656 463 672 463 l 540 463 l 540 154 l 810 154 q 838 143 826 154 q 849 115 849 132 l 849 39 m 232 193 q 220 165 232 176 q 193 154 208 154 l 115 154 q 89 165 100 154 q 78 193 78 176 l 78 888 q 89 915 78 903 q 115 926 100 926 l 193 926 q 220 915 208 926 q 232 888 232 903 l 232 193 z "},"œ":{"ha":926,"x_min":78,"x_max":849,"o":"m 849 39 q 838 11 849 22 q 810 0 826 0 l 269 0 q 243 11 254 0 q 232 39 232 22 l 232 115 q 243 143 232 132 q 269 154 254 154 l 386 154 l 386 617 l 269 617 q 243 628 254 617 q 232 656 232 640 l 232 733 q 243 760 232 749 q 269 772 254 772 l 656 772 q 683 760 672 772 q 694 733 694 749 l 694 656 q 683 628 694 640 q 656 617 672 617 l 540 617 l 540 463 l 694 463 l 694 579 q 706 606 694 594 q 733 617 717 617 l 810 617 q 838 606 826 617 q 849 579 849 594 l 849 347 q 838 320 849 332 q 810 308 826 308 l 540 308 l 540 154 l 810 154 q 838 143 826 154 q 849 115 849 132 l 849 39 m 232 193 q 220 166 232 178 q 193 154 208 154 l 115 154 q 89 166 100 154 q 78 193 78 178 l 78 579 q 89 606 78 594 q 115 617 100 617 l 193 617 q 220 606 208 617 q 232 579 232 594 l 232 193 z "},"–":{"ha":926,"x_min":78,"x_max":849,"o":"m 849 347 q 838 319 849 331 q 810 308 826 308 l 115 308 q 89 319 100 308 q 78 347 78 331 l 78 425 q 89 451 78 440 q 115 463 100 463 l 810 463 q 838 451 826 463 q 849 425 849 440 l 849 347 l 849 347 z "},"—":{"ha":926,"x_min":78,"x_max":849,"o":"m 849 347 q 838 319 849 331 q 810 308 826 308 l 115 308 q 89 319 100 308 q 78 347 78 331 l 78 425 q 89 451 78 440 q 115 463 100 463 l 810 463 q 838 451 826 463 q 849 425 849 440 l 849 347 l 849 347 z "},"“":{"ha":926,"x_min":78,"x_max":849,"o":"m 849 964 q 838 938 849 949 q 810 926 826 926 l 733 926 q 706 938 717 926 q 694 964 694 949 l 694 1042 q 706 1069 694 1058 q 733 1081 717 1081 l 810 1081 q 838 1069 826 1081 q 849 1042 849 1058 l 849 964 m 849 501 q 838 474 849 486 q 810 463 826 463 l 579 463 q 551 474 563 463 q 540 501 540 486 l 540 888 q 551 915 540 903 q 579 926 563 926 l 656 926 q 683 915 672 926 q 694 888 694 903 l 694 772 l 810 772 q 838 760 826 772 q 849 733 849 749 l 849 501 m 386 964 q 375 938 386 949 q 347 926 364 926 l 269 926 q 243 938 254 926 q 232 964 232 949 l 232 1042 q 243 1069 232 1058 q 269 1081 254 1081 l 347 1081 q 375 1069 364 1081 q 386 1042 386 1058 l 386 964 m 386 501 q 375 474 386 486 q 347 463 364 463 l 115 463 q 89 474 100 463 q 78 501 78 486 l 78 888 q 89 915 78 903 q 115 926 100 926 l 193 926 q 220 915 208 926 q 232 888 232 903 l 232 772 l 347 772 q 375 760 364 772 q 386 733 386 749 l 386 501 z "},"”":{"ha":926,"x_min":78,"x_max":849,"o":"m 849 656 q 838 628 849 640 q 810 617 826 617 l 733 617 q 706 628 717 617 q 694 656 694 640 l 694 772 l 579 772 q 551 783 563 772 q 540 810 540 794 l 540 1042 q 551 1069 540 1058 q 579 1081 563 1081 l 810 1081 q 838 1069 826 1081 q 849 1042 849 1058 l 849 656 m 694 501 q 683 474 694 486 q 656 463 672 463 l 579 463 q 551 474 563 463 q 540 501 540 486 l 540 579 q 551 606 540 594 q 579 617 563 617 l 656 617 q 683 606 672 617 q 694 579 694 594 l 694 501 m 386 656 q 375 628 386 640 q 347 617 364 617 l 269 617 q 243 628 254 617 q 232 656 232 640 l 232 772 l 115 772 q 89 783 100 772 q 78 810 78 794 l 78 1042 q 89 1069 78 1058 q 115 1081 100 1081 l 347 1081 q 375 1069 364 1081 q 386 1042 386 1058 l 386 656 m 232 501 q 220 474 232 486 q 193 463 208 463 l 115 463 q 89 474 100 463 q 78 501 78 486 l 78 579 q 89 606 78 594 q 115 617 100 617 l 193 617 q 220 606 208 617 q 232 579 232 594 l 232 501 z "},"‘":{"ha":926,"x_min":386,"x_max":694,"o":"m 694 964 q 683 938 694 949 q 656 926 672 926 l 579 926 q 551 938 563 926 q 540 964 540 949 l 540 1042 q 551 1069 540 1058 q 579 1081 563 1081 l 656 1081 q 683 1069 672 1081 q 694 1042 694 1058 l 694 964 m 694 501 q 683 474 694 486 q 656 463 672 463 l 425 463 q 397 474 408 463 q 386 501 386 486 l 386 888 q 397 915 386 903 q 425 926 408 926 l 501 926 q 529 915 518 926 q 540 888 540 903 l 540 772 l 656 772 q 683 760 672 772 q 694 733 694 749 l 694 501 z "},"’":{"ha":926,"x_min":232,"x_max":540,"o":"m 540 656 q 529 628 540 640 q 501 617 518 617 l 425 617 q 397 628 408 617 q 386 656 386 640 l 386 772 l 269 772 q 243 783 254 772 q 232 810 232 794 l 232 1042 q 243 1069 232 1058 q 269 1081 254 1081 l 501 1081 q 529 1069 518 1081 q 540 1042 540 1058 l 540 656 m 386 501 q 375 474 386 486 q 347 463 364 463 l 269 463 q 243 474 254 463 q 232 501 232 486 l 232 579 q 243 606 232 594 q 269 617 254 617 l 347 617 q 375 606 364 617 q 386 579 386 594 l 386 501 z "},"ÿ":{"ha":926,"x_min":78,"x_max":849,"o":"m 849 -115 q 838 -143 849 -132 q 810 -154 826 -154 l 733 -154 q 706 -143 717 -154 q 694 -115 694 -132 l 694 0 l 269 0 q 243 11 254 0 q 232 39 232 22 l 232 115 q 243 143 232 132 q 269 154 254 154 l 694 154 l 694 733 q 706 760 694 749 q 733 772 717 772 l 810 772 q 838 760 826 772 q 849 733 849 749 l 849 -115 m 232 193 q 220 165 232 176 q 193 154 208 154 l 115 154 q 89 165 100 154 q 78 193 78 176 l 78 733 q 89 760 78 749 q 115 772 100 772 l 193 772 q 220 760 208 772 q 232 733 232 749 l 232 193 m 694 -269 q 683 -297 694 -286 q 656 -308 672 -308 l 115 -308 q 89 -297 100 -308 q 78 -269 78 -286 l 78 -193 q 89 -165 78 -176 q 115 -154 100 -154 l 656 -154 q 683 -165 672 -154 q 694 -193 694 -176 l 694 -269 m 694 964 q 683 938 694 949 q 656 926 672 926 l 579 926 q 551 938 563 926 q 540 964 540 949 l 540 1042 q 551 1069 540 1058 q 579 1081 563 1081 l 656 1081 q 683 1069 672 1081 q 694 1042 694 1058 l 694 964 m 386 964 q 375 938 386 949 q 347 926 364 926 l 269 926 q 243 938 254 926 q 232 964 232 949 l 232 1042 q 243 1069 232 1058 q 269 1081 254 1081 l 347 1081 q 375 1069 364 1081 q 386 1042 386 1058 l 386 964 z "},"Ÿ":{"ha":926,"x_min":78,"x_max":849,"o":"m 849 810 q 838 783 849 794 q 810 772 826 772 l 733 772 q 706 783 717 772 q 694 810 694 794 l 694 1042 q 706 1069 694 1058 q 733 1081 717 1081 l 810 1081 q 838 1069 826 1081 q 849 1042 849 1058 l 849 810 m 694 656 q 683 628 694 640 q 656 617 672 617 l 579 617 q 551 628 563 617 q 540 656 540 640 l 540 733 q 551 760 540 749 q 579 772 563 772 l 656 772 q 683 760 672 772 q 694 733 694 749 l 694 656 m 232 810 q 220 783 232 794 q 193 772 208 772 l 115 772 q 89 783 100 772 q 78 810 78 794 l 78 1042 q 89 1069 78 1058 q 115 1081 100 1081 l 193 1081 q 220 1069 208 1081 q 232 1042 232 1058 l 232 810 m 386 656 q 375 628 386 640 q 347 617 364 617 l 269 617 q 243 628 254 617 q 232 656 232 640 l 232 733 q 243 760 232 749 q 269 772 254 772 l 347 772 q 375 760 364 772 q 386 733 386 749 l 386 656 m 540 39 q 529 11 540 22 q 501 0 518 0 l 425 0 q 397 11 408 0 q 386 39 386 22 l 386 579 q 397 606 386 594 q 425 617 408 617 l 501 617 q 529 606 518 617 q 540 579 540 594 l 540 39 m 694 1274 q 683 1246 694 1257 q 656 1235 672 1235 l 579 1235 q 551 1246 563 1235 q 540 1274 540 1257 l 540 1350 q 551 1378 540 1367 q 579 1389 563 1389 l 656 1389 q 683 1378 672 1389 q 694 1350 694 1367 l 694 1274 m 386 1274 q 375 1246 386 1257 q 347 1235 364 1235 l 269 1235 q 243 1246 254 1235 q 232 1274 232 1257 l 232 1350 q 243 1378 232 1367 q 269 1389 254 1389 l 347 1389 q 375 1378 364 1389 q 386 1350 386 1367 l 386 1274 z "},"⁄":{"ha":926,"x_min":78,"x_max":849,"o":"m 849 39 q 838 11 849 22 q 810 0 826 0 l 115 0 q 89 11 100 0 q 78 39 78 22 l 78 115 q 89 143 78 132 q 115 154 100 154 l 386 154 l 386 463 l 269 463 q 243 474 254 463 q 232 501 232 486 l 232 579 q 243 606 232 594 q 269 617 254 617 l 386 617 l 386 733 q 397 760 386 749 q 425 772 408 772 l 501 772 q 529 760 518 772 q 540 733 540 749 l 540 154 l 810 154 q 838 143 826 154 q 849 115 849 132 l 849 39 m 232 347 q 220 319 232 331 q 193 308 208 308 l 115 308 q 89 319 100 308 q 78 347 78 331 l 78 425 q 89 451 78 440 q 115 463 100 463 l 193 463 q 220 451 208 463 q 232 425 232 440 l 232 347 z "},"¤":{"ha":926,"x_min":78,"x_max":849,"o":"m 694 501 q 683 474 694 486 q 656 463 672 463 l 579 463 q 551 474 563 463 q 540 501 540 486 l 540 579 q 551 606 540 594 q 579 617 563 617 l 656 617 q 683 606 672 617 q 694 579 694 594 l 694 501 m 540 656 q 529 628 540 640 q 501 617 518 617 l 269 617 q 243 628 254 617 q 232 656 232 640 l 232 733 q 243 760 232 749 q 269 772 254 772 l 501 772 q 529 760 518 772 q 540 733 540 749 l 540 656 m 540 347 q 529 319 540 331 q 501 308 518 308 l 425 308 q 397 319 408 308 q 386 347 386 331 l 386 425 q 397 451 386 440 q 425 463 408 463 l 501 463 q 529 451 518 463 q 540 425 540 440 l 540 347 m 849 39 q 838 11 849 22 q 810 0 826 0 l 115 0 q 89 11 100 0 q 78 39 78 22 l 78 115 q 89 143 78 132 q 115 154 100 154 l 232 154 l 232 269 q 243 297 232 286 q 269 308 254 308 l 347 308 q 375 297 364 308 q 386 269 386 286 l 386 154 l 810 154 q 838 143 826 154 q 849 115 849 132 l 849 39 z "},"‹":{"ha":926,"x_min":78,"x_max":849,"o":"m 849 656 q 838 628 849 640 q 810 617 826 617 l 694 617 l 694 501 q 683 474 694 486 q 656 463 672 463 l 579 463 q 551 474 563 463 q 540 501 540 486 l 540 617 l 115 617 q 89 628 100 617 q 78 656 78 640 l 78 733 q 89 760 78 749 q 115 772 100 772 l 810 772 q 838 760 826 772 q 849 733 849 749 l 849 656 m 694 193 q 683 165 694 176 q 656 154 672 154 l 269 154 q 243 165 254 154 q 232 193 232 176 l 232 269 q 243 297 232 286 q 269 308 254 308 l 386 308 l 386 425 q 397 451 386 440 q 425 463 408 463 l 501 463 q 529 451 518 463 q 540 425 540 440 l 540 308 l 656 308 q 683 297 672 308 q 694 269 694 286 l 694 193 m 849 -115 q 838 -143 849 -132 q 810 -154 826 -154 l 733 -154 q 706 -143 717 -154 q 694 -115 694 -132 l 694 115 q 706 143 694 132 q 733 154 717 154 l 810 154 q 838 143 826 154 q 849 115 849 132 l 849 -115 m 694 -269 q 683 -297 694 -286 q 656 -308 672 -308 l 269 -308 q 243 -297 254 -308 q 232 -269 232 -286 l 232 -193 q 243 -165 232 -176 q 269 -154 254 -154 l 656 -154 q 683 -165 672 -154 q 694 -193 694 -176 l 694 -269 m 232 -115 q 220 -143 232 -132 q 193 -154 208 -154 l 115 -154 q 89 -143 100 -154 q 78 -115 78 -132 l 78 -39 q 89 -11 78 -22 q 115 0 100 0 l 193 0 q 220 -11 208 0 q 232 -39 232 -22 l 232 -115 z "},"›":{"ha":926,"x_min":78,"x_max":849,"o":"m 386 347 q 375 319 386 331 q 347 308 364 308 l 269 308 q 243 319 254 308 q 232 347 232 331 l 232 425 q 243 451 232 440 q 269 463 254 463 l 347 463 q 375 451 364 463 q 386 425 386 440 l 386 347 m 849 39 q 838 11 849 22 q 810 0 826 0 l 694 0 l 694 -269 q 683 -297 694 -286 q 656 -308 672 -308 l 579 -308 q 551 -297 563 -308 q 540 -269 540 -286 l 540 0 l 115 0 q 89 11 100 0 q 78 39 78 22 l 78 269 q 89 297 78 286 q 115 308 100 308 l 193 308 q 220 297 208 308 q 232 269 232 286 l 232 154 l 540 154 l 540 463 l 425 463 q 397 474 408 463 q 386 501 386 486 l 386 579 q 397 606 386 594 q 425 617 408 617 l 540 617 l 540 733 q 551 760 540 749 q 579 772 563 772 l 656 772 q 683 760 672 772 q 694 733 694 749 l 694 154 l 810 154 q 838 143 826 154 q 849 115 849 132 l 849 39 z "},"ﬁ":{"ha":926,"x_min":78,"x_max":849,"o":"m 849 656 q 838 628 849 640 q 810 617 826 617 l 232 617 l 232 308 l 656 308 q 683 297 672 308 q 694 269 694 286 l 694 193 q 683 165 694 176 q 656 154 672 154 l 115 154 q 89 165 100 154 q 78 193 78 176 l 78 733 q 89 760 78 749 q 115 772 100 772 l 810 772 q 838 760 826 772 q 849 733 849 749 l 849 656 m 849 -115 q 838 -143 849 -132 q 810 -154 826 -154 l 733 -154 q 706 -143 717 -154 q 694 -115 694 -132 l 694 115 q 706 143 694 132 q 733 154 717 154 l 810 154 q 838 143 826 154 q 849 115 849 132 l 849 -115 m 694 -269 q 683 -297 694 -286 q 656 -308 672 -308 l 269 -308 q 243 -297 254 -308 q 232 -269 232 -286 l 232 -193 q 243 -165 232 -176 q 269 -154 254 -154 l 656 -154 q 683 -165 672 -154 q 694 -193 694 -176 l 694 -269 m 232 -115 q 220 -143 232 -132 q 193 -154 208 -154 l 115 -154 q 89 -143 100 -154 q 78 -115 78 -132 l 78 -39 q 89 -11 78 -22 q 115 0 100 0 l 193 0 q 220 -11 208 0 q 232 -39 232 -22 l 232 -115 z "},"ﬂ":{"ha":926,"x_min":78,"x_max":849,"o":"m 849 810 q 838 783 849 794 q 810 772 826 772 l 733 772 q 706 783 717 772 q 694 810 694 794 l 694 888 q 706 915 694 903 q 733 926 717 926 l 810 926 q 838 915 826 926 q 849 888 849 903 l 849 810 m 694 964 q 683 938 694 949 q 656 926 672 926 l 269 926 q 243 938 254 926 q 232 964 232 949 l 232 1042 q 243 1069 232 1058 q 269 1081 254 1081 l 656 1081 q 683 1069 672 1081 q 694 1042 694 1058 l 694 964 m 849 193 q 838 165 849 176 q 810 154 826 154 l 733 154 q 706 165 717 154 q 694 193 694 176 l 694 425 q 706 451 694 440 q 733 463 717 463 l 810 463 q 838 451 826 463 q 849 425 849 440 l 849 193 m 694 501 q 683 474 694 486 q 656 463 672 463 l 232 463 l 232 193 q 220 165 232 176 q 193 154 208 154 l 115 154 q 89 165 100 154 q 78 193 78 176 l 78 888 q 89 915 78 903 q 115 926 100 926 l 193 926 q 220 915 208 926 q 232 888 232 903 l 232 617 l 656 617 q 683 606 672 617 q 694 579 694 594 l 694 501 m 694 39 q 683 11 694 22 q 656 0 672 0 l 269 0 q 243 11 254 0 q 232 39 232 22 l 232 115 q 243 143 232 132 q 269 154 254 154 l 656 154 q 683 143 672 154 q 694 115 694 132 l 694 39 z "},"‡":{"ha":926,"x_min":78,"x_max":849,"o":"m 849 501 q 838 474 849 486 q 810 463 826 463 l 733 463 q 706 474 717 463 q 694 501 694 486 l 694 617 l 115 617 q 89 628 100 617 q 78 656 78 640 l 78 733 q 89 760 78 749 q 115 772 100 772 l 810 772 q 838 760 826 772 q 849 733 849 749 l 849 501 m 694 347 q 683 319 694 331 q 656 308 672 308 l 579 308 q 551 319 563 308 q 540 347 540 331 l 540 425 q 551 451 540 440 q 579 463 563 463 l 656 463 q 683 451 672 463 q 694 425 694 440 l 694 347 m 540 -269 q 529 -297 540 -286 q 501 -308 518 -308 l 425 -308 q 397 -297 408 -308 q 386 -269 386 -286 l 386 269 q 397 297 386 286 q 425 308 408 308 l 501 308 q 529 297 518 308 q 540 269 540 286 l 540 -269 z "},"·":{"ha":926,"x_min":78,"x_max":849,"o":"m 694 656 q 683 628 694 640 q 656 617 672 617 l 269 617 q 243 628 254 617 q 232 656 232 640 l 232 733 q 243 760 232 749 q 269 772 254 772 l 656 772 q 683 760 672 772 q 694 733 694 749 l 694 656 m 849 -115 q 838 -143 849 -132 q 810 -154 826 -154 l 733 -154 q 706 -143 717 -154 q 694 -115 694 -132 l 694 154 l 269 154 q 243 165 254 154 q 232 193 232 176 l 232 269 q 243 297 232 286 q 269 308 254 308 l 694 308 l 694 579 q 706 606 694 594 q 733 617 717 617 l 810 617 q 838 606 826 617 q 849 579 849 594 l 849 -115 m 232 347 q 220 319 232 331 q 193 308 208 308 l 115 308 q 89 319 100 308 q 78 347 78 331 l 78 579 q 89 606 78 594 q 115 617 100 617 l 193 617 q 220 606 208 617 q 232 579 232 594 l 232 347 m 694 -269 q 683 -297 694 -286 q 656 -308 672 -308 l 269 -308 q 243 -297 254 -308 q 232 -269 232 -286 l 232 -193 q 243 -165 232 -176 q 269 -154 254 -154 l 656 -154 q 683 -165 672 -154 q 694 -193 694 -176 l 694 -269 m 232 -115 q 220 -143 232 -132 q 193 -154 208 -154 l 115 -154 q 89 -143 100 -154 q 78 -115 78 -132 l 78 -39 q 89 -11 78 -22 q 115 0 100 0 l 193 0 q 220 -11 208 0 q 232 -39 232 -22 l 232 -115 z "},"‚":{"ha":926,"x_min":78,"x_max":849,"o":"m 849 193 q 838 165 849 176 q 810 154 826 154 l 733 154 q 706 165 717 154 q 694 193 694 176 l 694 463 l 579 463 q 551 474 563 463 q 540 501 540 486 l 540 617 l 269 617 q 243 628 254 617 q 232 656 232 640 l 232 733 q 243 760 232 749 q 269 772 254 772 l 656 772 q 683 760 672 772 q 694 733 694 749 l 694 656 q 706 628 694 640 q 733 617 717 617 l 810 617 q 838 606 826 617 q 849 579 849 594 l 849 193 m 540 347 q 529 319 540 331 q 501 308 518 308 l 425 308 q 397 319 408 308 q 386 347 386 331 l 386 425 q 397 451 386 440 q 425 463 408 463 l 501 463 q 529 451 518 463 q 540 425 540 440 l 540 347 m 694 39 q 683 11 694 22 q 656 0 672 0 l 269 0 q 243 11 254 0 q 232 39 232 22 l 232 115 q 220 143 232 132 q 193 154 208 154 l 115 154 q 89 165 100 154 q 78 193 78 176 l 78 579 q 89 606 78 594 q 115 617 100 617 l 193 617 q 220 606 208 617 q 232 579 232 594 l 232 308 l 347 308 q 375 297 364 308 q 386 269 386 286 l 386 154 l 656 154 q 683 143 672 154 q 694 115 694 132 l 694 39 z "},"„":{"ha":926,"x_min":78,"x_max":849,"o":"m 849 -115 q 838 -143 849 -132 q 810 -154 826 -154 l 733 -154 q 706 -143 717 -154 q 694 -115 694 -132 l 694 0 l 579 0 q 551 11 563 0 q 540 39 540 22 l 540 269 q 551 297 540 286 q 579 308 563 308 l 810 308 q 838 297 826 308 q 849 269 849 286 l 849 -115 m 694 -269 q 683 -297 694 -286 q 656 -308 672 -308 l 579 -308 q 551 -297 563 -308 q 540 -269 540 -286 l 540 -193 q 551 -165 540 -176 q 579 -154 563 -154 l 656 -154 q 683 -165 672 -154 q 694 -193 694 -176 l 694 -269 m 386 -115 q 375 -143 386 -132 q 347 -154 364 -154 l 269 -154 q 243 -143 254 -154 q 232 -115 232 -132 l 232 0 l 115 0 q 89 11 100 0 q 78 39 78 22 l 78 269 q 89 297 78 286 q 115 308 100 308 l 347 308 q 375 297 364 308 q 386 269 386 286 l 386 -115 m 232 -269 q 220 -297 232 -286 q 193 -308 208 -308 l 115 -308 q 89 -297 100 -308 q 78 -269 78 -286 l 78 -193 q 89 -165 78 -176 q 115 -154 100 -154 l 193 -154 q 220 -165 208 -154 q 232 -193 232 -176 l 232 -269 z "},"‰":{"ha":926,"x_min":78,"x_max":849,"o":"m 386 810 q 375 783 386 794 q 347 772 364 772 l 115 772 q 89 783 100 772 q 78 810 78 794 l 78 1042 q 89 1069 78 1058 q 115 1081 100 1081 l 347 1081 q 375 1069 364 1081 q 386 1042 386 1058 l 386 810 m 849 501 q 838 474 849 486 q 810 463 826 463 l 115 463 q 89 474 100 463 q 78 501 78 486 l 78 579 q 89 606 78 594 q 115 617 100 617 l 810 617 q 838 606 826 617 q 849 579 849 594 l 849 501 m 849 39 q 838 11 849 22 q 810 0 826 0 l 579 0 q 551 11 563 0 q 540 39 540 22 l 540 269 q 551 297 540 286 q 579 308 563 308 l 810 308 q 838 297 826 308 q 849 269 849 286 l 849 39 m 386 39 q 375 11 386 22 q 347 0 364 0 l 115 0 q 89 11 100 0 q 78 39 78 22 l 78 269 q 89 297 78 286 q 115 308 100 308 l 347 308 q 375 297 364 308 q 386 269 386 286 l 386 39 z "},"Â":{"ha":926,"x_min":78,"x_max":849,"o":"m 540 1274 q 529 1246 540 1257 q 501 1235 518 1235 l 425 1235 q 397 1246 408 1235 q 386 1274 386 1257 l 386 1350 q 397 1378 386 1367 q 425 1389 408 1389 l 501 1389 q 529 1378 518 1389 q 540 1350 540 1367 l 540 1274 m 694 964 q 683 938 694 949 q 656 926 672 926 l 269 926 q 243 938 254 926 q 232 964 232 949 l 232 1196 q 243 1224 232 1213 q 269 1235 254 1235 l 347 1235 q 374 1224 363 1235 q 386 1196 386 1213 l 386 1081 l 540 1081 l 540 1196 q 551 1224 540 1213 q 579 1235 563 1235 l 656 1235 q 683 1224 672 1235 q 694 1196 694 1213 l 694 964 m 849 39 q 838 11 849 22 q 810 0 826 0 l 733 0 q 706 11 717 0 q 694 39 694 22 l 694 463 l 232 463 l 232 39 q 220 11 232 22 q 193 0 208 0 l 115 0 q 89 11 100 0 q 78 39 78 22 l 78 888 q 89 915 78 903 q 115 926 100 926 l 193 926 q 220 915 208 926 q 232 888 232 903 l 232 617 l 694 617 l 694 888 q 706 915 694 903 q 733 926 717 926 l 810 926 q 838 915 826 926 q 849 888 849 903 l 849 39 z "},"Ê":{"ha":926,"x_min":78,"x_max":849,"o":"m 540 1274 q 529 1246 540 1257 q 501 1235 518 1235 l 425 1235 q 397 1246 408 1235 q 386 1274 386 1257 l 386 1350 q 397 1378 386 1367 q 425 1389 408 1389 l 501 1389 q 529 1378 518 1389 q 540 1350 540 1367 l 540 1274 m 849 39 q 838 11 849 22 q 810 0 826 0 l 115 0 q 89 11 100 0 q 78 39 78 22 l 78 1042 q 89 1069 78 1058 q 115 1081 100 1081 l 232 1081 l 232 1196 q 243 1224 232 1213 q 269 1235 254 1235 l 347 1235 q 375 1224 364 1235 q 386 1196 386 1213 l 386 1081 l 540 1081 l 540 1196 q 551 1224 540 1213 q 579 1235 563 1235 l 656 1235 q 683 1224 672 1235 q 694 1196 694 1213 l 694 1081 l 810 1081 q 838 1069 826 1081 q 849 1042 849 1058 l 849 964 q 838 938 849 949 q 810 926 826 926 l 232 926 l 232 617 l 656 617 q 683 606 672 617 q 694 579 694 594 l 694 501 q 683 474 694 486 q 656 463 672 463 l 232 463 l 232 154 l 810 154 q 838 143 826 154 q 849 115 849 132 l 849 39 z "},"Á":{"ha":926,"x_min":78,"x_max":849,"o":"m 694 1274 q 683 1246 694 1257 q 656 1235 672 1235 l 579 1235 q 551 1246 563 1235 q 540 1274 540 1257 l 540 1350 q 551 1378 540 1367 q 579 1389 563 1389 l 656 1389 q 683 1378 672 1389 q 694 1350 694 1367 l 694 1274 m 694 964 q 683 938 694 949 q 656 926 672 926 l 269 926 q 243 938 254 926 q 232 964 232 949 l 232 1042 q 243 1069 232 1058 q 269 1081 254 1081 l 386 1081 l 386 1196 q 397 1224 386 1213 q 425 1235 408 1235 l 501 1235 q 529 1224 518 1235 q 540 1196 540 1213 l 540 1081 l 656 1081 q 683 1069 672 1081 q 694 1042 694 1058 l 694 964 m 849 39 q 838 11 849 22 q 810 0 826 0 l 733 0 q 706 11 717 0 q 694 39 694 22 l 694 463 l 232 463 l 232 39 q 220 11 232 22 q 193 0 208 0 l 115 0 q 89 11 100 0 q 78 39 78 22 l 78 888 q 89 915 78 903 q 115 926 100 926 l 193 926 q 220 915 208 926 q 232 888 232 903 l 232 617 l 694 617 l 694 888 q 706 915 694 903 q 733 926 717 926 l 810 926 q 838 915 826 926 q 849 888 849 903 l 849 39 z "},"Ë":{"ha":926,"x_min":78,"x_max":849,"o":"m 849 39 q 838 11 849 22 q 810 0 826 0 l 115 0 q 89 11 100 0 q 78 39 78 22 l 78 1042 q 89 1069 78 1058 q 115 1081 100 1081 l 810 1081 q 838 1069 826 1081 q 849 1042 849 1058 l 849 964 q 838 938 849 949 q 810 926 826 926 l 232 926 l 232 617 l 656 617 q 683 606 672 617 q 694 579 694 594 l 694 501 q 683 474 694 486 q 656 463 672 463 l 232 463 l 232 154 l 810 154 q 838 143 826 154 q 849 115 849 132 l 849 39 m 694 1274 q 683 1246 694 1257 q 656 1235 672 1235 l 579 1235 q 551 1246 563 1235 q 540 1274 540 1257 l 540 1350 q 551 1378 540 1367 q 579 1389 563 1389 l 656 1389 q 683 1378 672 1389 q 694 1350 694 1367 l 694 1274 m 386 1274 q 375 1246 386 1257 q 347 1235 364 1235 l 269 1235 q 243 1246 254 1235 q 232 1274 232 1257 l 232 1350 q 243 1378 232 1367 q 269 1389 254 1389 l 347 1389 q 375 1378 364 1389 q 386 1350 386 1367 l 386 1274 z "},"È":{"ha":926,"x_min":78,"x_max":849,"o":"m 386 1272 q 375 1246 386 1257 q 347 1235 364 1235 l 269 1235 q 243 1246 254 1235 q 232 1272 232 1257 l 232 1350 q 243 1378 232 1367 q 269 1389 254 1389 l 347 1389 q 375 1378 364 1389 q 386 1350 386 1367 l 386 1272 m 849 39 q 838 11 849 22 q 810 0 826 0 l 115 0 q 89 11 100 0 q 78 39 78 22 l 78 1042 q 89 1069 78 1058 q 115 1081 100 1081 l 386 1081 l 386 1196 q 397 1223 386 1211 q 425 1235 408 1235 l 501 1235 q 529 1223 518 1235 q 540 1196 540 1211 l 540 1081 l 810 1081 q 838 1069 826 1081 q 849 1042 849 1058 l 849 964 q 838 938 849 949 q 810 926 826 926 l 232 926 l 232 617 l 656 617 q 683 606 672 617 q 694 579 694 594 l 694 501 q 683 474 694 486 q 656 463 672 463 l 232 463 l 232 154 l 810 154 q 838 143 826 154 q 849 115 849 132 l 849 39 z "},"Í":{"ha":926,"x_min":78,"x_max":849,"o":"m 694 1274 q 683 1246 694 1257 q 656 1235 672 1235 l 579 1235 q 551 1246 563 1235 q 540 1274 540 1257 l 540 1350 q 551 1378 540 1367 q 579 1389 563 1389 l 656 1389 q 683 1378 672 1389 q 694 1350 694 1367 l 694 1274 m 849 39 q 838 11 849 22 q 810 0 826 0 l 115 0 q 89 11 100 0 q 78 39 78 22 l 78 115 q 89 143 78 132 q 115 154 100 154 l 386 154 l 386 926 l 269 926 q 243 938 254 926 q 232 964 232 949 l 232 1042 q 243 1069 232 1058 q 269 1081 254 1081 l 386 1081 l 386 1196 q 397 1224 386 1213 q 425 1235 408 1235 l 501 1235 q 529 1224 518 1235 q 540 1196 540 1213 l 540 1081 l 656 1081 q 683 1069 672 1081 q 694 1042 694 1058 l 694 964 q 683 938 694 949 q 656 926 672 926 l 540 926 l 540 154 l 810 154 q 838 143 826 154 q 849 115 849 132 l 849 39 z "},"Î":{"ha":926,"x_min":78,"x_max":849,"o":"m 540 1274 q 529 1246 540 1257 q 501 1235 518 1235 l 425 1235 q 397 1246 408 1235 q 386 1274 386 1257 l 386 1350 q 397 1378 386 1367 q 425 1389 408 1389 l 501 1389 q 529 1378 518 1389 q 540 1350 540 1367 l 540 1274 m 849 39 q 838 11 849 22 q 810 0 826 0 l 115 0 q 89 11 100 0 q 78 39 78 22 l 78 115 q 89 143 78 132 q 115 154 100 154 l 386 154 l 386 926 l 269 926 q 243 938 254 926 q 232 964 232 949 l 232 1196 q 243 1224 232 1213 q 269 1235 254 1235 l 347 1235 q 374 1224 363 1235 q 386 1196 386 1213 l 386 1081 l 540 1081 l 540 1196 q 551 1224 540 1213 q 579 1235 563 1235 l 656 1235 q 683 1224 672 1235 q 694 1196 694 1213 l 694 964 q 683 938 694 949 q 656 926 672 926 l 540 926 l 540 154 l 810 154 q 838 143 826 154 q 849 115 849 132 l 849 39 z "},"Ï":{"ha":926,"x_min":78,"x_max":849,"o":"m 849 39 q 838 11 849 22 q 810 0 826 0 l 115 0 q 89 11 100 0 q 78 39 78 22 l 78 115 q 89 143 78 132 q 115 154 100 154 l 386 154 l 386 926 l 269 926 q 243 938 254 926 q 232 964 232 949 l 232 1042 q 243 1069 232 1058 q 269 1081 254 1081 l 656 1081 q 683 1069 672 1081 q 694 1042 694 1058 l 694 964 q 683 938 694 949 q 656 926 672 926 l 540 926 l 540 154 l 810 154 q 838 143 826 154 q 849 115 849 132 l 849 39 m 694 1274 q 683 1246 694 1257 q 656 1235 672 1235 l 579 1235 q 551 1246 563 1235 q 540 1274 540 1257 l 540 1350 q 551 1378 540 1367 q 579 1389 563 1389 l 656 1389 q 683 1378 672 1389 q 694 1350 694 1367 l 694 1274 m 386 1274 q 375 1246 386 1257 q 347 1235 364 1235 l 269 1235 q 243 1246 254 1235 q 232 1274 232 1257 l 232 1350 q 243 1378 232 1367 q 269 1389 254 1389 l 347 1389 q 375 1378 364 1389 q 386 1350 386 1367 l 386 1274 z "},"Ì":{"ha":926,"x_min":78,"x_max":849,"o":"m 386 1274 q 375 1246 386 1257 q 347 1235 364 1235 l 269 1235 q 243 1246 254 1235 q 232 1274 232 1257 l 232 1350 q 243 1378 232 1367 q 269 1389 254 1389 l 347 1389 q 375 1378 364 1389 q 386 1350 386 1367 l 386 1274 m 849 39 q 838 11 849 22 q 810 0 826 0 l 115 0 q 89 11 100 0 q 78 39 78 22 l 78 115 q 89 143 78 132 q 115 154 100 154 l 386 154 l 386 926 l 269 926 q 243 938 254 926 q 232 964 232 949 l 232 1042 q 243 1069 232 1058 q 269 1081 254 1081 l 386 1081 l 386 1196 q 397 1224 386 1213 q 425 1235 408 1235 l 501 1235 q 529 1224 518 1235 q 540 1196 540 1213 l 540 1081 l 656 1081 q 683 1069 672 1081 q 694 1042 694 1058 l 694 964 q 683 938 694 949 q 656 926 672 926 l 540 926 l 540 154 l 810 154 q 838 143 826 154 q 849 115 849 132 l 849 39 z "},"Ó":{"ha":926,"x_min":78,"x_max":849,"o":"m 694 1274 q 683 1246 694 1257 q 656 1235 672 1235 l 579 1235 q 551 1246 563 1235 q 540 1274 540 1257 l 540 1350 q 551 1378 540 1367 q 579 1389 563 1389 l 656 1389 q 683 1378 672 1389 q 694 1350 694 1367 l 694 1274 m 694 964 q 683 938 694 949 q 656 926 672 926 l 269 926 q 243 938 254 926 q 232 964 232 949 l 232 1042 q 243 1069 232 1058 q 269 1081 254 1081 l 386 1081 l 386 1196 q 397 1224 386 1213 q 425 1235 408 1235 l 501 1235 q 529 1224 518 1235 q 540 1196 540 1213 l 540 1081 l 656 1081 q 683 1069 672 1081 q 694 1042 694 1058 l 694 964 m 849 193 q 838 165 849 176 q 810 154 826 154 l 733 154 q 706 165 717 154 q 694 193 694 176 l 694 888 q 706 915 694 903 q 733 926 717 926 l 810 926 q 838 915 826 926 q 849 888 849 903 l 849 193 m 232 193 q 220 165 232 176 q 193 154 208 154 l 115 154 q 89 165 100 154 q 78 193 78 176 l 78 888 q 89 915 78 903 q 115 926 100 926 l 193 926 q 220 915 208 926 q 232 888 232 903 l 232 193 m 694 39 q 683 11 694 22 q 656 0 672 0 l 269 0 q 243 11 254 0 q 232 39 232 22 l 232 115 q 243 143 232 132 q 269 154 254 154 l 656 154 q 683 143 672 154 q 694 115 694 132 l 694 39 z "},"Ô":{"ha":926,"x_min":78,"x_max":849,"o":"m 540 1274 q 529 1246 540 1257 q 501 1235 518 1235 l 425 1235 q 397 1246 408 1235 q 386 1274 386 1257 l 386 1350 q 397 1378 386 1367 q 425 1389 408 1389 l 501 1389 q 529 1378 518 1389 q 540 1350 540 1367 l 540 1274 m 694 964 q 683 938 694 949 q 656 926 672 926 l 269 926 q 243 938 254 926 q 232 964 232 949 l 232 1196 q 243 1224 232 1213 q 269 1235 254 1235 l 347 1235 q 374 1224 363 1235 q 386 1196 386 1213 l 386 1081 l 540 1081 l 540 1196 q 551 1224 540 1213 q 579 1235 563 1235 l 656 1235 q 683 1224 672 1235 q 694 1196 694 1213 l 694 964 m 849 193 q 838 165 849 176 q 810 154 826 154 l 733 154 q 706 165 717 154 q 694 193 694 176 l 694 888 q 706 915 694 903 q 733 926 717 926 l 810 926 q 838 915 826 926 q 849 888 849 903 l 849 193 m 232 193 q 220 165 232 176 q 193 154 208 154 l 115 154 q 89 165 100 154 q 78 193 78 176 l 78 888 q 89 915 78 903 q 115 926 100 926 l 193 926 q 220 915 208 926 q 232 888 232 903 l 232 193 m 694 39 q 683 11 694 22 q 656 0 672 0 l 269 0 q 243 11 254 0 q 232 39 232 22 l 232 115 q 243 143 232 132 q 269 154 254 154 l 656 154 q 683 143 672 154 q 694 115 694 132 l 694 39 z "},"Ò":{"ha":926,"x_min":78,"x_max":849,"o":"m 386 1274 q 375 1246 386 1257 q 347 1235 364 1235 l 269 1235 q 243 1246 254 1235 q 232 1274 232 1257 l 232 1350 q 243 1378 232 1367 q 269 1389 254 1389 l 347 1389 q 375 1378 364 1389 q 386 1350 386 1367 l 386 1274 m 694 964 q 683 938 694 949 q 656 926 672 926 l 269 926 q 243 938 254 926 q 232 964 232 949 l 232 1042 q 243 1069 232 1058 q 269 1081 254 1081 l 386 1081 l 386 1196 q 397 1224 386 1213 q 425 1235 408 1235 l 501 1235 q 529 1224 518 1235 q 540 1196 540 1213 l 540 1081 l 656 1081 q 683 1069 672 1081 q 694 1042 694 1058 l 694 964 m 849 193 q 838 165 849 176 q 810 154 826 154 l 733 154 q 706 165 717 154 q 694 193 694 176 l 694 888 q 706 915 694 903 q 733 926 717 926 l 810 926 q 838 915 826 926 q 849 888 849 903 l 849 193 m 232 193 q 220 165 232 176 q 193 154 208 154 l 115 154 q 89 165 100 154 q 78 193 78 176 l 78 888 q 89 915 78 903 q 115 926 100 926 l 193 926 q 220 915 208 926 q 232 888 232 903 l 232 193 m 694 39 q 683 11 694 22 q 656 0 672 0 l 269 0 q 243 11 254 0 q 232 39 232 22 l 232 115 q 243 143 232 132 q 269 154 254 154 l 656 154 q 683 143 672 154 q 694 115 694 132 l 694 39 z "},"Ú":{"ha":926,"x_min":78,"x_max":849,"o":"m 849 193 q 838 165 849 176 q 810 154 826 154 l 733 154 q 706 165 717 154 q 694 193 694 176 l 694 1042 q 706 1069 694 1058 q 733 1081 717 1081 l 810 1081 q 838 1069 826 1081 q 849 1042 849 1058 l 849 193 m 232 193 q 220 165 232 176 q 193 154 208 154 l 115 154 q 89 165 100 154 q 78 193 78 176 l 78 1042 q 89 1069 78 1058 q 115 1081 100 1081 l 193 1081 q 220 1069 208 1081 q 232 1042 232 1058 l 232 193 m 694 39 q 683 11 694 22 q 656 0 672 0 l 269 0 q 243 11 254 0 q 232 39 232 22 l 232 115 q 243 143 232 132 q 269 154 254 154 l 656 154 q 683 143 672 154 q 694 115 694 132 l 694 39 m 694 1274 q 683 1246 694 1257 q 656 1235 672 1235 l 579 1235 q 551 1246 563 1235 q 540 1274 540 1257 l 540 1350 q 551 1378 540 1367 q 579 1389 563 1389 l 656 1389 q 683 1378 672 1389 q 694 1350 694 1367 l 694 1274 m 540 1119 q 529 1092 540 1103 q 501 1081 518 1081 l 425 1081 q 397 1092 408 1081 q 386 1119 386 1103 l 386 1196 q 397 1224 386 1213 q 425 1235 408 1235 l 501 1235 q 529 1224 518 1235 q 540 1196 540 1213 l 540 1119 z "},"Û":{"ha":926,"x_min":78,"x_max":849,"o":"m 849 193 q 838 165 849 176 q 810 154 826 154 l 733 154 q 706 165 717 154 q 694 193 694 176 l 694 1042 q 706 1069 694 1058 q 733 1081 717 1081 l 810 1081 q 838 1069 826 1081 q 849 1042 849 1058 l 849 193 m 232 193 q 220 165 232 176 q 193 154 208 154 l 115 154 q 89 165 100 154 q 78 193 78 176 l 78 1042 q 89 1069 78 1058 q 115 1081 100 1081 l 193 1081 q 220 1069 208 1081 q 232 1042 232 1058 l 232 193 m 694 39 q 683 11 694 22 q 656 0 672 0 l 269 0 q 243 11 254 0 q 232 39 232 22 l 232 115 q 243 143 232 132 q 269 154 254 154 l 656 154 q 683 143 672 154 q 694 115 694 132 l 694 39 m 540 1274 q 529 1246 540 1257 q 501 1235 518 1235 l 425 1235 q 397 1246 408 1235 q 386 1274 386 1257 l 386 1350 q 397 1378 386 1367 q 425 1389 408 1389 l 501 1389 q 529 1378 518 1389 q 540 1350 540 1367 l 540 1274 m 694 1119 q 683 1092 694 1103 q 656 1081 672 1081 l 579 1081 q 551 1092 563 1081 q 540 1119 540 1103 l 540 1196 q 551 1224 540 1213 q 579 1235 563 1235 l 656 1235 q 683 1224 672 1235 q 694 1196 694 1213 l 694 1119 m 386 1119 q 375 1092 386 1103 q 347 1081 364 1081 l 269 1081 q 243 1092 254 1081 q 232 1119 232 1103 l 232 1196 q 243 1224 232 1213 q 269 1235 254 1235 l 347 1235 q 375 1224 364 1235 q 386 1196 386 1213 l 386 1119 z "},"Ù":{"ha":926,"x_min":78,"x_max":849,"o":"m 386 1274 q 375 1246 386 1257 q 347 1235 364 1235 l 269 1235 q 243 1246 254 1235 q 232 1274 232 1257 l 232 1350 q 243 1378 232 1367 q 269 1389 254 1389 l 347 1389 q 375 1378 364 1389 q 386 1350 386 1367 l 386 1274 m 540 1119 q 529 1092 540 1103 q 501 1081 518 1081 l 425 1081 q 397 1092 408 1081 q 386 1119 386 1103 l 386 1196 q 397 1224 386 1213 q 425 1235 408 1235 l 501 1235 q 529 1224 518 1235 q 540 1196 540 1213 l 540 1119 m 849 193 q 838 165 849 176 q 810 154 826 154 l 733 154 q 706 165 717 154 q 694 193 694 176 l 694 1042 q 706 1069 694 1058 q 733 1081 717 1081 l 810 1081 q 838 1069 826 1081 q 849 1042 849 1058 l 849 193 m 232 193 q 220 165 232 176 q 193 154 208 154 l 115 154 q 89 165 100 154 q 78 193 78 176 l 78 1042 q 89 1069 78 1058 q 115 1081 100 1081 l 193 1081 q 220 1069 208 1081 q 232 1042 232 1058 l 232 193 m 694 39 q 683 11 694 22 q 656 0 672 0 l 269 0 q 243 11 254 0 q 232 39 232 22 l 232 115 q 243 143 232 132 q 269 154 254 154 l 656 154 q 683 143 672 154 q 694 115 694 132 l 694 39 z "},"ı":{"ha":926,"x_min":78,"x_max":849,"o":"m 849 39 q 838 11 849 22 q 810 0 826 0 l 115 0 q 89 11 100 0 q 78 39 78 22 l 78 115 q 89 143 78 132 q 115 154 100 154 l 386 154 l 386 617 l 269 617 q 243 628 254 617 q 232 656 232 640 l 232 733 q 243 760 232 749 q 269 772 254 772 l 501 772 q 529 760 518 772 q 540 733 540 749 l 540 154 l 810 154 q 838 143 826 154 q 849 115 849 132 l 849 39 l 849 39 z "},"ˆ":{"ha":926,"x_min":232,"x_max":694,"o":"m 540 964 q 529 938 540 949 q 501 926 518 926 l 425 926 q 397 938 408 926 q 386 964 386 949 l 386 1042 q 397 1069 386 1058 q 425 1081 408 1081 l 501 1081 q 529 1069 518 1081 q 540 1042 540 1058 l 540 964 m 694 810 q 683 783 694 794 q 656 772 672 772 l 579 772 q 551 783 563 772 q 540 810 540 794 l 540 888 q 551 915 540 903 q 579 926 563 926 l 656 926 q 683 915 672 926 q 694 888 694 903 l 694 810 m 386 810 q 375 783 386 794 q 347 772 364 772 l 269 772 q 243 783 254 772 q 232 810 232 794 l 232 888 q 243 915 232 903 q 269 926 254 926 l 347 926 q 375 915 364 926 q 386 888 386 903 l 386 810 z "},"˜":{"ha":926,"x_min":78,"x_max":849,"o":"m 849 810 q 838 783 849 794 q 810 772 826 772 l 733 772 q 706 783 717 772 q 694 810 694 794 l 694 888 q 706 915 694 903 q 733 926 717 926 l 810 926 q 838 915 826 926 q 849 888 849 903 l 849 810 m 386 964 q 375 938 386 949 q 347 926 364 926 l 269 926 q 243 938 254 926 q 232 964 232 949 l 232 1042 q 243 1069 232 1058 q 269 1081 254 1081 l 347 1081 q 375 1069 364 1081 q 386 1042 386 1058 l 386 964 m 694 656 q 683 628 694 640 q 656 617 672 617 l 579 617 q 551 628 563 617 q 540 656 540 640 l 540 733 q 551 760 540 749 q 579 772 563 772 l 656 772 q 683 760 672 772 q 694 733 694 749 l 694 656 m 540 810 q 529 783 540 794 q 501 772 518 772 l 425 772 q 397 783 408 772 q 386 810 386 794 l 386 888 q 397 915 386 903 q 425 926 408 926 l 501 926 q 529 915 518 926 q 540 888 540 903 l 540 810 m 232 810 q 220 783 232 794 q 193 772 208 772 l 115 772 q 89 783 100 772 q 78 810 78 794 l 78 888 q 89 915 78 903 q 115 926 100 926 l 193 926 q 220 915 208 926 q 232 888 232 903 l 232 810 z "},"¯":{"ha":926,"x_min":232,"x_max":694,"o":"m 694 964 q 683 938 694 949 q 656 926 672 926 l 269 926 q 243 938 254 926 q 232 964 232 949 l 232 1042 q 243 1069 232 1058 q 269 1081 254 1081 l 656 1081 q 683 1069 672 1081 q 694 1042 694 1058 l 694 964 l 694 964 z "},"˘":{"ha":926,"x_min":78,"x_max":849,"o":"m 849 964 q 838 938 849 949 q 810 926 826 926 l 733 926 q 706 938 717 926 q 694 964 694 949 l 694 1042 q 706 1069 694 1058 q 733 1081 717 1081 l 810 1081 q 838 1069 826 1081 q 849 1042 849 1058 l 849 964 m 232 964 q 220 938 232 949 q 193 926 208 926 l 115 926 q 89 938 100 926 q 78 964 78 949 l 78 1042 q 89 1069 78 1058 q 115 1081 100 1081 l 193 1081 q 220 1069 208 1081 q 232 1042 232 1058 l 232 964 m 694 810 q 683 783 694 794 q 656 772 672 772 l 269 772 q 243 783 254 772 q 232 810 232 794 l 232 888 q 243 915 232 903 q 269 926 254 926 l 656 926 q 683 915 672 926 q 694 888 694 903 l 694 810 z "},"˙":{"ha":926,"x_min":232,"x_max":694,"o":"m 694 810 q 683 783 694 794 q 656 772 672 772 l 579 772 q 551 760 563 772 q 540 733 540 749 l 540 656 q 529 628 540 640 q 501 617 518 617 l 425 617 q 397 628 408 617 q 386 656 386 640 l 386 733 q 375 760 386 749 q 347 772 364 772 l 269 772 q 243 783 254 772 q 232 810 232 794 l 232 888 q 243 915 232 903 q 269 926 254 926 l 347 926 q 375 938 364 926 q 386 964 386 949 l 386 1042 q 397 1069 386 1058 q 425 1081 408 1081 l 501 1081 q 529 1069 518 1081 q 540 1042 540 1058 l 540 964 q 551 938 540 949 q 579 926 563 926 l 656 926 q 683 915 672 926 q 694 888 694 903 l 694 810 l 694 810 z "},"˚":{"ha":926,"x_min":232,"x_max":694,"o":"m 540 964 q 529 938 540 949 q 501 926 518 926 l 425 926 q 397 938 408 926 q 386 964 386 949 l 386 1042 q 397 1069 386 1058 q 425 1081 408 1081 l 501 1081 q 529 1069 518 1081 q 540 1042 540 1058 l 540 964 m 694 810 q 683 783 694 794 q 656 772 672 772 l 579 772 q 551 783 563 772 q 540 810 540 794 l 540 888 q 551 915 540 903 q 579 926 563 926 l 656 926 q 683 915 672 926 q 694 888 694 903 l 694 810 m 386 810 q 375 783 386 794 q 347 772 364 772 l 269 772 q 243 783 254 772 q 232 810 232 794 l 232 888 q 243 915 232 903 q 269 926 254 926 l 347 926 q 375 915 364 926 q 386 888 386 903 l 386 810 m 540 656 q 529 628 540 640 q 501 617 518 617 l 425 617 q 397 628 408 617 q 386 656 386 640 l 386 733 q 397 760 386 749 q 425 772 408 772 l 501 772 q 529 760 518 772 q 540 733 540 749 l 540 656 z "},"¸":{"ha":926,"x_min":232,"x_max":540,"o":"m 540 -115 q 529 -143 540 -132 q 501 -154 518 -154 l 425 -154 q 397 -143 408 -154 q 386 -115 386 -132 l 386 -39 q 397 -11 386 -22 q 425 0 408 0 l 501 0 q 529 -11 518 0 q 540 -39 540 -22 l 540 -115 m 386 -269 q 375 -297 386 -286 q 347 -308 364 -308 l 269 -308 q 243 -297 254 -308 q 232 -269 232 -286 l 232 -193 q 243 -165 232 -176 q 269 -154 254 -154 l 347 -154 q 375 -165 364 -154 q 386 -193 386 -176 l 386 -269 z "},"˝":{"ha":926,"x_min":78,"x_max":849,"o":"m 386 964 q 375 938 386 949 q 347 926 364 926 l 269 926 q 243 938 254 926 q 232 964 232 949 l 232 1042 q 243 1069 232 1058 q 269 1081 254 1081 l 347 1081 q 375 1069 364 1081 q 386 1042 386 1058 l 386 964 m 232 810 q 220 783 232 794 q 193 772 208 772 l 115 772 q 89 783 100 772 q 78 810 78 794 l 78 888 q 89 915 78 903 q 115 926 100 926 l 193 926 q 220 915 208 926 q 232 888 232 903 l 232 810 m 849 964 q 838 938 849 949 q 810 926 826 926 l 733 926 q 706 938 717 926 q 694 964 694 949 l 694 1042 q 706 1069 694 1058 q 733 1081 717 1081 l 810 1081 q 838 1069 826 1081 q 849 1042 849 1058 l 849 964 m 694 810 q 683 783 694 794 q 656 772 672 772 l 579 772 q 551 783 563 772 q 540 810 540 794 l 540 888 q 551 915 540 903 q 579 926 563 926 l 656 926 q 683 915 672 926 q 694 888 694 903 l 694 810 z "},"˛":{"ha":926,"x_min":232,"x_max":540,"o":"m 540 39 q 529 11 540 22 q 501 0 518 0 l 425 0 q 397 11 408 0 q 386 39 386 22 l 386 115 q 397 143 386 132 q 425 154 408 154 l 501 154 q 529 143 518 154 q 540 115 540 132 l 540 39 m 386 -115 q 375 -143 386 -132 q 347 -154 364 -154 l 269 -154 q 243 -143 254 -154 q 232 -115 232 -132 l 232 -39 q 243 -11 232 -22 q 269 0 254 0 l 347 0 q 375 -11 364 0 q 386 -39 386 -22 l 386 -115 m 540 -269 q 529 -297 540 -286 q 501 -308 518 -308 l 425 -308 q 397 -297 408 -308 q 386 -269 386 -286 l 386 -193 q 397 -165 386 -176 q 425 -154 408 -154 l 501 -154 q 529 -165 518 -154 q 540 -193 540 -176 l 540 -269 z "},"ˇ":{"ha":926,"x_min":232,"x_max":694,"o":"m 694 964 q 683 938 694 949 q 656 926 672 926 l 579 926 q 551 938 563 926 q 540 964 540 949 l 540 1042 q 551 1069 540 1058 q 579 1081 563 1081 l 656 1081 q 683 1069 672 1081 q 694 1042 694 1058 l 694 964 m 386 964 q 375 938 386 949 q 347 926 364 926 l 269 926 q 243 938 254 926 q 232 964 232 949 l 232 1042 q 243 1069 232 1058 q 269 1081 254 1081 l 347 1081 q 375 1069 364 1081 q 386 1042 386 1058 l 386 964 m 540 810 q 529 783 540 794 q 501 772 518 772 l 425 772 q 397 783 408 772 q 386 810 386 794 l 386 888 q 397 915 386 903 q 425 926 408 926 l 501 926 q 529 915 518 926 q 540 888 540 903 l 540 810 z "},"€":{"ha":926,"x_min":78,"x_max":849,"o":"m 849 964 q 838 938 849 949 q 810 926 826 926 l 425 926 q 397 938 408 926 q 386 964 386 949 l 386 1042 q 397 1069 386 1058 q 425 1081 408 1081 l 810 1081 q 838 1069 826 1081 q 849 1042 849 1058 l 849 964 m 694 656 q 683 628 694 640 q 656 617 672 617 l 386 617 l 386 463 l 501 463 q 529 451 518 463 q 540 425 540 440 l 540 347 q 529 319 540 331 q 501 308 518 308 l 386 308 l 386 193 q 375 165 386 176 q 347 154 364 154 l 269 154 q 243 165 254 154 q 232 193 232 176 l 232 308 l 115 308 q 89 319 100 308 q 78 347 78 331 l 78 425 q 89 451 78 440 q 115 463 100 463 l 232 463 l 232 617 l 115 617 q 89 628 100 617 q 78 656 78 640 l 78 733 q 89 760 78 749 q 115 772 100 772 l 232 772 l 232 888 q 243 915 232 903 q 269 926 254 926 l 347 926 q 375 915 364 926 q 386 888 386 903 l 386 772 l 656 772 q 683 760 672 772 q 694 733 694 749 l 694 656 m 849 39 q 838 11 849 22 q 810 0 826 0 l 425 0 q 397 11 408 0 q 386 39 386 22 l 386 115 q 397 143 386 132 q 425 154 408 154 l 810 154 q 838 143 826 154 q 849 115 849 132 l 849 39 z "}}}
